<svg width="104" height="77" viewBox="0 0 104 77" fill="none" xmlns="http://www.w3.org/2000/svg">
<path fill-rule="evenodd" clip-rule="evenodd" d="M29.6226 2.91147L29.4468 3.47242H30.039V4.11294L29.317 3.88668L29.017 3.79268L27.995 3.47242V4.54341V4.77305V5.61439L27.3838 5.42285L27.5875 4.77305H26.9731H25.9511V3.47242V0.689941L28.6062 1.52199L29.9282 1.93625L29.6226 2.91147ZM27.995 7.37431H26.9731H25.9511V9.97557H26.9731H27.995V7.37431ZM27.995 12.5768H26.9731H25.9511V15.1781H26.9731H27.995V12.5768ZM27.995 17.7794H27.6469L27.4665 17.1055L25.882 17.5297L25.9511 17.7876V19.08H26.297L26.4105 19.5041L27.995 19.08V17.7794ZM23.2416 20.3523L22.9773 19.3651L22.7131 18.3779L19.5441 19.2261L19.8083 20.2134L20.0726 21.2006L23.2416 20.3523ZM16.9036 22.0488L16.6394 21.0616L16.3751 20.0744L13.2061 20.9226L13.4704 21.9098L13.7346 22.8971L16.9036 22.0488ZM11.0532 23.6148L10.7024 23.067L10.4307 23.241L10.3014 22.7581L10.0372 21.7708L8.45268 22.195L5.7523 22.9178L7.25998 25.2718L8.26779 26.8453L9.12839 26.2941L9.48822 26.0637L9.50968 26.1439L10.138 25.9757L9.98899 25.743L9.5596 25.0725L8.98118 24.1694L10.0172 23.8921L10.5657 23.7453L11.0532 23.6148ZM12.0046 28.89L11.144 29.4412L10.2834 29.9924L12.299 33.1395L13.1596 32.5883L14.0202 32.0371L12.0046 28.89ZM16.0359 35.1842L15.4206 35.5783L15.3902 35.5562L15.3337 35.6339L15.1753 35.7354L14.3147 36.2866L15.3225 37.8601L15.8088 37.5487L16.2407 37.8626L17.0437 36.7578L16.0359 35.1842ZM14.6349 40.0723L13.8081 39.4715L12.9814 38.8707L11.3755 41.0805L12.2023 41.6813L13.029 42.2821L14.6349 40.0723ZM11.4231 44.4918L10.5964 43.891L9.76967 43.2902L8.16379 45.4999L8.99051 46.1007L9.81724 46.7015L11.4231 44.4918ZM8.21136 48.9112L7.38464 48.3104L6.55792 47.7096L4.95204 49.9194L5.77876 50.5202L6.60549 51.121L8.21136 48.9112ZM5.68208 52.3916H4.19667V52.7472L4.17289 52.7299L3.34617 52.1291L2.54323 53.2339L0.18457 56.4795H4.19667H5.89118V55.5807L6.65306 54.5323L6.51993 54.4355H5.89118H5.46002H4.19667L4.93938 53.4136L4.99961 53.3307L5.68208 52.3916ZM9.28021 54.4355V55.4575V56.4795H12.6692V55.4575V54.4355H9.28021ZM16.0583 54.4355V55.4575V56.4795H19.4473V55.4575V54.4355H16.0583ZM22.8363 54.4355V55.4575V56.4795H23.6007L23.9127 56.8376L24.3238 56.4795H24.5308V56.2991L24.6832 56.1663L25.4538 55.495L24.5308 54.4355H22.8363ZM27.2998 57.6138L26.5292 58.2852L25.7587 58.9565L27.6047 61.0754L28.3752 60.404L29.1458 59.7327L27.2998 57.6138ZM30.9918 61.8516L30.2212 62.5229L29.4507 63.1942L31.2967 65.3131L32.0672 64.6418L32.8378 63.9704L30.9918 61.8516ZM34.6838 66.0893L33.9132 66.7606L33.1427 67.432L34.0657 68.4914L34.9196 69.4716L36.1694 69.1137L37.7384 68.6645L37.457 67.682L37.1757 66.6995L35.6068 67.1487L34.6838 66.0893ZM40.3136 65.801L40.5949 66.7835L40.8762 67.766L44.0141 66.8676L43.7328 65.8851L43.4514 64.9026L40.3136 65.801ZM46.5893 64.0041L46.8706 64.9866L47.1519 65.9691L50.2898 65.0706L50.0085 64.0881L49.7272 63.1056L46.5893 64.0041ZM52.865 62.2072L53.1463 63.1897L53.4277 64.1721L54.1844 63.9555L54.7906 64.2907L55.2851 63.3963L55.7796 62.5019L54.4339 61.7579L52.865 62.2072ZM58.4709 63.9898L57.9764 64.8842L57.4819 65.7785L60.1732 67.2664L60.6677 66.3721L61.1621 65.4777L58.4709 63.9898ZM63.8534 66.9656L63.359 67.86L62.8645 68.7543L65.5558 70.2422L66.0502 69.3478L66.5447 68.4535L63.8534 66.9656ZM69.236 69.9414L68.7415 70.8357L68.2471 71.7301L70.9383 73.218L71.4328 72.3236L71.9273 71.4293L69.236 69.9414ZM74.1156 72.6391L73.9838 73.1554L74.4246 73.268L74.1241 73.8115L73.6296 74.7059L74.9753 75.4499L77.2902 76.7297L77.9446 74.1667L78.3537 72.5646L77.3635 72.3118L76.791 72.1656L76.9531 71.8723L76.4867 71.6145L76.3733 72.059L76.2255 72.6378L75.9642 73.6611L75.0399 73.1501L74.6186 72.9171L74.1156 72.6391ZM77.1914 68.8547L78.1816 69.1075L79.1718 69.3604L79.9899 66.1561L78.9997 65.9033L78.0095 65.6505L77.1914 68.8547ZM78.8276 62.4462L79.8178 62.699L80.808 62.9518L81.6261 59.7476L80.6359 59.4948L79.6457 59.2419L78.8276 62.4462ZM80.4638 56.0377L81.3632 56.2673L81.4014 56.41L81.6556 56.342L82.4442 56.5433L82.5573 56.1006L82.9858 55.9859L82.7815 55.2224L82.8533 54.9412L82.6954 54.9009L82.4573 54.0114L80.8728 54.4355L80.4638 56.0377ZM85.6263 53.1632L85.8906 54.1504L86.1548 55.1376L89.3238 54.2894L89.0595 53.3022L88.7953 52.315L85.6263 53.1632ZM91.9643 51.4667L92.2285 52.4539L92.4928 53.4412L95.6617 52.5929L95.3975 51.6057L95.1332 50.6185L91.9643 51.4667ZM97.608 49.9561L98.4398 50.7897L98.5466 50.6832L98.5665 50.7575L98.8307 51.7447L100.415 51.3206L103.832 50.4061L101.334 47.9025L100.287 46.8535L99.5636 47.5753L99.4445 47.6941L99.3582 47.3717L98.2206 47.6762L98.8401 48.2971L99.0537 48.5111L99.8867 49.3461L98.7474 49.6511L98.3022 49.7702L97.608 49.9561ZM96.7469 46.199L97.4704 45.4772L98.1938 44.7554L96.1006 42.6573L95.3771 43.3792L94.6537 44.101L96.7469 46.199ZM92.5604 42.0029L93.2839 41.2811L94.0074 40.5593L91.9142 38.4612L91.1907 39.183L90.4672 39.9049L92.5604 42.0029ZM88.374 37.8068L88.3764 37.8044L88.7744 38.2014L89.821 37.1524L89.4255 36.7578L89.821 36.3632L88.7744 35.3141L88.3764 35.7112L88.374 35.7087L87.3274 36.7578L87.3276 36.758L88.374 37.8068ZM90.4672 33.6107L91.1907 34.3325L91.9142 35.0543L94.0074 32.9562L93.2839 32.2344L92.5604 31.5126L90.4672 33.6107ZM94.6537 29.4146L95.3771 30.1364L96.1006 30.8582L98.1938 28.7601L97.4704 28.0383L96.7469 27.3165L94.6537 29.4146ZM98.2206 25.8394L99.3582 26.1439L99.4445 25.8215L99.5636 25.9403L100.287 26.6621L101.334 25.613L103.832 23.1094L100.415 22.195L98.8307 21.7708L98.5665 22.7581L98.5466 22.8324L98.4397 22.7258L97.608 23.5595L98.3022 23.7453L98.7473 23.8644L99.8867 24.1694L99.0537 25.0044L98.8401 25.2184L98.2206 25.8394ZM95.1332 22.8971L95.3975 21.9098L95.6617 20.9226L92.4928 20.0744L92.2285 21.0616L91.9643 22.0488L95.1332 22.8971ZM88.7953 21.2006L89.0595 20.2134L89.3238 19.2261L86.1548 18.3779L85.8906 19.3651L85.6263 20.3523L88.7953 21.2006ZM82.4573 19.5041L82.5709 19.08H82.9168V17.7876L82.9858 17.5297L81.4014 17.1055L81.221 17.7794H80.8728V19.08L82.4573 19.5041ZM80.8728 15.1781H81.8948H82.9168V12.5768H81.8948H80.8728V15.1781ZM80.8728 9.97558H81.8948H82.9168V7.37432H81.8948H80.8728V9.97558ZM80.8728 5.61439L81.4841 5.42285L81.2804 4.77306H81.8948H82.9168V3.47242V0.689941L80.2616 1.52199L78.9397 1.93625L79.2453 2.91147L79.4211 3.47242H78.8289V4.11294L79.5509 3.88668L79.8509 3.79268L80.8728 3.47242V4.54341V4.77306V5.61439ZM76.907 4.7152L76.6014 3.73999L76.2958 2.76477L73.6519 3.59329L73.9575 4.56851L74.2631 5.54372L76.907 4.7152ZM71.6192 6.37224L71.3136 5.39702L71.008 4.42181L68.3641 5.25033L68.6697 6.22554L68.9753 7.20076L71.6192 6.37224ZM66.3315 8.02928L66.0258 7.05406L65.7202 6.07885L63.0764 6.90736L63.382 7.88258L63.6876 8.85779L66.3315 8.02928ZM61.0437 9.68631L60.7381 8.7111L60.4325 7.73588L57.7886 8.5644L58.0942 9.53962L58.3998 10.5148L61.0437 9.68631ZM55.7559 11.3434L55.4503 10.3681L55.1447 9.39292L54.4339 9.61565L53.7232 9.39292L53.4176 10.3681L53.112 11.3434L54.4339 11.7576L55.7559 11.3434ZM50.4681 10.5148L50.7737 9.53962L51.0793 8.5644L48.4354 7.73588L48.1298 8.7111L47.8242 9.68631L50.4681 10.5148ZM45.1803 8.8578L45.4859 7.88258L45.7915 6.90736L43.1476 6.07885L42.842 7.05406L42.5364 8.02928L45.1803 8.8578ZM39.8925 7.20076L40.1981 6.22554L40.5037 5.25033L37.8599 4.42181L37.5543 5.39702L37.2486 6.37224L39.8925 7.20076ZM34.6048 5.54372L34.9104 4.56851L35.216 3.59329L32.5721 2.76477L32.2665 3.73999L31.9609 4.7152L34.6048 5.54372ZM33.122 9.02959L54.1274 15.5204L75.1327 9.02959L77.1767 8.398V10.5373V21.815L91.458 25.5845L93.7528 26.1902L92.0648 27.8586L87.5269 32.3436L87.843 29.1573L89.7699 27.2529L87.909 26.7617C87.6006 25.4068 86.4565 24.3382 84.9979 24.1924L75.1327 23.2062V21.815V11.1689L54.7308 17.4732L54.1274 17.6597L53.5239 17.4732L33.122 11.1689V21.815V23.3895L31.5997 23.7913L17.7546 27.4456L21.9363 33.8837C22.1302 35.6437 22.315 37.4005 22.4908 39.1542L14.3762 50.1645H23.1163C23.1156 50.2939 23.1146 50.4234 23.1133 50.5529L23.0965 52.2084H12.8699H10.3308L11.8372 50.1645L21.5307 37.0117L15.674 27.9947L14.5019 26.1902L16.5824 25.641L31.078 21.815V10.5373V8.398L33.122 9.02959ZM26.4339 48.8675H31.6496C31.9581 48.6927 32.2589 48.5091 32.552 48.3167C33.23 47.8581 33.8508 47.3589 34.4146 46.819C34.6855 46.555 34.9342 46.2846 35.1607 46.0077L35.0407 45.8736H33.7021H26.3559C26.3756 46.331 26.3918 46.7889 26.4043 47.2474C26.4191 47.7866 26.429 48.3267 26.4339 48.8675ZM26.4363 50.1645H28.058H28.6154C28.5004 50.1983 28.3857 50.2304 28.2713 50.2608C27.6288 50.4312 27.0161 50.538 26.433 50.5812C26.4344 50.4422 26.4355 50.3033 26.4363 50.1645ZM26.3424 45.571L29.9188 40.7793C29.9152 40.7215 29.9114 40.6626 29.9073 40.6026C29.9002 40.4978 29.8922 40.3897 29.8833 40.2782C29.8758 40.1841 29.8676 40.0876 29.8589 39.9888C29.8544 39.9383 29.8498 39.8871 29.845 39.8353C29.9099 39.7995 29.9683 39.7747 30.0204 39.7609L30.2548 39.6987C30.3781 39.666 30.5073 39.64 30.6424 39.6208C30.6932 39.6136 30.7449 39.6073 30.7975 39.602L31.11 39.1833L32.3656 37.501L31.212 35.7472L31.0931 35.5663C31.0488 35.5978 31.0036 35.6293 30.9575 35.6608C30.9204 35.6862 30.8827 35.7116 30.8445 35.737C30.8362 35.7425 30.828 35.748 30.8197 35.7534C30.8034 35.7642 30.7869 35.775 30.7704 35.7858L30.7134 35.8228L30.6637 35.8546C30.6145 35.8859 30.5652 35.9167 30.5158 35.947C30.4693 35.9756 30.4226 36.0036 30.3758 36.0312C30.347 36.0482 30.3182 36.065 30.2893 36.0817C30.2674 36.0943 30.2454 36.1069 30.2233 36.1193C30.213 36.1252 30.2027 36.131 30.1923 36.1368L30.191 36.1376L30.1904 36.1379L30.1336 36.1695C29.9613 36.2645 29.7874 36.3535 29.6119 36.4364L29.5932 36.4453L29.5928 36.4409L29.5889 36.3985C29.5701 36.1914 29.5509 35.9522 29.5313 35.6811C29.5308 35.6374 29.53 35.5938 29.5291 35.5502C29.5237 35.2981 29.5121 35.0477 29.4941 34.7989C29.4887 34.7345 29.4832 34.6709 29.4775 34.6082C29.4558 34.37 29.4316 34.1441 29.4047 33.9305L29.4008 33.8655C29.3856 33.6185 29.3709 33.4028 29.3566 33.2185L29.5202 33.1751L28.1322 31.065L34.4359 29.422C34.1519 29.2 33.8453 29.029 33.516 28.9091C33.0434 28.7371 32.5504 28.6635 32.0368 28.6883C31.5232 28.713 31.0493 28.783 30.6152 28.8981C29.5734 29.1745 28.587 29.5198 27.6558 29.9341C27.0917 30.1734 26.5428 30.4188 26.0089 30.6703C25.9806 30.6836 25.9524 30.6969 25.9242 30.7103C25.8942 30.7245 25.8642 30.7388 25.8343 30.753C25.5427 30.892 25.2558 31.0328 24.9734 31.1754C24.9981 31.3913 25.0227 31.6071 25.0471 31.823L25.073 31.8623L28.7107 37.3925L26.01 41.0109C26.1605 42.5246 26.2713 44.0446 26.3424 45.571ZM22.9918 45.0547C23.061 46.3206 23.1016 47.5916 23.1138 48.8675H20.146L22.3806 45.8736L22.9918 45.0547ZM55.5115 23.7227L54.5113 24.0279L53.6375 24.2945L52.7638 24.0279L39.0055 19.8299V25.9174V28.2311L38.023 28.4872C37.7754 28.0911 37.4778 27.713 37.1208 27.367C36.6052 26.8532 36.0159 26.4191 35.3562 26.0883L36.0116 25.9174V18.9164V15.7862L39.0055 16.6997L53.6375 21.1643L68.2695 16.6997L71.2635 15.7862V18.9164V22.8194L69.0181 22.5949C68.7636 22.5695 68.5129 22.5735 68.2695 22.6042V19.8299L58.3314 22.8623C57.3506 23.0218 56.4078 23.3087 55.5115 23.7227ZM69.7379 28.6138L70.5084 28.8146L78.0542 30.7812L74.2254 34.5179L73.7053 39.7595L77.5812 43.5422L77.6316 43.0347L77.9597 39.728L77.7098 39.4842L75.5665 37.3925L77.7098 35.3008L78.4728 34.5561L78.5454 33.8249L78.8733 30.5197L80.0798 30.6403L79.822 33.2394L81.4373 31.663L83.9394 29.2211L80.5563 28.3394L72.757 26.3067L71.9951 26.2305L68.6901 25.9001L68.6642 26.1612L68.596 26.849C69.0346 27.4057 69.4159 27.9947 69.7379 28.6138ZM68.1946 48.7673L66.06 56.9076L55.0566 50.9844L53.995 50.4129L52.8335 50.7367L42.0757 53.7359L37.3933 48.5028C37.1812 48.7414 36.9594 48.9731 36.7285 49.1981L36.7181 49.2083L36.7076 49.2183C36.2266 49.679 35.7164 50.112 35.1788 50.5179L41.0861 57.12L53.6375 53.6207L65.2787 59.8872L67.991 61.3473L68.7724 58.3677L71.2107 49.0688L68.1946 48.7673ZM71.3675 45.7465L71.8789 45.6132L71.8608 45.7958L71.3675 45.7465ZM72.5697 38.6512L72.8463 35.8638L71.2799 37.3925L72.5697 38.6512ZM73.1576 45.2799L73.0942 45.9191L73.9987 46.0095L75.1658 46.1262L75.2052 46.1301L76.3991 46.2495L77.3036 46.3399L77.5216 44.1425L73.1576 45.2799ZM79.0706 40.8122L78.8381 43.1553L78.5101 46.4605L79.4415 46.5536L79.9477 46.6042L80.5563 46.4456L82.8492 45.848L82.9712 44.6189L81.4373 43.122L79.0706 40.8122ZM83.3839 40.459L81.3669 38.4655L79.896 37.0117L81.3669 35.558L84.1424 32.8148L83.8262 36.0011L82.8037 37.0117L83.6436 37.8418L83.3839 40.459ZM85.9457 47.7799L89.7699 46.7706L86.4236 43.4632L86.6833 40.8461L92.0648 46.1649L93.7528 47.8333L91.458 48.439L77.1767 52.2084L73.4255 66.6956L72.8973 68.7356L71.0471 67.727L54.1274 58.5031L37.7139 63.1373L29.164 53.4602C29.8684 53.2711 30.5681 53.0326 31.2625 52.7484L38.395 60.8211L53.572 56.536L54.374 56.3096L55.1057 56.7085L71.5753 65.687L75.198 51.6961L75.4979 50.5375L76.655 50.2321L78.3563 49.7831L82.4185 50.1892C84.0492 50.3522 85.5213 49.3064 85.9457 47.7799Z" fill="#FFF813" style="fill:#FFF813;fill:color(display-p3 1.0000 0.9725 0.0745);fill-opacity:1;"/>
<path fill-rule="evenodd" clip-rule="evenodd" d="M46.6246 29.8978L45.9389 30.1599C46.5452 29.739 47.1398 29.412 47.7229 29.179C48.305 28.9372 48.9999 28.7579 49.8076 28.6409C49.4259 27.8275 49.0486 27.252 48.6757 26.9142C48.3018 26.5677 47.8054 26.4292 47.1865 26.4985C46.4282 26.5835 45.4824 27.0469 44.3493 27.8887C43.2152 28.7219 42.1161 29.7894 41.0518 31.0914C39.9952 32.3836 39.1546 33.7929 38.5301 35.3192C37.9133 36.8358 37.6843 38.3089 37.8433 39.7386C37.9616 40.8022 38.2261 41.7125 38.6368 42.4697C39.0553 43.2172 39.5755 43.7679 40.1973 44.1219C40.8269 44.4662 41.5209 44.5959 42.2792 44.5109C43.3078 44.3957 44.3983 43.9249 45.5508 43.0985C46.7111 42.2624 47.6684 41.2284 48.4227 39.9965C48.9747 39.0873 49.4381 38.1351 49.8128 37.1399C50.1875 36.1447 50.4509 35.1796 50.6028 34.2447C50.7626 33.3001 50.8032 32.4747 50.7246 31.7685C50.6742 31.3152 50.5362 30.907 50.3105 30.544C50.0925 30.1712 49.7879 29.892 49.3966 29.7064C49.014 29.5198 48.5699 29.4548 48.0643 29.5114C47.829 29.5378 47.5873 29.5869 47.3394 29.6588C47.1002 29.7297 46.8619 29.8094 46.6246 29.8978ZM41.3646 35.9284C41.8768 34.8207 42.4017 33.9057 42.9392 33.1836C42.3649 34.5277 42.0449 35.6183 41.9792 36.4553C42.6715 35.1421 43.1398 34.3129 43.3838 33.9678C44.0723 33.0169 44.8176 32.2582 45.6195 31.6918C46.4214 31.1253 47.1187 30.8089 47.7114 30.7425C48.4785 30.6565 48.9158 31.0974 49.0234 32.065C49.1698 33.3814 48.8358 34.9016 48.0214 36.6257C47.2148 38.3401 46.2038 39.8435 44.9884 41.1359C43.7817 42.4273 42.7556 43.1204 41.9101 43.2151C40.6985 43.3508 40.0204 42.7692 39.876 41.4703C39.8178 40.9473 39.9252 40.1673 40.1983 39.1306C40.4713 38.0938 40.8601 37.0264 41.3646 35.9284ZM82.747 46.8841L84.6706 27.4977L68.6907 25.9002L68.3369 29.4665L69.2217 29.5549L67.652 45.3751L71.8614 45.7959L73.4311 29.9757L74.6645 30.099L73.0948 45.9192L77.3042 46.34L78.8739 30.5198L80.0805 30.6404L78.5108 46.4606L82.747 46.8841ZM51.7564 32.7848C52.2271 31.5794 52.8373 30.4824 53.5871 29.4936C54.3533 28.5118 55.2124 27.7257 56.1641 27.1354C57.1325 26.5522 58.1878 26.2012 59.3302 26.0826C60.4795 25.9475 61.6892 26.131 62.9592 26.633C64.1726 27.1305 65.1418 27.8363 65.8669 28.7506C66.6155 29.6553 67.1337 30.6669 67.4214 31.7853C67.7091 32.9037 67.799 34.0745 67.6913 35.2978C67.5835 36.5211 67.3118 37.6941 66.876 38.8167C66.4518 39.866 65.847 40.858 65.0617 41.7926C64.2833 42.7107 63.3948 43.4744 62.3959 44.0837C61.3971 44.693 60.3208 45.0936 59.167 45.2854C58.0201 45.4606 56.8778 45.3254 55.74 44.8797C54.6684 44.4622 53.7748 43.8081 53.0592 42.9174C52.3506 42.0102 51.8242 40.9951 51.48 39.8721C51.1427 38.7326 50.9914 37.5454 51.026 36.3105C51.0677 35.059 51.3111 33.8838 51.7564 32.7848ZM59.3719 26.7448C59.1221 26.736 58.905 26.9266 58.7205 27.3166C58.5431 27.6901 58.3885 28.171 58.2567 28.7592C58.1485 29.338 58.0524 29.9804 57.9683 30.6866C57.9007 31.3998 57.8436 32.0882 57.7971 32.7517C57.767 33.4224 57.7449 34.028 57.7308 34.5687C57.7332 35.1165 57.7302 35.5155 57.7219 35.7658C57.7136 36.0161 57.7024 36.4116 57.6882 36.9523C57.6976 37.4835 57.7108 38.0749 57.7278 38.7265C57.7614 39.3852 57.8079 40.0591 57.8675 40.7484C57.9271 41.4377 58.0111 42.069 58.1197 42.6425C58.2352 43.1994 58.3728 43.6583 58.5322 44.0191C58.7082 44.387 58.9211 44.5753 59.1709 44.5841C59.4208 44.593 59.6344 44.4106 59.8119 44.0371C60.0058 43.6707 60.1652 43.2016 60.2899 42.6299C60.4147 42.0582 60.5156 41.4276 60.5927 40.7379C60.6933 40.0388 60.7634 39.3658 60.803 38.7187C60.8591 38.0787 60.899 37.5002 60.9226 36.9831C60.9533 36.4494 60.9693 36.0657 60.9706 35.8319C60.9624 35.5746 60.9571 35.1721 60.9547 34.6243C60.9523 34.0765 60.9343 33.4733 60.9008 32.8147C60.8743 32.1395 60.8265 31.4455 60.7574 30.7326C60.6883 30.0198 60.5912 29.3731 60.4661 28.7926C60.348 28.1956 60.1927 27.7096 60.0002 27.3347C59.8312 26.9502 59.6218 26.7536 59.3719 26.7448ZM36.6011 43.0608C36.7362 42.3745 36.7099 41.6752 36.5224 40.963C36.3852 40.4419 36.1922 39.9912 35.9435 39.6112C35.7122 39.2265 35.4535 38.9141 35.1674 38.6741C34.8767 38.4167 34.5801 38.2073 34.2775 38.046C33.975 37.8846 33.6948 37.7731 33.4371 37.7114C33.8428 37.4179 34.2192 37.0486 34.5664 36.6033C34.909 36.1408 35.1835 35.6312 35.3899 35.0746C35.6136 34.5135 35.7542 33.9186 35.8116 33.2901C35.8864 32.657 35.8369 32.0103 35.663 31.3502C35.4801 30.6554 35.1902 30.1189 34.7935 29.741C34.4141 29.3584 33.9882 29.0811 33.5156 28.9091C33.0431 28.7371 32.55 28.6635 32.0364 28.6882C31.5228 28.713 31.0489 28.7829 30.6149 28.8981C29.5731 29.1745 28.5866 29.5198 27.6554 29.9341C26.7197 30.331 25.8256 30.7448 24.973 31.1754C25.3449 34.422 25.6862 37.6582 25.9969 40.8839C26.3203 44.0876 26.4656 47.3201 26.4326 50.5812C27.0157 50.538 27.6285 50.4312 28.2709 50.2608C28.9828 50.0719 29.7047 49.8154 30.4367 49.4911C31.1814 49.1448 31.8864 48.7534 32.5516 48.3167C33.2296 47.8581 33.8505 47.3588 34.4142 46.819C34.9907 46.2572 35.4667 45.6663 35.8422 45.0463C36.213 44.4089 36.466 43.7471 36.6011 43.0608ZM29.9313 41.011C29.9138 40.6625 29.8849 40.2706 29.8446 39.8353C29.9095 39.7995 29.968 39.7747 30.0201 39.7608L30.2545 39.6987C30.5149 39.6296 30.8019 39.5906 31.1153 39.5818C31.4242 39.5556 31.7185 39.5797 31.9982 39.6542C32.2952 39.7241 32.5493 39.8426 32.7605 40.0096C32.989 40.172 33.1444 40.4095 33.2268 40.7222C33.3411 41.1565 33.3092 41.5645 33.1311 41.9463C32.9485 42.3107 32.6913 42.6391 32.3596 42.9315C32.0234 43.2066 31.6583 43.4428 31.2645 43.6402C30.8706 43.8376 30.5133 43.9975 30.1926 44.1197C30.1477 43.667 30.1101 43.2774 30.0799 42.9509C30.0624 42.6024 30.0408 42.2736 30.0152 41.9645C29.9895 41.6553 29.9615 41.3375 29.9313 41.011ZM29.4044 33.9305C29.3878 33.6561 29.3718 33.4188 29.3562 33.2185L29.6166 33.1494C29.825 33.0941 30.0663 33.058 30.3404 33.041C30.6274 33.0021 30.9061 33.0024 31.1767 33.0422C31.4645 33.0773 31.7095 33.161 31.9115 33.2933C32.1089 33.4082 32.242 33.5959 32.3106 33.8565C32.3655 34.0649 32.3203 34.2814 32.175 34.5057C32.0471 34.7255 31.8475 34.955 31.5761 35.1943C31.3176 35.4116 31.0133 35.6317 30.6633 35.8546C30.3134 36.0775 29.9565 36.2744 29.5928 36.4452C29.5727 36.2276 29.552 35.9729 29.5309 35.6811C29.5272 35.3847 29.5148 35.0907 29.4937 34.7989C29.468 34.4898 29.4382 34.2003 29.4044 33.9305Z" fill="#FFF813" style="fill:#FFF813;fill:color(display-p3 1.0000 0.9725 0.0745);fill-opacity:1;"/>
</svg>
