<svg width="76" height="39" viewBox="0 0 76 39" fill="none" xmlns="http://www.w3.org/2000/svg">
<path fill-rule="evenodd" clip-rule="evenodd" d="M25.0519 33.8305C17.3623 31.3724 10.0709 26.6059 3.96863 19.5001C10.0709 12.3943 17.3623 7.62776 25.0519 5.16958C24.6852 5.53755 24.3363 5.92183 24.0052 6.32092C20.9838 9.96368 19.513 14.7627 19.513 19.5001C19.513 24.2374 20.9838 29.0364 24.0052 32.6792C24.3363 33.0783 24.6852 33.4626 25.0519 33.8305ZM0.874189 18.5559C10.8643 6.37801 24.1965 0.226883 37.5906 0.224122L37.5913 3.20155C32.5041 3.20376 28.778 5.23055 26.2969 8.22176C23.7858 11.2492 22.4904 15.3438 22.4904 19.5001C22.4904 23.6563 23.7858 27.7509 26.2969 30.7784C28.7792 33.7711 32.5078 35.7984 37.5987 35.7986L37.5993 38.776C24.2023 38.7759 10.8665 32.6248 0.874189 20.4443L0.0996094 19.5001L0.874189 18.5559ZM37.5967 27.1231L37.5987 35.7986C37.5989 35.7986 37.5991 35.7986 37.5993 35.7986C37.5994 35.7986 37.5995 35.7986 37.5996 35.7986L37.5996 38.776C50.9968 38.776 64.3327 32.6248 74.325 20.4443L75.0996 19.5001L74.325 18.5559C64.3327 6.37528 50.9968 0.224121 37.5996 0.224121H37.5993L37.5994 3.20154C37.5967 3.20154 37.594 3.20154 37.5913 3.20155L37.5932 11.8769C33.3859 11.8802 29.9761 15.2919 29.9761 19.5C29.9761 23.7093 33.3877 27.1217 37.5967 27.1231ZM37.5995 27.1231L37.5996 35.7986C42.6907 35.7985 46.4194 33.7712 48.9017 30.7784C51.4128 27.7509 52.7083 23.6563 52.7083 19.5001C52.7083 15.3438 51.4128 11.2492 48.9017 8.22176C46.4193 5.22891 42.6905 3.20154 37.5996 3.20154C37.5995 3.20154 37.5994 3.20154 37.5994 3.20154L37.5994 11.8769C41.8095 11.877 45.2223 15.29 45.2223 19.5C45.2223 23.71 41.8095 27.123 37.5995 27.1231ZM51.1934 32.6792C50.8623 33.0784 50.5133 33.4627 50.1466 33.8308C57.8364 31.3727 65.1281 26.6061 71.2306 19.5001C65.1281 12.394 57.8364 7.62743 50.1466 5.16932C50.5133 5.53738 50.8623 5.92174 51.1934 6.32092C54.2149 9.96368 55.6857 14.7627 55.6857 19.5001C55.6857 24.2374 54.2149 29.0364 51.1934 32.6792Z" fill="#FFF813" style="fill:#FFF813;fill:color(display-p3 1.0000 0.9725 0.0745);fill-opacity:1;"/>
</svg>
