<svg width="76" height="39" viewBox="0 0 76 39" fill="none" xmlns="http://www.w3.org/2000/svg">
<path fill-rule="evenodd" clip-rule="evenodd" d="M25.4112 33.8305C17.7217 31.3723 10.4303 26.6058 4.32801 19.5C10.4303 12.3942 17.7217 7.6277 25.4112 5.16951C25.0446 5.53749 24.6956 5.92177 24.3646 6.32086C21.3432 9.96362 19.8723 14.7626 19.8723 19.5C19.8723 24.2374 21.3432 29.0364 24.3646 32.6791C24.6956 33.0782 25.0446 33.4625 25.4112 33.8305ZM1.23356 18.5558C11.2237 6.37795 24.5558 0.226822 37.95 0.224061L37.9506 3.20148C32.8634 3.2037 29.1374 5.23049 26.6563 8.22169C24.1452 11.2491 22.8498 15.3437 22.8498 19.5C22.8498 23.6563 24.1452 27.7508 26.6563 30.7783C29.1386 33.771 32.8672 35.7983 37.958 35.7985L37.9587 38.7759C24.5616 38.7758 11.2259 32.6247 1.23356 20.4442L0.458984 19.5L1.23356 18.5558ZM37.9561 27.1231L37.958 35.7985C37.9583 35.7985 37.9585 35.7985 37.9587 35.7985C37.9588 35.7985 37.9589 35.7985 37.959 35.7985L37.959 38.7759C51.3561 38.7759 64.6921 32.6248 74.6844 20.4442L75.459 19.5L74.6844 18.5558C64.6921 6.37522 51.3561 0.22406 37.959 0.22406H37.9587L37.9587 3.20148C37.956 3.20148 37.9533 3.20148 37.9506 3.20148L37.9526 11.8769C33.7453 11.8801 30.3355 15.2918 30.3355 19.5C30.3355 23.7092 33.7471 27.1217 37.9561 27.1231ZM37.9589 27.1231L37.959 35.7985C43.05 35.7984 46.7788 33.7711 49.2611 30.7783C51.7722 27.7508 53.0677 23.6563 53.0677 19.5C53.0677 15.3437 51.7722 11.2491 49.2611 8.22169C46.7787 5.22885 43.0499 3.20148 37.959 3.20148C37.9589 3.20148 37.9588 3.20148 37.9587 3.20148L37.9588 11.8769C42.1688 11.877 45.5817 15.2899 45.5817 19.5C45.5817 23.71 42.1689 27.1229 37.9589 27.1231ZM51.5528 32.6791C51.2217 33.0783 50.8727 33.4627 50.5059 33.8307C58.1958 31.3726 65.4875 26.606 71.59 19.5C65.4875 12.394 58.1958 7.62737 50.5059 5.16926C50.8727 5.53731 51.2217 5.92168 51.5528 6.32086C54.5743 9.96362 56.0451 14.7626 56.0451 19.5C56.0451 24.2374 54.5743 29.0364 51.5528 32.6791Z" fill="black" style="fill:black;fill-opacity:1;"/>
</svg>
