<svg width="94" height="94" viewBox="0 0 94 94" fill="none" xmlns="http://www.w3.org/2000/svg">
<path fill-rule="evenodd" clip-rule="evenodd" d="M47 94C72.9574 94 94 72.9574 94 47C94 21.0426 72.9574 0 47 0C21.0426 0 0 21.0426 0 47C0 72.9574 21.0426 94 47 94ZM47 75.2C31.4256 75.2 18.8 62.5744 18.8 47C18.8 31.4256 31.4256 18.8 47 18.8C62.5744 18.8 75.2 31.4256 75.2 47C75.2 62.5744 62.5744 75.2 47 75.2ZM47 30C49.9974 30 50.8516 33.5361 48.7533 35.6765L47.1386 37.3236C44.1002 40.4229 45.4996 45.6453 49.6805 46.8102L51.8907 47.4259C55.2797 48.3702 58.41 45.2707 57.4995 41.8725C56.4766 38.0552 60.1926 35.573 62.0394 39.067C63.2912 41.4352 64 44.1348 64 47C64 56.3888 56.3888 64 47 64C37.6112 64 30 56.3888 30 47C30 37.6112 37.6112 30 47 30Z" fill="black" style="fill:black;fill-opacity:1;"/>
</svg>
