<svg width="76" height="75" viewBox="0 0 76 75" fill="none" xmlns="http://www.w3.org/2000/svg">
<mask id="path-1-outside-1_1378_408" maskUnits="userSpaceOnUse" x="-0.489258" y="-0.588257" width="76" height="76" fill="black">
<rect fill="white" x="-0.489258" y="-0.588257" width="76" height="76"/>
<path fill-rule="evenodd" clip-rule="evenodd" d="M70.6872 37.5C70.6872 55.7741 55.8731 70.5882 37.599 70.5882C19.3248 70.5882 4.51074 55.7741 4.51074 37.5C4.51074 19.2259 19.3248 4.41174 37.599 4.41174C55.8731 4.41174 70.6872 19.2259 70.6872 37.5ZM29.4362 17.6616C30.6999 19.0669 31.3182 21.4886 31.4678 25.5847C31.6174 29.6509 31.2666 32.1324 30.2401 34.1057C29.4189 35.7501 28.4209 36.3481 27.5688 35.78C25.9823 34.7037 25.217 32.1025 24.8903 26.6311C24.7122 23.7609 24.7705 23.2526 25.4737 20.8309C26.2649 18.1998 27.2037 16.7647 28.1434 16.7647C28.4077 16.7647 28.9953 17.1833 29.4362 17.6616ZM46.7917 17.1533C47.1736 17.3626 47.585 17.7214 47.7027 17.9606C48.4672 19.4555 48.8497 20.5319 48.9974 21.7876C49.1154 22.5649 49.2628 23.4021 49.3217 23.6413C49.6453 24.5382 49.5308 28.9333 49.1504 31.0262C47.7754 38.7698 43.8393 37.5141 42.982 29.0529C42.6569 25.9136 42.9773 22.0268 43.7392 19.6349C44.5012 17.3626 45.5285 16.5255 46.7917 17.1533ZM13.2621 38.7219C13.4594 38.545 13.6925 38.4279 13.8851 38.3481C14.09 38.2632 14.3157 38.1938 14.5432 38.1366C14.9988 38.0222 15.5254 37.9414 16.0407 37.8955C16.5562 37.8496 17.0889 37.8361 17.5583 37.8669C17.9741 37.8942 18.5148 37.9639 18.9157 38.1973L18.9341 38.208L18.952 38.2196C19.2495 38.4107 19.5883 38.7327 19.6811 39.2226C19.7811 39.7501 19.5446 40.181 19.2807 40.4447C18.841 40.8841 18.1626 41.0704 17.5129 41.0971L17.5369 41.2807L17.5374 41.2843C18.3031 47.3232 22.4474 53.054 28.0485 55.6893L28.0528 55.6913C29.9131 56.5775 30.6757 56.9082 31.2007 57.0428L31.204 57.0436C33.1066 57.5385 34.0171 57.7625 34.8888 57.8587C35.7574 57.9546 36.6054 57.9259 38.4009 57.8569L38.4028 57.8568C40.2527 57.7895 41.5256 57.6696 42.6807 57.4103C43.8279 57.1527 44.8987 56.7485 46.3304 56.0713L46.3304 56.0713L46.3373 56.0681C50.0363 54.3536 53.8766 50.7435 55.5103 47.5022L55.5103 47.5022L55.5143 47.4945C56.4489 45.6805 57.1852 43.2297 57.4254 41.3588C56.8515 41.3014 56.224 41.0578 55.9049 40.4762C55.6961 40.0956 55.6765 39.6431 55.8695 39.2361C56.0464 38.8629 56.359 38.6122 56.6677 38.4496L56.6683 38.4493C57.1722 38.1842 57.8148 38.1086 58.37 38.0989C58.9585 38.0887 59.596 38.1516 60.1801 38.2627C60.7547 38.3719 61.3363 38.5387 61.7902 38.7653C62.0114 38.8758 62.2668 39.0318 62.4696 39.2538C62.664 39.4665 62.882 39.8291 62.8297 40.2912C62.8284 40.3221 62.8266 40.3505 62.8251 40.3737C62.8226 40.4102 62.8195 40.4505 62.8167 40.4855L62.8149 40.5088C62.8077 40.6016 62.8041 40.6603 62.8041 40.6983C62.8044 41.0499 62.6435 41.3742 62.365 41.5862C62.1339 41.762 61.8854 41.8132 61.7351 41.8316C61.4298 41.8691 61.0988 41.8195 60.8201 41.7587L60.8145 41.7574C60.7859 41.751 60.7609 41.7459 60.739 41.7419C60.7151 41.8025 60.6855 41.8903 60.6525 42.0145C60.5828 42.2772 60.515 42.636 60.4409 43.1279C60.2118 44.7081 59.4751 46.6473 58.5244 48.4802C57.5684 50.3232 56.351 52.1454 55.0978 53.4794L55.0978 53.4795L55.0897 53.4879C53.5989 55.0372 51.3885 56.8889 50.0608 57.5901C47.709 58.8835 45.8276 59.7396 43.906 60.2649C41.976 60.7926 40.0544 60.9732 37.6358 60.9732L37.6303 60.9731C35.178 60.9593 33.2482 60.7862 31.3578 60.2993C29.4686 59.8126 27.6666 59.0248 25.4564 57.8354C24.1264 57.1224 22.3015 55.667 20.8349 54.3057C20.0939 53.6179 19.4156 52.9277 18.9147 52.3349C18.6658 52.0404 18.444 51.7504 18.2789 51.4836C18.1963 51.3502 18.1169 51.2051 18.0557 51.0549C18.0469 51.0333 18.0379 51.0101 18.0289 50.9855C17.9603 50.9423 17.9069 50.9001 17.8703 50.8694C17.7295 50.7518 17.612 50.6124 17.5189 50.4886C17.3292 50.2365 17.1375 49.9092 16.9532 49.5568C16.5796 48.8425 16.1682 47.8927 15.7879 46.9001C15.4064 45.9043 15.0468 44.841 14.7809 43.8935C14.5389 43.0311 14.3481 42.1755 14.3266 41.5469C14.0386 41.5845 13.7434 41.5924 13.469 41.5389C13.1564 41.478 12.6528 41.284 12.4416 40.7283C12.2463 40.2145 12.4457 39.7497 12.5919 39.5003C12.7554 39.2214 12.9952 38.9606 13.2621 38.7219ZM59.2624 40.0905C59.3037 40.1645 59.3352 40.2389 59.3593 40.3118C59.4203 40.2458 59.4858 40.1851 59.5559 40.13C59.4584 40.115 59.3603 40.1018 59.2624 40.0905Z"/>
</mask>
<path d="M31.4678 25.5847L27.1735 25.7415L27.1735 25.7426L31.4678 25.5847ZM29.4362 17.6616L32.6313 14.7882L32.6139 14.7688L32.5962 14.7496L29.4362 17.6616ZM30.2401 34.1057L26.4279 32.1226L26.4115 32.1541L26.3956 32.1859L30.2401 34.1057ZM27.5688 35.78L25.1563 39.3361L25.1707 39.3458L25.185 39.3554L27.5688 35.78ZM24.8903 26.6311L29.1798 26.375L29.1792 26.3649L24.8903 26.6311ZM25.4737 20.8309L21.3586 19.5934L21.3527 19.613L21.347 19.6326L25.4737 20.8309ZM47.7027 17.9606L43.8466 19.857L43.8615 19.8873L43.8768 19.9173L47.7027 17.9606ZM46.7917 17.1533L48.8568 13.3849L48.7814 13.3436L48.7044 13.3053L46.7917 17.1533ZM48.9974 21.7876L44.7296 22.2895L44.738 22.3611L44.7489 22.4325L48.9974 21.7876ZM49.3217 23.6413L45.1491 24.6687L45.203 24.8877L45.2796 25.0998L49.3217 23.6413ZM49.1504 31.0262L44.9225 30.2578L44.9209 30.2663L44.9194 30.2749L49.1504 31.0262ZM42.982 29.0529L47.2573 28.6197L47.2563 28.6102L42.982 29.0529ZM43.7392 19.6349L39.6651 18.2686L39.6547 18.2995L39.6448 18.3306L43.7392 19.6349ZM13.8851 38.3481L15.5299 42.318L15.5299 42.318L13.8851 38.3481ZM13.2621 38.7219L16.1268 41.9249L16.1309 41.9212L13.2621 38.7219ZM14.5432 38.1366L15.5899 42.3044L15.5899 42.3044L14.5432 38.1366ZM16.0407 37.8955L16.4217 42.1757H16.4218L16.0407 37.8955ZM17.5583 37.8669L17.8395 33.579L17.8395 33.579L17.5583 37.8669ZM18.9157 38.1973L16.7537 41.911L16.754 41.9112L18.9157 38.1973ZM18.9341 38.208L21.2565 34.5925L21.1773 34.5416L21.0959 34.4942L18.9341 38.208ZM18.952 38.2196L21.2744 34.604L21.2744 34.604L18.952 38.2196ZM19.6811 39.2226L23.9032 38.4224L23.9032 38.4224L19.6811 39.2226ZM19.2807 40.4447L16.2431 37.4052L16.2431 37.4052L19.2807 40.4447ZM17.5129 41.0971L17.3366 36.8035L12.6437 36.9962L13.252 41.6535L17.5129 41.0971ZM17.5369 41.2807L21.7994 40.7355L21.7979 40.7243L17.5369 41.2807ZM17.5374 41.2843L21.8004 40.7438L21.7998 40.7391L17.5374 41.2843ZM28.0485 55.6893L29.8898 51.8066L29.878 51.801L28.0485 55.6893ZM28.0528 55.6913L29.9008 51.8118L29.894 51.8086L28.0528 55.6913ZM31.2007 57.0428L32.2726 52.8814L32.2677 52.8802L31.2007 57.0428ZM31.204 57.0436L32.2858 52.8848L32.2759 52.8823L31.204 57.0436ZM34.8888 57.8587L34.4173 62.1299H34.4173L34.8888 57.8587ZM38.4009 57.8569L38.5658 62.1509L38.5706 62.1507L38.4009 57.8569ZM38.4028 57.8568L38.2465 53.5625L38.2331 53.563L38.4028 57.8568ZM42.6807 57.4103L43.6221 61.603H43.6221L42.6807 57.4103ZM46.3304 56.0713L48.1679 59.9558L52.138 58.0778L50.1739 54.1495L46.3304 56.0713ZM46.3304 56.0713L44.5231 52.1726L40.5075 54.0342L42.4869 57.993L46.3304 56.0713ZM46.3373 56.0681L44.5303 52.1693L44.53 52.1694L46.3373 56.0681ZM55.5103 47.5022L59.3476 49.4364L61.3782 45.4077L57.2556 43.5754L55.5103 47.5022ZM55.5103 47.5022L51.6898 45.535L49.6066 49.5808L53.7651 51.429L55.5103 47.5022ZM55.5143 47.4945L51.6943 45.5264L51.6938 45.5273L55.5143 47.4945ZM57.4254 41.3588L61.6876 41.9062L62.2505 37.5226L57.8529 37.083L57.4254 41.3588ZM55.9049 40.4762L52.1374 42.543L52.1374 42.543L55.9049 40.4762ZM55.8695 39.2361L59.7523 41.0771L59.7523 41.077L55.8695 39.2361ZM56.6677 38.4496L58.6703 42.2516L58.6734 42.2499L56.6677 38.4496ZM56.6683 38.4493L54.6681 34.6459L54.6625 34.6489L56.6683 38.4493ZM58.37 38.0989L58.4449 42.3955H58.4449L58.37 38.0989ZM60.1801 38.2627L60.9826 34.0411L60.9826 34.0411L60.1801 38.2627ZM61.7902 38.7653L63.7098 34.9207L63.7097 34.9207L61.7902 38.7653ZM62.4696 39.2538L65.642 36.3552L65.642 36.3552L62.4696 39.2538ZM62.8297 40.2912L58.5598 39.8075L58.5426 39.9592L58.5362 40.1118L62.8297 40.2912ZM62.8251 40.3737L67.1126 40.6615L67.1126 40.6615L62.8251 40.3737ZM62.8167 40.4855L58.5327 40.1498L58.5325 40.1515L62.8167 40.4855ZM62.8149 40.5088L58.5307 40.1748L58.5306 40.1764L62.8149 40.5088ZM62.8041 40.6983L67.1013 40.6953V40.6953L62.8041 40.6983ZM62.365 41.5862L64.9671 45.0059L64.9671 45.0059L62.365 41.5862ZM61.7351 41.8316L62.2591 46.0967L62.2592 46.0967L61.7351 41.8316ZM60.8201 41.7587L59.8769 45.951L59.8902 45.954L59.9036 45.957L60.8201 41.7587ZM60.8145 41.7574L61.7578 37.565L61.7559 37.5646L60.8145 41.7574ZM60.739 41.7419L61.512 37.5148L58.0336 36.8787L56.7398 40.1696L60.739 41.7419ZM60.6525 42.0145L56.4991 40.9124L56.4991 40.9125L60.6525 42.0145ZM60.4409 43.1279L56.1917 42.4877L56.1899 42.4995L56.1882 42.5112L60.4409 43.1279ZM58.5244 48.4802L62.3389 50.4588L58.5244 48.4802ZM55.0978 53.4794L51.9657 50.5373L48.8866 53.8153L52.3012 56.7421L55.0978 53.4794ZM55.0978 53.4795L58.1946 56.4587L61.35 53.1788L57.8944 50.2168L55.0978 53.4795ZM55.0897 53.4879L58.1861 56.4675L58.1865 56.4671L55.0897 53.4879ZM50.0608 57.5901L48.0541 53.7902L48.0219 53.8072L47.99 53.8248L50.0608 57.5901ZM43.906 60.2649L42.7729 56.1199L42.7729 56.1199L43.906 60.2649ZM37.6358 60.9732L37.6239 65.2703H37.6358V60.9732ZM37.6303 60.9731L37.606 65.2703L37.6184 65.2703L37.6303 60.9731ZM31.3578 60.2993L30.2859 64.4606L30.2859 64.4606L31.3578 60.2993ZM25.4564 57.8354L27.4928 54.0514L27.4867 54.0481L25.4564 57.8354ZM20.8349 54.3057L23.7582 51.1561L23.7582 51.1561L20.8349 54.3057ZM18.9147 52.3349L22.1968 49.5613L22.1968 49.5613L18.9147 52.3349ZM18.2789 51.4836L21.9329 49.2223L21.9329 49.2222L18.2789 51.4836ZM18.0557 51.0549L22.0353 49.4336L22.0353 49.4335L18.0557 51.0549ZM18.0289 50.9855L22.0651 49.5107L21.5613 48.132L20.3193 47.3496L18.0289 50.9855ZM17.8703 50.8694L15.1138 54.166L15.1139 54.1661L17.8703 50.8694ZM17.5189 50.4886L14.0851 53.0722L14.0851 53.0722L17.5189 50.4886ZM16.9532 49.5568L13.1454 51.5483L13.1454 51.5483L16.9532 49.5568ZM15.7879 46.9001L19.8007 45.3626H19.8007L15.7879 46.9001ZM14.7809 43.8935L10.6435 45.0546L10.6435 45.0546L14.7809 43.8935ZM14.3266 41.5469L18.6213 41.4002L18.4599 36.6734L13.7701 37.2859L14.3266 41.5469ZM13.469 41.5389L14.2914 37.3211L14.2913 37.3211L13.469 41.5389ZM12.4416 40.7283L16.4584 39.2015L16.4584 39.2015L12.4416 40.7283ZM12.5919 39.5003L8.88474 37.3272L8.88473 37.3272L12.5919 39.5003ZM59.3593 40.3118L55.2783 41.6578L57.5618 48.5809L62.5132 43.2305L59.3593 40.3118ZM59.2624 40.0905L59.7528 35.8214L51.4223 34.8645L55.5106 42.1856L59.2624 40.0905ZM59.5559 40.13L62.2116 43.5083L69.9947 37.3899L60.21 35.8829L59.5559 40.13ZM37.599 74.8854C58.2464 74.8854 74.9844 58.1474 74.9844 37.5H66.39C66.39 53.4008 53.4998 66.291 37.599 66.291V74.8854ZM0.213569 37.5C0.213569 58.1474 16.9516 74.8854 37.599 74.8854V66.291C21.6981 66.291 8.80792 53.4008 8.80792 37.5H0.213569ZM37.599 0.11457C16.9516 0.11457 0.213569 16.8526 0.213569 37.5H8.80792C8.80792 21.5991 21.6981 8.70892 37.599 8.70892V0.11457ZM74.9844 37.5C74.9844 16.8526 58.2464 0.11457 37.599 0.11457V8.70892C53.4998 8.70892 66.39 21.5991 66.39 37.5H74.9844ZM35.7621 25.4279C35.6109 21.2872 35.0114 17.4348 32.6313 14.7882L26.241 20.5351C26.2699 20.5672 26.4873 20.8228 26.707 21.6804C26.931 22.5547 27.1042 23.8433 27.1735 25.7415L35.7621 25.4279ZM34.0523 36.0888C35.6056 33.1029 35.9192 29.6992 35.7621 25.4267L27.1735 25.7426C27.3155 29.6025 26.9277 31.1619 26.4279 32.1226L34.0523 36.0888ZM25.185 39.3554C26.0353 39.9223 27.089 40.296 28.2657 40.2863C29.4204 40.2768 30.411 39.9011 31.1784 39.4259C32.6096 38.5397 33.5131 37.17 34.0846 36.0255L26.3956 32.1859C26.146 32.6858 26.1398 32.4373 26.6537 32.1191C26.9624 31.9279 27.4924 31.6981 28.1947 31.6923C28.919 31.6863 29.5284 31.9218 29.9526 32.2046L25.185 39.3554ZM20.6008 26.8873C20.7695 29.7137 21.0641 32.1199 21.6334 34.0623C22.2089 36.0259 23.2113 38.0165 25.1563 39.3361L29.9813 32.2239C30.3399 32.4672 30.1663 32.6191 29.8808 31.6451C29.5892 30.65 29.3378 29.02 29.1798 26.375L20.6008 26.8873ZM21.347 19.6326C20.9976 20.836 20.7006 21.9076 20.5764 23.1279C20.4557 24.3139 20.5141 25.4909 20.6014 26.8973L29.1792 26.3649C29.0884 24.9011 29.0868 24.3888 29.1266 23.9978C29.1629 23.6409 29.2467 23.2475 29.6005 22.0291L21.347 19.6326ZM28.1434 12.4675C25.3793 12.4675 23.7888 14.4952 23.1597 15.4543C22.3833 16.6379 21.8074 18.1007 21.3586 19.5934L29.5889 22.0683C29.7517 21.5267 29.9079 21.0951 30.0487 20.7632C30.1926 20.4236 30.2987 20.2401 30.346 20.168C30.4054 20.0774 30.3195 20.2411 30.0312 20.4588C29.7148 20.6978 29.0633 21.0619 28.1434 21.0619V12.4675ZM32.5962 14.7496C32.1764 14.2941 31.6876 13.863 31.1869 13.5127C30.9381 13.3386 30.6108 13.1313 30.2265 12.9503C29.9499 12.8199 29.1689 12.4675 28.1434 12.4675V21.0619C27.6401 21.0619 27.254 20.9677 27.0477 20.9072C26.8245 20.8417 26.6588 20.7699 26.5633 20.7248C26.3773 20.6372 26.2741 20.5645 26.2602 20.5548C26.2344 20.5367 26.2332 20.5339 26.2488 20.5476C26.2549 20.553 26.2613 20.5589 26.2671 20.5645C26.2698 20.5672 26.2721 20.5695 26.2737 20.5712C26.2754 20.5729 26.2762 20.5737 26.2761 20.5736L32.5962 14.7496ZM51.5587 16.0642C51.119 15.17 50.4669 14.5683 50.1884 14.3227C49.8086 13.9878 49.3523 13.6565 48.8568 13.3849L44.7266 20.9218C44.613 20.8595 44.5535 20.8123 44.5042 20.7688C44.474 20.7422 44.4058 20.6798 44.3157 20.5758C44.2483 20.4979 44.041 20.2524 43.8466 19.857L51.5587 16.0642ZM53.2651 21.2857C53.0365 19.3415 52.4249 17.7567 51.5285 16.0039L43.8768 19.9173C44.5095 21.1544 44.6629 21.7222 44.7296 22.2895L53.2651 21.2857ZM53.4942 22.6139C53.5077 22.6686 53.5048 22.6638 53.4823 22.547C53.4642 22.4532 53.441 22.3267 53.4143 22.1743C53.361 21.8699 53.2999 21.4986 53.2459 21.1427L44.7489 22.4325C44.8622 23.1792 45.0359 24.2089 45.1491 24.6687L53.4942 22.6139ZM53.3783 31.7946C53.6263 30.43 53.758 28.5547 53.796 26.9895C53.8155 26.1833 53.8125 25.3718 53.7766 24.6625C53.7517 24.1683 53.694 23.0982 53.3638 22.1828L45.2796 25.0998C45.157 24.76 45.1443 24.551 45.161 24.68C45.1691 24.743 45.1822 24.8778 45.1932 25.096C45.2151 25.5285 45.2203 26.1147 45.2041 26.781C45.1707 28.1608 45.0549 29.5295 44.9225 30.2578L53.3783 31.7946ZM38.7067 29.4861C38.9489 31.8765 39.4286 34.004 40.1675 35.7195C40.7955 37.1778 42.074 39.4139 44.564 40.2096C47.8178 41.2494 50.2004 39.1649 51.2702 37.606C52.3459 36.0384 52.9913 33.9743 53.3814 31.7775L44.9194 30.2749C44.7788 31.0671 44.6188 31.6653 44.4686 32.0957C44.3942 32.3087 44.3271 32.4668 44.2734 32.5782C44.2468 32.6332 44.225 32.6738 44.209 32.7018C44.2011 32.7156 44.1949 32.7259 44.1906 32.7328C44.1884 32.7363 44.1867 32.7389 44.1856 32.7406C44.1845 32.7423 44.1839 32.7431 44.1839 32.7431C44.1839 32.7431 44.1846 32.7422 44.1858 32.7405C44.1871 32.7387 44.189 32.7361 44.1916 32.7327C44.1968 32.7258 44.205 32.7153 44.2163 32.7018C44.2388 32.675 44.276 32.6335 44.3298 32.5825C44.4356 32.4825 44.6235 32.3293 44.9048 32.1892C45.5531 31.8664 46.388 31.77 47.1801 32.0231C47.8628 32.2412 48.1863 32.6119 48.2284 32.6616C48.2807 32.7235 48.2017 32.647 48.0608 32.3199C47.7776 31.6622 47.4438 30.4599 47.2573 28.6197L38.7067 29.4861ZM39.6448 18.3306C38.6666 21.4013 38.3354 25.9011 38.7077 29.4956L47.2563 28.6102C46.9783 25.926 47.288 22.6523 47.8337 20.9392L39.6448 18.3306ZM48.7044 13.3053C47.8373 12.8743 46.7419 12.5655 45.5043 12.6768C44.2454 12.7899 43.1845 13.3071 42.3659 13.973C40.8928 15.1713 40.1227 16.9038 39.6651 18.2686L47.8134 21.0012C47.9415 20.6191 48.0418 20.4179 48.0853 20.3421C48.135 20.2557 48.0605 20.4195 47.7892 20.6401C47.4806 20.8912 46.9609 21.1748 46.2737 21.2366C45.6079 21.2964 45.1146 21.1184 44.8791 21.0014L48.7044 13.3053ZM12.2404 34.3781C11.8473 34.541 11.109 34.8808 10.3933 35.5226L16.1309 41.9212C15.9581 42.0761 15.8066 42.1727 15.7129 42.2264C15.6181 42.2808 15.55 42.3097 15.5299 42.318L12.2404 34.3781ZM13.4966 33.9688C13.1351 34.0596 12.6964 34.1892 12.2403 34.3782L15.5299 42.318C15.5019 42.3296 15.4929 42.3318 15.5074 42.3272C15.5211 42.3228 15.5482 42.3148 15.5899 42.3044L13.4966 33.9688ZM15.6596 33.6152C14.9786 33.6759 14.2213 33.7868 13.4966 33.9689L15.5899 42.3044C15.7764 42.2575 16.0722 42.2068 16.4217 42.1757L15.6596 33.6152ZM17.8395 33.579C17.1019 33.5306 16.3421 33.5545 15.6596 33.6152L16.4218 42.1757C16.7704 42.1447 17.076 42.1417 17.277 42.1549L17.8395 33.579ZM21.0777 34.4837C19.7375 33.7034 18.3005 33.6092 17.8395 33.579L17.277 42.1549C17.3819 42.1618 17.3973 42.1683 17.3562 42.1596C17.3308 42.1542 17.2658 42.1394 17.1722 42.1066C17.0798 42.0742 16.932 42.0148 16.7537 41.911L21.0777 34.4837ZM21.0959 34.4942L21.0775 34.4835L16.754 41.9112L16.7724 41.9219L21.0959 34.4942ZM21.2744 34.604L21.2565 34.5925L16.6118 41.8236L16.6297 41.8351L21.2744 34.604ZM23.9032 38.4224C23.5019 36.3053 22.0767 35.1193 21.2744 34.604L16.6297 41.8351C16.4224 41.702 15.6747 41.16 15.4591 40.0227L23.9032 38.4224ZM22.3183 43.4843C23.2536 42.5496 24.3452 40.7549 23.9032 38.4224L15.4591 40.0227C15.217 38.7453 15.8357 37.8124 16.2431 37.4052L22.3183 43.4843ZM17.6893 45.3906C18.854 45.3428 20.7943 45.0073 22.3183 43.4843L16.2431 37.4052C16.5897 37.0589 16.9242 36.9148 17.0821 36.8607C17.2412 36.8062 17.3308 36.8037 17.3366 36.8035L17.6893 45.3906ZM21.7979 40.7243L21.7739 40.5406L13.252 41.6535L13.2759 41.8372L21.7979 40.7243ZM21.7998 40.7391L21.7994 40.7355L13.2745 41.8259L13.2749 41.8295L21.7998 40.7391ZM29.878 51.801C25.6039 49.7901 22.3807 45.3201 21.8004 40.7438L13.2744 41.8249C14.2255 49.3264 19.2908 56.3179 26.2191 59.5776L29.878 51.801ZM29.894 51.8086L29.8898 51.8066L26.2073 59.572L26.2115 59.574L29.894 51.8086ZM32.2677 52.8802C32.326 52.8951 32.2425 52.8808 31.8255 52.7015C31.4189 52.5265 30.8278 52.2534 29.9008 51.8118L26.2047 59.5708C27.9204 60.3881 29.112 60.9435 30.1336 61.2054L32.2677 52.8802ZM32.2759 52.8823L32.2726 52.8814L30.1288 61.2041L30.1321 61.205L32.2759 52.8823ZM35.3603 53.5874C34.8601 53.5322 34.2729 53.4017 32.2858 52.8848L30.1223 61.2024C31.9402 61.6753 33.1742 61.9927 34.4173 62.1299L35.3603 53.5874ZM38.2361 53.5629C36.3368 53.6358 35.8438 53.6408 35.3603 53.5874L34.4173 62.1299C35.6711 62.2683 36.874 62.2159 38.5658 62.1509L38.2361 53.5629ZM38.2331 53.563L38.2312 53.5631L38.5706 62.1507L38.5726 62.1507L38.2331 53.563ZM41.7394 53.2175C40.9713 53.3899 40.0094 53.4983 38.2465 53.5625L38.5592 62.1512C40.496 62.0807 42.0798 61.9493 43.6221 61.603L41.7394 53.2175ZM44.4929 52.1868C43.2192 52.7893 42.4641 53.0547 41.7394 53.2175L43.6221 61.603C45.1916 61.2506 46.5782 60.7078 48.1679 59.9558L44.4929 52.1868ZM42.4869 57.993L42.4869 57.993L50.1739 54.1495L50.1739 54.1495L42.4869 57.993ZM44.53 52.1694L44.5231 52.1726L48.1377 59.9699L48.1446 59.9667L44.53 52.1694ZM51.673 45.5681C50.5201 47.8555 47.4451 50.8183 44.5303 52.1693L48.1443 59.9668C52.6275 57.889 57.2332 53.6314 59.3476 49.4364L51.673 45.5681ZM53.7651 51.429L53.7651 51.429L57.2556 43.5754L57.2556 43.5754L53.7651 51.429ZM51.6938 45.5273L51.6898 45.535L59.3308 49.4694L59.3347 49.4617L51.6938 45.5273ZM53.1632 40.8115C52.9847 42.2021 52.393 44.1702 51.6943 45.5264L59.3342 49.4626C60.5048 47.1907 61.3856 44.2574 61.6876 41.9062L53.1632 40.8115ZM52.1374 42.543C53.4226 44.8858 55.7299 45.5079 56.9979 45.6347L57.8529 37.083C57.9835 37.096 58.2419 37.1389 58.565 37.3083C58.9172 37.493 59.3608 37.8413 59.6725 38.4095L52.1374 42.543ZM51.9866 37.3951C51.1947 39.0654 51.2749 40.9707 52.1374 42.543L59.6725 38.4095C60.1173 39.2204 60.1582 40.2209 59.7523 41.0771L51.9866 37.3951ZM54.6651 34.6475C53.8535 35.075 52.6928 35.9057 51.9866 37.3951L59.7523 41.077C59.4001 41.82 58.8644 42.1493 58.6703 42.2516L54.6651 34.6475ZM54.6625 34.6489L54.662 34.6492L58.6734 42.2499L58.674 42.2496L54.6625 34.6489ZM58.2952 33.8024C57.549 33.8154 56.0812 33.9028 54.6681 34.6459L58.6684 42.2526C58.5382 42.321 58.4345 42.3589 58.3725 42.3787C58.3101 42.3985 58.273 42.4054 58.2681 42.4063C58.2625 42.4073 58.2755 42.4047 58.3095 42.4018C58.3429 42.3989 58.3879 42.3965 58.4449 42.3955L58.2952 33.8024ZM60.9826 34.0411C60.1511 33.883 59.2175 33.7864 58.2952 33.8024L58.4449 42.3955C58.6995 42.391 59.0409 42.4202 59.3776 42.4842L60.9826 34.0411ZM63.7097 34.9207C62.7682 34.4506 61.763 34.1894 60.9826 34.0411L59.3776 42.4842C59.5368 42.5145 59.6722 42.5483 59.7751 42.5797C59.8849 42.6132 59.91 42.6296 59.8706 42.6099L63.7097 34.9207ZM65.642 36.3552C64.9333 35.5795 64.1519 35.1415 63.7098 34.9207L59.8706 42.6099C59.8534 42.6013 59.7887 42.5683 59.6977 42.5056C59.6076 42.4435 59.4601 42.3306 59.2972 42.1523L65.642 36.3552ZM67.0995 40.7748C67.3419 38.6353 66.3151 37.0919 65.642 36.3552L59.2972 42.1523C59.0129 41.8411 58.4221 41.0229 58.5598 39.8075L67.0995 40.7748ZM67.1126 40.6615C67.1152 40.6217 67.1196 40.553 67.1231 40.4706L58.5362 40.1118C58.5367 40.1008 58.5371 40.0928 58.5374 40.0887C58.5376 40.0845 58.5377 40.0829 58.5375 40.0859L67.1126 40.6615ZM67.1007 40.8211C67.1032 40.7903 67.1082 40.726 67.1126 40.6615L58.5375 40.0858C58.5374 40.0877 58.537 40.094 58.536 40.1063C58.5351 40.1186 58.5341 40.1318 58.5327 40.1498L67.1007 40.8211ZM67.0991 40.8428L67.1009 40.8194L58.5325 40.1515L58.5307 40.1748L67.0991 40.8428ZM67.1013 40.6953C67.1013 40.7516 67.1001 40.7954 67.0992 40.8208C67.0982 40.847 67.0972 40.8652 67.0968 40.8718C67.0962 40.8824 67.0964 40.877 67.0992 40.8412L58.5306 40.1764C58.5254 40.2432 58.5068 40.468 58.507 40.7013L67.1013 40.6953ZM64.9671 45.0059C66.3152 43.98 67.1025 42.3891 67.1013 40.6953L58.507 40.7013C58.5063 39.7107 58.9718 38.7683 59.7628 38.1664L64.9671 45.0059ZM62.2592 46.0967C62.7676 46.0342 63.8762 45.836 64.9671 45.0059L59.7628 38.1664C60.3915 37.688 61.0032 37.5921 61.211 37.5665L62.2592 46.0967ZM59.9036 45.957C60.3169 46.0472 61.2203 46.2244 62.2591 46.0967L61.211 37.5665C61.4584 37.5361 61.6302 37.5498 61.6885 37.5555C61.7528 37.5618 61.7749 37.5687 61.7367 37.5604L59.9036 45.957ZM59.8712 45.9497L59.8769 45.951L61.7634 37.5663L61.7578 37.565L59.8712 45.9497ZM59.9659 45.969C59.9278 45.962 59.8967 45.9555 59.8731 45.9502L61.7559 37.5646C61.6752 37.5465 61.5939 37.5298 61.512 37.5148L59.9659 45.969ZM64.806 43.1165C64.8047 43.1215 64.7853 43.1944 64.7382 43.3142L56.7398 40.1696C56.645 40.4107 56.5663 40.6592 56.4991 40.9124L64.806 43.1165ZM64.6901 43.7681C64.7218 43.5579 64.7483 43.4016 64.7702 43.2865C64.7809 43.23 64.7896 43.1881 64.7962 43.1585C64.8028 43.1286 64.8062 43.1157 64.806 43.1165L56.4991 40.9125C56.368 41.4065 56.2726 41.9506 56.1917 42.4877L64.6901 43.7681ZM62.3389 50.4588C63.3986 48.4159 64.3676 45.9927 64.6936 43.7446L56.1882 42.5112C56.0559 43.4235 55.5516 44.8787 54.7098 46.5016L62.3389 50.4588ZM58.2298 56.4216C59.8224 54.7261 61.2537 52.551 62.3389 50.4588L54.7098 46.5016C53.8832 48.0953 52.8795 49.5646 51.9657 50.5373L58.2298 56.4216ZM57.8944 50.2168L57.8943 50.2168L52.3012 56.7421L52.3013 56.7421L57.8944 50.2168ZM58.1865 56.4671L58.1946 56.4587L52.001 50.5003L51.9929 50.5087L58.1865 56.4671ZM52.0675 61.3899C53.991 60.3741 56.5743 58.1426 58.1861 56.4675L51.9933 50.5083C50.6235 51.9319 48.7861 53.4037 48.0541 53.7902L52.0675 61.3899ZM45.0392 64.41C47.4295 63.7566 49.6488 62.7208 52.1316 61.3554L47.99 53.8248C45.7692 55.0462 44.2257 55.7227 42.7729 56.1199L45.0392 64.41ZM37.6358 65.2703C40.2768 65.2703 42.6119 65.0736 45.0392 64.41L42.7729 56.1199C41.3401 56.5115 39.832 56.676 37.6358 56.676V65.2703ZM37.6184 65.2703L37.6239 65.2703L37.6477 56.676L37.6422 56.676L37.6184 65.2703ZM30.2859 64.4606C32.6486 65.0692 34.966 65.2553 37.606 65.2702L37.6546 56.676C35.3901 56.6632 33.8478 56.5032 32.4297 56.1379L30.2859 64.4606ZM23.42 61.6194C25.7859 62.8926 27.9291 63.8535 30.2859 64.4606L32.4297 56.1379C31.008 55.7717 29.5473 55.157 27.4928 54.0514L23.42 61.6194ZM17.9116 57.4553C19.462 58.8944 21.607 60.6475 23.4261 61.6227L27.4867 54.0481C26.6458 53.5973 25.141 52.4396 23.7582 51.1561L17.9116 57.4553ZM15.6325 55.1086C16.2836 55.879 17.0959 56.6982 17.9116 57.4553L23.7582 51.1561C23.0919 50.5377 22.5476 49.9764 22.1968 49.5613L15.6325 55.1086ZM14.6248 53.745C14.9455 54.2631 15.3152 54.7331 15.6325 55.1086L22.1968 49.5613C22.1135 49.4627 22.0489 49.3815 22.0008 49.3175C21.9513 49.2516 21.932 49.2208 21.9329 49.2223L14.6248 53.745ZM14.0762 52.6762C14.2567 53.1194 14.4641 53.4852 14.6249 53.745L21.9329 49.2222C21.9335 49.2232 21.9441 49.2403 21.9606 49.2717C21.9769 49.3026 22.0042 49.3573 22.0353 49.4336L14.0762 52.6762ZM13.9928 52.4604C14.0219 52.5402 14.0502 52.6125 14.0762 52.6762L22.0353 49.4335C22.0437 49.4541 22.0539 49.4801 22.0651 49.5107L13.9928 52.4604ZM15.1139 54.1661C15.2397 54.2713 15.4535 54.4419 15.7386 54.6215L20.3193 47.3496C20.4671 47.4427 20.5741 47.5288 20.6266 47.5727L15.1139 54.1661ZM14.0851 53.0722C14.2752 53.3248 14.6183 53.7517 15.1138 54.166L20.6267 47.5728C20.742 47.6692 20.8219 47.7525 20.8685 47.8041C20.9159 47.8567 20.9445 47.8942 20.9526 47.905L14.0851 53.0722ZM13.1454 51.5483C13.3718 51.9814 13.6893 52.5461 14.0851 53.0722L20.9526 47.905C20.9712 47.9296 20.9586 47.9156 20.9163 47.8453C20.8762 47.7787 20.8243 47.6863 20.761 47.5652L13.1454 51.5483ZM11.7752 48.4375C12.1883 49.5158 12.6666 50.633 13.1454 51.5483L20.761 47.5652C20.4926 47.0521 20.1481 46.2696 19.8007 45.3626L11.7752 48.4375ZM10.6435 45.0546C10.9514 46.1517 11.3554 47.3419 11.7752 48.4375L19.8007 45.3626C19.4574 44.4666 19.1421 43.5303 18.9182 42.7324L10.6435 45.0546ZM10.032 41.6936C10.0724 42.8759 10.3917 44.1574 10.6435 45.0546L18.9182 42.7324C18.8157 42.3672 18.7366 42.0471 18.6836 41.7841C18.6265 41.5006 18.6208 41.3853 18.6213 41.4002L10.032 41.6936ZM12.6466 45.7566C13.5363 45.9301 14.3334 45.8797 14.8832 45.8079L13.7701 37.2859C13.7709 37.2858 13.8147 37.2799 13.8931 37.2799C13.9708 37.2799 14.1094 37.2857 14.2914 37.3211L12.6466 45.7566ZM8.42476 42.255C9.41152 44.8511 11.7243 45.5768 12.6466 45.7566L14.2913 37.3211C14.5122 37.3642 14.8739 37.4633 15.2747 37.7263C15.7231 38.0205 16.1959 38.5109 16.4584 39.2015L8.42476 42.255ZM8.88473 37.3272C8.51437 37.959 7.53028 39.9017 8.42477 42.255L16.4584 39.2015C16.7033 39.8458 16.6863 40.4522 16.597 40.8847C16.5151 41.2809 16.3714 41.55 16.2991 41.6734L8.88473 37.3272ZM10.3974 35.5189C9.95847 35.9115 9.36172 36.5135 8.88474 37.3272L16.2991 41.6734C16.2159 41.8153 16.1454 41.8992 16.1211 41.9269C16.0956 41.9561 16.0929 41.9552 16.1268 41.9249L10.3974 35.5189ZM63.4402 38.9658C63.3386 38.6578 63.2008 38.3295 63.0143 37.9954L55.5106 42.1856C55.4066 41.9994 55.3319 41.82 55.2783 41.6578L63.4402 38.9658ZM56.9002 36.7517C56.6458 36.9516 56.4145 37.1672 56.2054 37.3931L62.5132 43.2305C62.4261 43.3245 62.3259 43.4185 62.2116 43.5083L56.9002 36.7517ZM58.7721 44.3596C58.8151 44.3646 58.8586 44.3704 58.9018 44.3771L60.21 35.8829C60.0581 35.8595 59.9055 35.839 59.7528 35.8214L58.7721 44.3596Z" fill="#FFF813" style="fill:#FFF813;fill:color(display-p3 1.0000 0.9725 0.0745);fill-opacity:1;" mask="url(#path-1-outside-1_1378_408)"/>
</svg>
