<svg width="98" height="75" viewBox="0 0 98 75" fill="none" xmlns="http://www.w3.org/2000/svg">
<path fill-rule="evenodd" clip-rule="evenodd" d="M37.0725 0.0735076C31.1665 0.687131 23.688 5.46188 19.2584 11.4639C17.4558 13.8992 16.0177 16.3345 14.1768 20.093C11.473 25.5964 10.2458 29.0289 7.25437 39.4413C4.55057 48.8566 3.64932 50.9852 1.67422 52.7683C0.331916 53.9766 0.00592875 54.7818 0.120983 56.661C0.236037 58.5212 0.94554 60.0359 2.11526 60.8797C2.78641 61.3593 3.15075 61.4551 4.7615 61.6084C6.52568 61.7811 6.73661 61.7618 8.76923 61.2249C11.3004 60.5538 14.522 59.0198 16.4779 57.5624C18.2037 56.2775 21.5019 52.9602 23.1127 50.8701C28.4435 44.0242 32.1828 36.9867 37.3412 24.2157C38.9327 20.2464 40.2365 17.5618 41.3297 15.9319C42.135 14.7429 42.9026 13.7842 43.3247 13.8992C43.478 13.9375 44.6667 15.1073 45.9709 16.5263C47.2746 17.9453 48.5788 19.2684 48.8665 19.4794C49.3265 19.8245 49.4033 19.8245 49.825 19.5561C50.0552 19.3835 51.34 18.0604 52.6824 16.603C55.6738 13.3048 55.6738 13.3048 57.7824 15.1456L57.7824 15.1456C59.3932 16.8139 60.4861 18.9808 63.286 25.9416C67.6194 36.7952 70.1126 41.8573 74.0625 47.8977C77.6676 53.4012 82.0206 57.7732 85.8366 59.7099C86.4502 60.0169 87.9073 60.592 89.0964 60.9755C91.1482 61.666 91.359 61.7042 92.9123 61.5702C93.8136 61.5126 94.8301 61.3207 95.1942 61.1674C96.6707 60.5538 97.6871 58.8661 97.8404 56.7761C97.9941 54.7053 97.8215 54.2257 96.4408 52.8833C94.4466 50.9277 93.2768 48.1089 90.9756 39.6522C88.2719 29.7 86.2776 24.1966 83.1329 17.8878C80.9084 13.4006 79.0868 10.7544 76.3252 8.01225C71.1862 2.87316 64.8006 -0.137426 59.6234 0.111861C56.2516 0.262581 54.1009 1.15372 51.4258 3.42182C51.3307 3.50262 51.2418 3.5921 51.1608 3.6872L50.317 4.67854C50.2323 4.77832 50.1541 4.88441 50.1024 5.00483C49.8061 5.69614 49.3447 7.54942 49.3447 8.29796C49.3447 6.74747 48.6556 5.54154 48.3486 5.04242C48.1743 4.75879 47.983 4.46816 47.2939 3.83194C45.7407 2.3746 45.1078 1.91438 43.7464 1.24323C41.6946 0.207735 39.6614 -0.175779 37.0725 0.0735076ZM74.0959 56.0081L74.1576 55.8461C77.5866 59.016 82.8355 62.1973 85.0313 63.3918L82.8262 64.0055L82.7687 64.83C82.6911 65.6655 82.4906 67.514 82.3083 68.2242C81.5989 71.177 80.8319 72.6151 79.5664 73.4014C78.6843 73.9382 78.531 73.9768 76.6132 73.9768C75.1175 73.9768 74.1587 73.8617 73.0082 73.5358C71.0522 73.0179 70.0743 72.9986 68.3102 73.4972C66.5075 73.9958 65.8749 73.9768 63.9382 73.4014C63.0562 73.133 62.1355 72.9221 61.9053 72.9221C61.6562 72.9221 60.9082 73.3056 60.1988 73.7849C58.0129 75.2806 57.2649 75.3192 53.008 74.1684C50.7836 73.5547 48.1181 73.3632 46.4498 73.6698C45.7786 73.8042 44.3404 74.1684 43.2475 74.4754C40.2561 75.2999 38.9137 75.1848 37.303 73.9C36.0567 72.9028 35.6732 72.8453 33.8514 73.4014C31.8571 73.9958 31.1476 73.9958 28.9041 73.4589L27.1399 73.0372L24.9538 73.5547C19.0094 74.9546 16.9959 73.7273 15.9029 68.0322C15.7112 67.0351 15.4427 66.2106 15.2701 66.0573C15.0017 65.8461 15.0017 65.8271 15.2893 65.8271C15.5386 65.8271 15.6153 65.6545 15.6153 65.0601C15.6153 64.318 15.5964 64.3121 14.6416 64.0128L14.6414 64.0127L14.6181 64.0055C14.0812 63.8518 13.5443 63.7178 13.4292 63.7178C16.1757 62.1404 22.2682 58.3789 24.6662 55.9516C25.2415 57.2364 26.0277 58.8661 26.4496 59.5949C27.5234 61.5316 29.5369 63.5452 31.5311 64.6574C37.284 67.8979 37.8208 67.994 50.8028 67.8979C59.4893 67.8403 59.8728 67.8214 61.6369 67.3804C65.8174 66.3446 70.2087 63.2767 72.2605 59.9783C72.7205 59.2114 73.4875 57.5624 73.986 56.2968L74.0682 56.0807L74.0959 56.0081ZM35.8596 52.8003L33.7766 57.4635C33.4794 58.1291 34.2731 58.7228 34.8353 58.3152C35.4779 57.8494 36.2224 57.3384 37.048 56.8157C37.1948 56.7227 37.3019 56.5776 37.3467 56.4084L37.9342 54.1795L38.327 55.1446C38.4837 55.5288 38.9392 55.6859 39.2993 55.4895C40.3522 54.9155 41.4831 54.3635 42.6638 53.8801C42.8633 53.7985 43.0153 53.6276 43.0708 53.4167L43.4387 52.0202L43.7454 52.7731C43.8832 53.1114 44.2581 53.2799 44.6006 53.1693C45.9226 52.7417 47.2829 52.4237 48.6473 52.2711C48.894 52.2435 49.1104 52.086 49.2093 51.8535L49.5118 51.1399C49.6148 51.142 49.7186 51.12 49.8133 51.0709C49.908 51.12 50.0119 51.142 50.1149 51.1399L50.4176 51.8535C50.5162 52.086 50.7326 52.2435 50.9793 52.2711C52.3437 52.4237 53.704 52.7417 55.0264 53.1693C55.3685 53.2799 55.7434 53.1114 55.8812 52.7731L56.1879 52.0202L56.5558 53.4167C56.6117 53.6276 56.7633 53.7985 56.9631 53.8801C58.1439 54.3635 59.2744 54.9155 60.3273 55.4895C60.6877 55.6859 61.1432 55.5288 61.2996 55.1446L61.6928 54.1795L62.2802 56.4084C62.3247 56.5776 62.4318 56.7227 62.579 56.8157C63.4045 57.3384 64.1487 57.8494 64.7917 58.3152C65.3536 58.7228 66.1475 58.1291 65.8501 57.4635L63.767 52.8003C63.7335 52.7252 63.6867 52.6549 63.6233 52.5925C61.6987 50.7048 56.5442 47.122 50.255 46.7582C50.1909 46.7397 50.1227 46.7303 50.0521 46.7317C49.9723 46.7333 49.8927 46.7354 49.8133 46.7381C49.7339 46.7354 49.6543 46.7333 49.5745 46.7317C49.5038 46.7303 49.4357 46.7397 49.3716 46.7582C43.0824 47.122 37.9279 50.7049 36.0037 52.5925C35.9399 52.6549 35.8934 52.7252 35.8596 52.8003Z" fill="#FFF813" style="fill:#FFF813;fill:color(display-p3 1.0000 0.9725 0.0745);fill-opacity:1;"/>
</svg>
