<svg width="76" height="75" viewBox="0 0 76 75" fill="none" xmlns="http://www.w3.org/2000/svg">
<g clip-path="url(#clip0_1421_664)">
<path d="M3.40527 12.1761C4.02398 8.6798 17.7654 7.26305 20.9013 5.99093C21.7832 5.63315 28.9913 2.26856 26.45 5.16987C21.0185 11.371 16.4399 17.99 12.5113 25.217C10.1692 29.5254 2.66849 42.1326 5.63621 38.2307C11.5144 30.5023 20.5865 23.7304 29.2711 18.5889C33.2085 16.2579 37.9586 13.1234 42.8387 11.9918C43.4747 11.8443 42.9914 13.3127 42.7221 13.8251C41.8055 15.5697 35.9397 25.4576 35.8597 25.5929C29.0674 37.0853 21.8386 48.3758 15.6652 60.2436C12.402 66.5165 16.7375 62.4816 19.2845 60.5387C26.5507 54.9958 33.6823 49.3205 41.013 43.8404C43.599 41.9072 46.8893 39.5166 49.6565 37.6665C49.8022 37.5691 52.2957 35.6016 53.2817 35.7754C54.3315 35.9604 53.2382 37.5892 52.9258 38.3741C50.0021 45.7199 46.1896 52.6189 42.4646 59.5174C40.2584 63.6033 37.7801 67.6175 36.1307 72.0177C35.9617 72.4687 35.4023 73.3867 36.2309 72.8216C42.448 68.5818 48.6269 64.2637 54.9613 60.147C56.7796 58.9653 63.3015 53.5178 62.5716 59.2243C61.9681 63.9431 60.1292 67.5287 58.3644 71.6465C57.7756 73.0205 66.1968 69.6923 67.235 69.2786C67.3626 69.2278 71.4326 67.2527 71.5793 68.2177C71.7806 69.5424 71.1734 69.4381 72.4053 70.7923" stroke="black" style="stroke:black;stroke-opacity:1;" stroke-width="5" stroke-linecap="round"/>
</g>
<defs>
<clipPath id="clip0_1421_664">
<rect width="75" height="75" fill="white" style="fill:white;fill-opacity:1;" transform="translate(0.291992)"/>
</clipPath>
</defs>
</svg>
