<svg width="374" height="374" viewBox="0 0 374 374" fill="none" xmlns="http://www.w3.org/2000/svg">
<g filter="url(#filter0_i_1391_3511)">
<path d="M0.382467 59.0361C-2.02343 72.632 7.04784 85.604 20.6437 88.0099C34.2396 90.4158 47.2116 81.3445 49.6175 67.7486L0.382467 59.0361ZM107.155 34.3487L97.7573 11.1823L97.7573 11.1823L107.155 34.3487ZM133.21 30.4933L114.404 14.0212L114.404 14.0212L133.21 30.4933ZM67.7585 124.628L45.7941 112.688L45.7941 112.688L67.7585 124.628ZM35.4757 185.736L15.5774 170.601L15.5774 170.601L35.4757 185.736ZM146.457 93.5045L133.721 71.9918L133.721 71.9918L146.457 93.5045ZM210.166 62.5267L204.519 38.1728L204.519 38.1728L210.166 62.5267ZM209.618 71.1353L187.487 59.507L187.487 59.507L209.618 71.1353ZM177.395 126.393L198.917 139.113L198.917 139.113L177.395 126.393ZM82.5683 289.1L60.3896 277.563L60.3896 277.563L82.5683 289.1ZM99.5635 290.486L84.4008 270.609L84.4008 270.609L99.5635 290.486ZM201.593 212.076L186.624 192.053L186.624 192.053L201.593 212.076ZM242.18 183.086L228.285 162.303L228.285 162.303L242.18 183.086ZM259.202 174.206L254.864 198.827L254.864 198.827L259.202 174.206ZM257.531 186.409L280.759 195.654L280.759 195.654L257.531 186.409ZM208.409 285.691L230.407 297.569L230.407 297.569L208.409 285.691ZM178.667 344.388L155.258 335.613L155.258 335.613L178.667 344.388ZM179.138 348.162L193.223 368.817L193.223 368.817L179.138 348.162ZM267.089 288.647L280.712 309.609L280.712 309.609L267.089 288.647ZM302.825 284.314L278.027 281.142L278.027 281.142L302.825 284.314ZM283.069 342.645L306.048 352.492L306.048 352.492L283.069 342.645ZM324.722 331.525L315.469 308.301L315.469 308.301L324.722 331.525ZM345.121 326.544L369.838 322.788L369.838 322.788L345.121 326.544ZM330.507 355.456C339.797 365.669 355.609 366.417 365.822 357.127C376.036 347.836 376.784 332.025 367.493 321.811L330.507 355.456ZM49.6175 67.7486C48.5857 73.5795 45.2966 76.4301 44.9745 76.7047C44.5553 77.0618 45.0355 76.5685 47.2967 75.5454C51.7788 73.5176 58.7155 71.3966 67.5567 69.245C76.2267 67.1351 85.1457 65.3567 93.6686 63.5611C100.968 62.0233 110.329 60.04 116.553 57.5151L97.7573 11.1823C97.8477 11.1457 97.562 11.2635 96.7191 11.5139C95.9221 11.7506 94.8689 12.0348 93.519 12.3684C90.7891 13.043 87.4096 13.7822 83.3611 14.6351C75.5534 16.28 65.3987 18.3108 55.7337 20.6629C46.2399 22.9733 35.5802 25.9671 26.6867 29.9908C22.2601 31.9935 17.1076 34.76 12.5461 38.6468C8.0816 42.4509 2.14059 49.1008 0.382467 59.0361L49.6175 67.7486ZM116.553 57.5151C120.601 55.8731 127.514 52.5658 134.004 50.4362C134.653 50.2235 135.176 50.0657 135.577 49.9545C135.994 49.839 136.166 49.8056 136.131 49.8125C136.104 49.8177 135.975 49.8427 135.757 49.8727C135.545 49.9019 135.171 49.9465 134.666 49.9744C133.948 50.014 131.552 50.1161 128.423 49.2967C125.288 48.4758 118.835 45.9913 114.404 38.9152C109.84 31.628 110.512 24.4497 111.377 20.8449C112.194 17.4406 113.564 15.2768 113.902 14.7509C114.374 14.0177 114.644 13.7474 114.404 14.0212L152.016 46.9654C153.647 45.1032 158.234 39.8581 159.996 32.5123C161.07 28.039 161.666 20.1795 156.78 12.3772C152.026 4.78598 145.003 1.95245 141.088 0.927349C134.354 -0.83588 128.224 0.409448 126.473 0.754073C123.579 1.32379 120.748 2.1631 118.416 2.92814C113.68 4.48227 108.68 6.50845 104.94 8.08498C103.011 8.8984 101.282 9.64956 99.9612 10.2255C99.2773 10.5237 98.76 10.7499 98.3238 10.9388C97.8408 11.1481 97.7123 11.2006 97.7573 11.1823L116.553 57.5151ZM114.404 14.0212C87.6462 44.5705 65.097 77.1787 45.7941 112.688L89.723 136.568C107.315 104.206 127.765 74.6529 152.016 46.9654L114.404 14.0212ZM45.7941 112.688C40.334 122.732 29.3288 141.608 20.4649 157.406C16.3865 164.674 12.4019 171.926 10.3846 176.309C9.96145 177.228 9.0005 179.335 8.31646 181.707C8.23644 181.985 6.77313 186.472 7.44045 192.057C7.78481 194.939 9.29269 203.145 17.2565 209.151C25.9103 215.677 35.0503 214.393 38.9883 213.319C42.8874 212.256 45.5882 210.498 46.6171 209.799C47.9172 208.916 48.8997 208.076 49.4839 207.552C50.6534 206.503 51.5695 205.504 52.1057 204.901C53.2412 203.623 54.3696 202.191 55.3741 200.87L15.5774 170.601C14.8399 171.571 14.6104 171.823 14.7362 171.681C14.7676 171.646 15.2659 171.078 16.1002 170.329C16.5167 169.956 17.3523 169.233 18.5255 168.437C19.4275 167.824 22.0215 166.12 25.8333 165.081C29.6841 164.031 38.7563 162.74 47.3614 169.23C55.2763 175.198 56.7544 183.338 57.0873 186.125C57.4778 189.393 57.1083 191.943 56.9499 192.917C56.7515 194.137 56.5005 195.07 56.3591 195.56C55.9149 197.101 55.4703 197.94 55.8042 197.215C56.8151 195.019 59.7102 189.642 64.0698 181.872C72.0818 167.593 84.1857 146.754 89.723 136.568L45.7941 112.688ZM55.3741 200.87C80.1544 168.29 119.608 138.452 159.193 115.017L133.721 71.9918C91.746 96.8418 46.0013 130.601 15.5774 170.601L55.3741 200.87ZM159.193 115.017C179.659 102.9 197.687 91.0835 215.813 86.8806L204.519 38.1728C176.814 44.5967 150.232 62.217 133.721 71.9918L159.193 115.017ZM215.813 86.8806C212.21 87.7159 205.534 88.2562 198.61 84.2835C191.728 80.3351 188.821 74.3464 187.704 70.8504C186.634 67.5011 186.621 64.8098 186.645 63.7429C186.674 62.4708 186.821 61.5706 186.889 61.1994C187.036 60.3915 187.062 60.3162 187.487 59.507L231.749 82.7636C233.439 79.5481 235.232 74.8224 236.083 70.1386C236.361 68.6129 237.519 62.4784 235.332 55.6322C234.027 51.5495 230.817 45.117 223.493 40.9146C216.126 36.6881 208.868 37.1643 204.519 38.1728L215.813 86.8806ZM187.487 59.507C183.569 66.9646 156.592 112.456 155.873 113.673L198.917 139.113C198.915 139.117 198.919 139.109 198.94 139.073C198.958 139.043 198.983 139.001 199.015 138.948C199.077 138.843 199.166 138.692 199.278 138.504C199.502 138.125 199.821 137.588 200.221 136.913C201.021 135.562 202.148 133.659 203.503 131.367C206.212 126.785 209.836 120.646 213.586 114.266C220.859 101.891 229.242 87.5357 231.749 82.7636L187.487 59.507ZM155.873 113.673C124.591 166.6 89.789 221.046 60.3896 277.563L104.747 300.637C133.324 245.701 166.41 194.114 198.917 139.113L155.873 113.673ZM60.3896 277.563C58.2558 281.665 56.4473 285.482 55.1035 288.943C53.9953 291.797 52.236 296.761 52.0866 302.36C52.009 305.267 52.2805 310.642 55.3748 316.302C58.9972 322.929 65.0868 327.373 71.8554 329.107C77.6058 330.58 82.4579 329.771 84.9684 329.181C87.7149 328.537 89.967 327.592 91.4714 326.885C96.6965 324.428 101.982 320.379 105.029 318.015C109.843 314.282 111.21 313.045 114.726 310.363L84.4008 270.609C81.9373 272.488 76.2746 277.041 74.3862 278.506C70.7316 281.34 69.6426 281.897 70.1985 281.636C70.5356 281.477 71.727 280.931 73.5409 280.505C75.1188 280.134 79.1664 279.365 84.2619 280.67C90.3756 282.236 95.9599 286.305 99.2481 292.321C102.008 297.37 102.117 301.898 102.069 303.693C101.979 307.068 101.049 308.751 101.714 307.039C102.143 305.934 103.05 303.899 104.747 300.637L60.3896 277.563ZM114.726 310.363C149.554 283.795 182.101 257.861 216.561 232.1L186.624 192.053C152.239 217.758 117.812 245.122 84.4008 270.609L114.726 310.363ZM216.561 232.1C228.56 223.131 243.611 212.202 256.075 203.869L228.285 162.303C214.761 171.345 198.911 182.868 186.624 192.053L216.561 232.1ZM256.075 203.869C256.552 203.55 256.938 203.267 256.999 203.222C257.142 203.119 257.271 203.022 257.354 202.961C257.501 202.852 257.74 202.673 257.878 202.569C258.229 202.308 258.653 201.992 259.148 201.634C260.166 200.896 261.367 200.059 262.547 199.315C263.128 198.948 263.628 198.653 264.033 198.43C264.456 198.196 264.633 198.121 264.583 198.143C264.547 198.158 264.389 198.225 264.12 198.318C263.86 198.408 263.397 198.556 262.761 198.702C262.138 198.844 261.173 199.026 259.939 199.11C258.719 199.192 256.963 199.197 254.864 198.827L263.541 149.585C258.413 148.682 254.074 149.395 251.579 149.968C248.869 150.59 246.531 151.476 244.788 152.228C241.324 153.721 238.165 155.579 235.876 157.022C233.465 158.543 231.32 160.051 229.806 161.148C229.035 161.707 228.396 162.183 227.957 162.511C226.967 163.25 227.649 162.729 228.285 162.303L256.075 203.869ZM254.864 198.827C252.061 198.333 247.768 196.954 243.764 193.305C239.61 189.518 237.568 184.928 236.765 181.116C236.034 177.647 236.325 174.922 236.521 173.655C236.732 172.291 237.032 171.391 237.117 171.144C237.247 170.762 237.251 170.849 236.645 172.089C236.414 172.562 235.132 175.083 234.303 177.164L280.759 195.654C280.664 195.893 280.574 196.075 281.564 194.05C282.179 192.792 283.433 190.222 284.414 187.358C285.097 185.366 287.355 178.709 285.69 170.806C284.698 166.097 282.259 160.738 277.448 156.353C272.788 152.105 267.577 150.297 263.541 149.585L254.864 198.827ZM234.303 177.164C221.23 210.011 204.135 240.988 186.411 273.812L230.407 297.569C247.665 265.607 266.375 231.793 280.759 195.654L234.303 177.164ZM186.411 273.812C176.98 291.278 163.8 312.823 155.258 335.613L202.077 353.162C209.024 334.628 219.119 318.474 230.407 297.569L186.411 273.812ZM155.258 335.613C155.431 335.152 155.679 334.611 155.059 335.989C154.898 336.346 153.734 338.832 152.99 341.623C152.718 342.644 151.577 346.839 152.305 352.112C152.713 355.07 153.899 359.772 157.493 364.342C161.404 369.316 166.683 372.238 171.891 373.395C180.311 375.265 186.897 372.234 188.06 371.721C190.355 370.709 192.167 369.537 193.223 368.817L165.053 327.508C165.136 327.451 166.179 326.725 167.876 325.976C168.441 325.727 174.6 322.778 182.732 324.584C187.796 325.709 192.964 328.562 196.797 333.436C200.311 337.905 201.449 342.475 201.835 345.272C202.519 350.225 201.439 353.989 201.302 354.505C200.827 356.286 200.225 357.463 200.659 356.499C200.66 356.495 201.005 355.735 201.144 355.422C201.339 354.985 201.71 354.14 202.077 353.162L155.258 335.613ZM193.223 368.817C222.731 348.694 251.278 328.738 280.712 309.609L253.466 267.685C223.411 287.217 193.931 307.814 165.053 327.508L193.223 368.817ZM280.712 309.609C282.348 308.546 284.267 307.17 285.757 306.105C287.446 304.897 289.132 303.69 290.91 302.468C294.689 299.874 297.698 298.053 299.718 297.143C300.731 296.686 300.486 296.928 299.274 297.124C298.236 297.293 293.815 297.866 288.551 295.188C282.408 292.063 279.546 286.834 278.573 283.403C277.806 280.701 278.242 279.459 278.027 281.142L327.623 287.486C328.264 282.47 328.493 276.165 326.674 269.755C324.648 262.616 319.889 255.033 311.224 250.624C303.438 246.663 295.869 247.024 291.276 247.768C286.51 248.541 282.305 250.147 279.17 251.56C272.895 254.388 266.861 258.329 262.603 261.253C256.813 265.23 255.635 266.275 253.466 267.685L280.712 309.609ZM278.027 281.142C275.754 298.911 269.151 311.654 260.09 332.797L306.048 352.492C313.56 334.964 324.227 314.033 327.623 287.486L278.027 281.142ZM260.09 332.797C258.398 336.747 255.637 346.212 261.404 356.15C266.709 365.294 275.302 367.796 278.366 368.486C284.517 369.874 290.269 368.834 291.994 368.535C297.341 367.608 303.678 365.682 308.853 363.978C319.777 360.379 331.485 355.743 333.976 354.75L315.469 308.301C313.085 309.251 302.583 313.4 293.209 316.488C288.234 318.127 284.899 319.019 283.457 319.269C281.787 319.559 284.865 318.697 289.365 319.711C291.602 320.216 299.624 322.393 304.652 331.058C310.14 340.518 307.395 349.349 306.048 352.492L260.09 332.797ZM333.976 354.75C334.429 354.569 334.788 354.41 334.854 354.381C334.989 354.322 335.103 354.27 335.169 354.24C335.303 354.179 335.437 354.117 335.526 354.076C335.751 353.972 335.921 353.893 336.197 353.766C336.703 353.533 337.373 353.228 338.155 352.883C339.778 352.167 341.662 351.379 343.373 350.762C345.514 349.99 345.814 350.062 344.812 350.186C344.638 350.208 341.255 350.724 336.786 349.362C334.251 348.59 330.455 346.933 326.961 343.38C323.224 339.58 321.103 334.891 320.405 330.301L369.838 322.788C369.054 317.63 366.703 312.483 362.61 308.321C358.76 304.406 354.482 302.484 351.357 301.532C345.709 299.812 340.715 300.311 338.644 300.568C333.845 301.165 329.201 302.72 326.403 303.73C322.204 305.245 311.774 309.773 315.469 308.301L333.976 354.75ZM320.405 330.3C320.338 329.857 320.326 329.288 320.341 328.98C320.341 328.979 320.34 328.994 320.338 329.035C320.335 329.081 320.332 329.136 320.325 329.235C320.316 329.374 320.29 329.777 320.27 330.186C320.228 331.029 320.163 332.705 320.344 334.743C321.264 345.129 327.348 351.983 330.507 355.456L367.493 321.811C367.275 321.57 367.117 321.391 367.01 321.265C366.901 321.138 366.858 321.084 366.865 321.092C366.871 321.1 366.945 321.194 367.065 321.366C367.185 321.537 367.369 321.812 367.588 322.181C368.033 322.931 368.643 324.106 369.167 325.659C369.428 326.432 369.646 327.235 369.815 328.057C369.984 328.879 370.088 329.644 370.149 330.33C370.265 331.643 370.212 332.597 370.208 332.666C370.207 332.688 370.206 332.692 370.224 332.412C370.238 332.196 370.263 331.799 370.285 331.346C370.331 330.376 370.363 329.102 370.302 327.588C370.242 326.076 370.095 324.483 369.838 322.788L320.405 330.3Z" fill="black" style="fill:black;fill-opacity:1;"/>
</g>
<defs>
<filter id="filter0_i_1391_3511" x="-0.00439453" y="-15.9949" width="382.004" height="389.993" filterUnits="userSpaceOnUse" color-interpolation-filters="sRGB">
<feFlood flood-opacity="0" result="BackgroundImageFix"/>
<feBlend mode="normal" in="SourceGraphic" in2="BackgroundImageFix" result="shape"/>
<feColorMatrix in="SourceAlpha" type="matrix" values="0 0 0 0 0 0 0 0 0 0 0 0 0 0 0 0 0 0 127 0" result="hardAlpha"/>
<feOffset dx="8" dy="-16"/>
<feGaussianBlur stdDeviation="16.8"/>
<feComposite in2="hardAlpha" operator="arithmetic" k2="-1" k3="1"/>
<feColorMatrix type="matrix" values="0 0 0 0 1 0 0 0 0 0.973333 0 0 0 0 0.333333 0 0 0 0.5 0"/>
<feBlend mode="normal" in2="shape" result="effect1_innerShadow_1391_3511"/>
</filter>
</defs>
</svg>
