<svg width="85" height="125" viewBox="0 0 85 125" fill="none" xmlns="http://www.w3.org/2000/svg">
<path d="M12.3942 22.567C16.8681 17.3318 23.148 12.8406 28.9128 9.15472C31.1147 7.74691 34.3853 5.73744 37.0904 5.32456C39.6876 4.92816 35.7207 10.4764 34.3363 12.7093C26.393 25.5211 17.4548 37.7033 9.52727 50.5144C3.48628 60.2768 4.8064 60.7371 14.2361 57.2156C22.1942 54.2437 30.1657 50.5345 38.4054 48.3761C43.5897 47.0181 43.7002 49.1782 41.6863 53.4741C39.6759 57.7625 37.1207 61.5093 34.3833 65.3637C32.2725 68.3357 25.2757 74.569 28.9114 74.8322C36.3579 75.3712 43.2272 69.7335 51.0112 71.0882C64.1297 73.3711 48.7095 91.5883 46.3922 94.9986C42.7086 100.42 31.2825 111.188 37.6773 112.624C46.6969 114.649 58.7762 110.04 67.6475 108.79C68.8349 108.623 79.4233 105.759 79.4688 110.427C79.4992 113.542 77.2061 116.374 76.0077 119.061" stroke="black" style="stroke:black;stroke-opacity:1;" stroke-width="10" stroke-linecap="round"/>
</svg>
