<svg width="76" height="75" viewBox="0 0 76 75" fill="none" xmlns="http://www.w3.org/2000/svg">
<g clip-path="url(#clip0_1378_443)">
<path d="M1.53825 11.7405C1.29766 13.1001 2.20478 14.3973 3.56437 14.6379C4.92396 14.8785 6.22116 13.9714 6.46175 12.6118L1.53825 11.7405ZM21.496 5.99093L20.5562 3.67429V3.67429L21.496 5.99093ZM27.0448 5.16987L25.1641 3.52266V3.52266L27.0448 5.16987ZM13.106 25.217L10.9095 24.023L13.106 25.217ZM6.23094 38.2307L4.2411 36.7173H4.2411L6.23094 38.2307ZM29.8658 18.5889L28.5922 16.4376V16.4376L29.8658 18.5889ZM43.4335 11.9918L42.8688 9.55641V9.55641L43.4335 11.9918ZM43.3169 13.8251L41.1038 12.6623V12.6623L43.3169 13.8251ZM36.4545 25.5929L38.6067 26.8649L38.6067 26.8649L36.4545 25.5929ZM16.2599 60.2435L14.042 59.0898V59.0898L16.2599 60.2435ZM19.8793 60.5387L18.363 58.551H18.363L19.8793 60.5387ZM41.6077 43.8404L40.1109 41.838V41.838L41.6077 43.8404ZM50.2512 37.6665L48.8617 35.5882L48.8617 35.5882L50.2512 37.6665ZM53.8765 35.7754L53.4426 38.2375H53.4426L53.8765 35.7754ZM53.5205 38.3741L55.8433 39.2986L55.8433 39.2986L53.5205 38.3741ZM43.0593 59.5174L45.2591 60.7053L43.0593 59.5174ZM36.7254 72.0177L34.3845 71.1403L34.3845 71.1403L36.7254 72.0177ZM36.8256 72.8216L38.2342 74.887L38.2342 74.887L36.8256 72.8216ZM55.556 60.147L56.9183 62.2433L56.9183 62.2433L55.556 60.147ZM63.1664 59.2243L60.6866 58.9071V58.9071L63.1664 59.2243ZM58.9592 71.6465L61.257 72.6313L61.257 72.6313L58.9592 71.6465ZM67.8298 69.2786L66.9044 66.9561L66.9044 66.9561L67.8298 69.2786ZM72.174 68.2177L74.6456 67.8421V67.8421L72.174 68.2177ZM71.1507 72.4745C72.0797 73.4959 73.6609 73.5707 74.6822 72.6416C75.7036 71.7125 75.7784 70.1314 74.8493 69.11L71.1507 72.4745ZM6.46175 12.6118C6.39959 12.963 6.22047 13.0335 6.42222 12.8616C6.61426 12.698 6.98043 12.4645 7.58429 12.1913C8.78798 11.6467 10.4755 11.1457 12.3952 10.6786C14.2978 10.2155 16.267 9.82255 18.0417 9.44867C19.694 9.10057 21.3975 8.72876 22.4358 8.30757L20.5562 3.67429C20.0265 3.88916 18.8364 4.17149 17.0109 4.55607C15.3078 4.91488 13.215 5.33312 11.2129 5.82035C9.22795 6.30342 7.16812 6.89168 5.52328 7.63585C4.70288 8.00701 3.86949 8.46779 3.17938 9.05583C2.49897 9.63559 1.75508 10.5152 1.53825 11.7405L6.46175 12.6118ZM22.4358 8.30757C23.0745 8.04848 24.8386 7.22413 26.3335 6.73364C26.6862 6.61793 26.9496 6.54705 27.1213 6.51325C27.4073 6.45695 27.1699 6.55474 26.7406 6.44233C26.4712 6.37177 25.858 6.14303 25.4331 5.46451C24.995 4.7649 25.0664 4.08554 25.1411 3.77411C25.2522 3.31135 25.4678 3.17593 25.1641 3.52266L28.9254 6.81708C29.257 6.43849 29.8033 5.77355 30.0031 4.94086C30.1222 4.44446 30.1776 3.62004 29.6707 2.81072C29.1771 2.0225 28.4427 1.71943 28.0071 1.60539C27.2456 1.406 26.497 1.54018 26.1555 1.60741C25.6997 1.69714 25.2193 1.83695 24.7747 1.98284C23.0804 2.53877 20.7995 3.5756 20.5562 3.67429L22.4358 8.30757ZM25.1641 3.52266C19.6073 9.8669 14.9237 16.6386 10.9095 24.023L15.3024 26.411C19.1455 19.3413 23.6192 12.8751 28.9254 6.81708L25.1641 3.52266ZM10.9095 24.023C9.74238 26.1701 7.33663 30.3008 5.49706 33.5794C4.61263 35.1556 3.8256 36.5941 3.45283 37.404C3.36775 37.5888 3.24249 37.871 3.16055 38.1552C3.14577 38.2065 2.99657 38.6725 3.0646 39.2418C3.09968 39.5354 3.25215 40.3598 4.05128 40.9625C4.91943 41.6171 5.83724 41.4892 6.23598 41.3805C6.63082 41.2728 6.90693 41.0939 7.01699 41.0191C7.15416 40.926 7.26072 40.8353 7.3286 40.7744C7.46448 40.6526 7.57969 40.5283 7.66183 40.4359C7.83241 40.244 8.02194 40.0056 8.22078 39.7442L4.2411 36.7173C4.06897 36.9436 3.96933 37.064 3.92488 37.114C3.8995 37.1425 3.92574 37.11 3.99023 37.0522C4.02242 37.0233 4.09768 36.9577 4.20783 36.8829C4.29086 36.8265 4.54423 36.6592 4.92048 36.5566C5.30063 36.4529 6.20402 36.3235 7.06177 36.9704C7.85051 37.5652 7.99663 38.3754 8.02928 38.6486C8.06769 38.97 8.03113 39.218 8.0167 39.3068C7.99825 39.4202 7.97556 39.5032 7.96481 39.5405C7.93393 39.6476 7.91864 39.66 7.99479 39.4946C8.26692 38.9034 8.945 37.6524 9.85755 36.026C11.6119 32.8993 14.1276 28.5723 15.3024 26.411L10.9095 24.023ZM8.22078 39.7442C13.8168 32.3867 22.5744 25.8109 31.1394 20.7402L28.5922 16.4376C19.7881 21.6498 10.4015 28.6178 4.2411 36.7173L8.22078 39.7442ZM31.1394 20.7402C35.2746 18.292 39.597 15.4477 43.9982 14.4272L42.8688 9.55641C37.5097 10.799 32.3318 14.2237 28.5922 16.4376L31.1394 20.7402ZM43.9981 14.4272C43.68 14.5009 43.0454 14.5586 42.378 14.1757C41.7148 13.7952 41.4411 13.2214 41.34 12.9049C41.2436 12.6031 41.2463 12.3752 41.2477 12.3151C41.2495 12.2344 41.2581 12.1964 41.2549 12.214C41.2482 12.2509 41.2249 12.3442 41.1808 12.4693C41.1355 12.5975 41.1004 12.6686 41.1038 12.6623L45.53 14.9879C45.7703 14.5305 46.0495 13.7952 46.1744 13.1079C46.222 12.8459 46.3427 12.134 46.1028 11.3831C45.9618 10.9417 45.6237 10.2733 44.8662 9.83877C44.1046 9.40177 43.3459 9.44578 42.8688 9.55641L43.9981 14.4272ZM41.1038 12.6623C40.2257 14.3334 34.4166 24.1274 34.3023 24.3209L38.6067 26.8649C38.6066 26.865 38.6068 26.8648 38.6071 26.8642C38.6075 26.8636 38.6079 26.8628 38.6085 26.8618C38.6097 26.8598 38.6113 26.8572 38.6132 26.8539C38.6172 26.8472 38.6225 26.8382 38.6292 26.8269C38.6426 26.8043 38.6615 26.7724 38.6853 26.7322C38.733 26.6518 38.8006 26.5376 38.8857 26.3941C39.0558 26.1069 39.2954 25.7022 39.5835 25.2149C40.1597 24.2404 40.9302 22.9353 41.7272 21.5793C43.2984 18.906 45.0361 15.9278 45.53 14.9879L41.1038 12.6623ZM34.3023 24.3209C27.5713 35.7096 20.2566 47.1431 14.042 59.0898L18.4778 61.3973C24.6101 49.6086 31.7531 38.461 38.6067 26.8649L34.3023 24.3209ZM14.042 59.0898C13.6123 59.916 13.2781 60.6281 13.0436 61.2322C12.8326 61.7755 12.6098 62.4572 12.5915 63.1426C12.5821 63.4961 12.6184 64.0815 12.9467 64.6821C13.3278 65.3793 13.9653 65.8449 14.6792 66.0277C15.2912 66.1845 15.8219 66.1014 16.1256 66.0301C16.4529 65.9532 16.7381 65.8363 16.9544 65.7345C17.7406 65.3649 18.6292 64.6998 19.3125 64.1699C20.1724 63.5029 20.7061 63.0523 21.3955 62.5264L18.363 58.551C18.0197 58.8129 17.6528 59.105 17.2993 59.387C16.9381 59.6753 16.5882 59.9552 16.2482 60.2189C15.9075 60.4831 15.6016 60.7116 15.3367 60.894C15.0569 61.0866 14.8933 61.1786 14.8271 61.2096C14.7949 61.2248 14.8541 61.1926 14.9829 61.1624C15.088 61.1377 15.4473 61.0631 15.9198 61.1841C16.4942 61.3312 17.0241 61.7169 17.3341 62.2839C17.5912 62.7543 17.5928 63.1592 17.5897 63.276C17.5841 63.4879 17.538 63.4708 17.7046 63.0418C17.8476 62.6734 18.0917 62.1394 18.4778 61.3973L14.042 59.0898ZM21.3955 62.5264C28.7326 56.9295 35.7701 51.3256 43.1046 45.8427L40.1109 41.838C32.7839 47.3153 25.5583 53.0622 18.363 58.551L21.3955 62.5264ZM43.1046 45.8427C45.6761 43.9204 48.9265 41.5595 51.6407 39.7448L48.8617 35.5882C46.0416 37.4737 42.7113 39.8941 40.1109 41.838L43.1046 45.8427ZM51.6407 39.7448C51.7142 39.6957 51.7906 39.6381 51.7973 39.6332C51.826 39.6118 51.8683 39.5801 51.9045 39.5531C51.9841 39.4936 52.0866 39.4175 52.2075 39.3298C52.4524 39.1523 52.7614 38.9362 53.0823 38.7339C53.4154 38.5238 53.7 38.3677 53.9043 38.2796C54.0053 38.2361 54.0343 38.2322 54.0026 38.2395C53.9924 38.2418 53.7743 38.2959 53.4426 38.2375L54.3103 33.3133C53.2779 33.1314 52.3357 33.511 51.9248 33.6881C51.3797 33.9232 50.8469 34.2324 50.4152 34.5046C49.9712 34.7846 49.5678 35.0679 49.2734 35.2812C49.1247 35.389 49.0008 35.4812 48.9123 35.5472C48.7688 35.6545 48.8078 35.6243 48.8617 35.5882L51.6407 39.7448ZM53.4426 38.2375C53.2319 38.2003 52.8544 38.0867 52.4912 37.7556C52.1129 37.4107 51.931 36.9952 51.8614 36.6646C51.799 36.3684 51.827 36.1538 51.8369 36.0898C51.8483 36.0161 51.86 35.9937 51.8444 36.0391C51.8095 36.141 51.7392 36.2999 51.6096 36.565C51.5175 36.7533 51.322 37.1374 51.1977 37.4497L55.8433 39.2986C55.8752 39.2184 55.9335 39.1046 56.1015 38.761C56.232 38.4941 56.428 38.087 56.5742 37.6605C56.6905 37.3211 56.9418 36.5253 56.7539 35.6336C56.644 35.1121 56.3778 34.5328 55.8596 34.0604C55.3564 33.6017 54.7835 33.3967 54.3103 33.3133L53.4426 38.2375ZM51.1977 37.4496C48.3395 44.6308 44.6078 51.388 40.8595 58.3296L45.2591 60.7053C48.9608 53.8499 52.854 46.809 55.8433 39.2986L51.1977 37.4496ZM40.8595 58.3296C38.7462 62.2434 36.1136 66.5272 34.3845 71.1403L39.0664 72.8952C40.636 68.7077 42.96 64.9631 45.2591 60.7053L40.8595 58.3296ZM34.3845 71.1403C34.3901 71.1253 34.3872 71.1344 34.3628 71.1894C34.3328 71.2567 34.3196 71.2846 34.2733 71.3875C34.2237 71.4978 34.0755 71.8204 33.9858 72.1565C33.951 72.2872 33.8334 72.7311 33.9087 73.2765C33.9508 73.5813 34.0722 74.059 34.436 74.5217C34.8316 75.0248 35.3657 75.3208 35.8946 75.4383C36.7529 75.629 37.4356 75.3213 37.5857 75.255C37.849 75.1389 38.0737 74.9965 38.2342 74.887L35.4171 70.7562C35.3705 70.788 35.4314 70.7405 35.5673 70.6805C35.59 70.6705 36.1819 70.3803 36.9787 70.5573C37.4769 70.6679 37.9876 70.9494 38.3664 71.4311C38.7134 71.8723 38.8244 72.3218 38.8617 72.5925C38.9276 73.0696 38.8232 73.4218 38.817 73.4448C38.7848 73.5657 38.7563 73.6095 38.8332 73.4386C38.8643 73.3696 38.987 73.107 39.0664 72.8952L34.3845 71.1403ZM38.2342 74.887C44.4828 70.6258 50.615 66.3397 56.9183 62.2433L54.1937 58.0508C47.8283 62.1876 41.6028 66.5379 35.4171 70.7562L38.2342 74.887ZM56.9183 62.2433C57.3695 61.95 58.3518 61.2286 59.0302 60.7626C59.862 60.1914 60.6737 59.6839 61.3441 59.3817C61.6797 59.2305 61.8789 59.1776 61.9585 59.1647C62.0554 59.149 61.7911 59.2184 61.4073 59.0231C60.9354 58.783 60.7563 58.3931 60.7184 58.2594C60.7012 58.1987 60.7565 58.3604 60.6866 58.9071L65.6462 59.5414C65.7587 58.6615 65.7699 57.7451 65.5286 56.8947C65.2666 55.9713 64.6835 55.08 63.6745 54.5666C62.7534 54.098 61.8187 54.1222 61.1587 54.2291C60.4813 54.3389 59.8371 54.5765 59.2894 54.8234C58.1934 55.3175 57.0793 56.0369 56.1995 56.6411C55.1666 57.3505 54.6517 57.7532 54.1937 58.0508L56.9183 62.2433ZM60.6866 58.9071C60.1392 63.187 58.5035 66.3633 56.6613 70.6618L61.257 72.6313C62.9443 68.6942 64.9865 64.6992 65.6462 59.5414L60.6866 58.9071ZM56.6613 70.6618C56.4725 71.1023 56.1956 72.0846 56.788 73.1055C57.3342 74.047 58.2257 74.3154 58.5787 74.395C59.2872 74.5547 60.0134 74.4407 60.3777 74.3776C61.2958 74.2185 62.4757 73.8667 63.5665 73.5074C65.8055 72.7698 68.2306 71.81 68.7551 71.601L66.9044 66.9561C66.3906 67.1608 64.086 68.072 62.0021 68.7584C60.9314 69.1111 60.0516 69.3596 59.5239 69.4511C59.1652 69.5132 59.322 69.437 59.6786 69.5175C59.8557 69.5574 60.6257 69.7568 61.1127 70.5963C61.6459 71.5152 61.3722 72.3625 61.257 72.6313L56.6613 70.6618ZM68.7551 71.601C68.8015 71.5825 68.839 71.566 68.8476 71.5621C68.8632 71.5553 68.8771 71.549 68.8868 71.5446C68.9062 71.5358 68.9277 71.5259 68.9463 71.5173C68.9883 71.4979 69.032 71.4776 69.0925 71.4497C69.2087 71.3962 69.3659 71.3245 69.5507 71.243C69.9261 71.0774 70.3931 70.8812 70.8432 70.7188C71.3363 70.5409 71.6455 70.4643 71.7597 70.4501C71.8495 70.4389 71.6022 70.4915 71.2219 70.3756C71.0017 70.3086 70.6493 70.1579 70.32 69.823C69.9664 69.4634 69.7673 69.0205 69.7024 68.5934L74.6456 67.8421C74.5624 67.2944 74.3143 66.7537 73.8849 66.3171C73.4798 65.9052 73.0248 65.698 72.679 65.5927C72.0476 65.4003 71.4572 65.4492 71.1429 65.4883C70.4486 65.5746 69.7049 65.814 69.1462 66.0156C68.1684 66.3684 66.5687 67.0899 66.9044 66.9561L68.7551 71.601ZM69.7024 68.5934C69.7223 68.7247 69.7211 68.7961 69.7176 68.8702C69.7163 68.8974 69.7145 68.9263 69.7117 68.9702C69.7093 69.0078 69.7052 69.0707 69.7021 69.1334C69.6957 69.2614 69.6886 69.4699 69.7103 69.7146C69.8168 70.917 70.5081 71.7681 71.1507 72.4745L74.8493 69.11C74.579 68.8129 74.5198 68.7128 74.5297 68.7294C74.5425 68.751 74.5816 68.8213 74.6191 68.9324C74.659 69.0505 74.6815 69.1686 74.6908 69.2733C74.6988 69.3636 74.6941 69.4182 74.6959 69.3814C74.6969 69.3617 74.6983 69.3396 74.7016 69.2879C74.7045 69.2427 74.7086 69.1783 74.712 69.1067C74.7272 68.7854 74.7263 68.3731 74.6456 67.8421L69.7024 68.5934Z" fill="#FFF813" style="fill:#FFF813;fill:color(display-p3 1.0000 0.9725 0.0745);fill-opacity:1;"/>
</g>
<defs>
<clipPath id="clip0_1378_443">
<rect width="75" height="75" fill="white" style="fill:white;fill-opacity:1;" transform="translate(0.886719)"/>
</clipPath>
</defs>
</svg>
