<svg width="52" height="75" viewBox="0 0 52 75" fill="none" xmlns="http://www.w3.org/2000/svg">
<path fill-rule="evenodd" clip-rule="evenodd" d="M21.0784 0C20.3397 0 19.7361 0.584674 19.6785 1.32113C18.7425 13.2868 11.4623 22.8519 2.21872 24.395C1.47096 24.5198 0.886719 25.1439 0.886719 25.902C0.886719 26.6638 1.47655 27.2897 2.22868 27.4109C11.4958 28.9045 18.7979 38.5026 19.689 50.5C19.7436 51.2359 20.3457 51.8215 21.0837 51.8215C21.8194 51.8215 22.4206 51.2392 22.4779 50.5057C23.4119 38.5411 30.6888 28.9755 39.9298 27.4279C40.6824 27.3019 41.2705 26.6738 41.2705 25.9108C41.2705 25.1477 40.6824 24.5196 39.9298 24.3936C30.6902 22.8463 23.414 13.2833 22.4783 1.32113C22.4207 0.584675 21.8171 0 21.0784 0ZM39.7291 33.8079C39.3046 33.8079 38.9577 34.1439 38.9246 34.5672C38.3867 41.4436 34.2029 46.9404 28.8908 47.8271C28.4611 47.8988 28.1254 48.2574 28.1254 48.693C28.1254 49.1308 28.4643 49.4904 28.8965 49.5601C34.2222 50.4183 38.4185 55.9341 38.9306 62.8287C38.962 63.2516 39.308 63.5882 39.7322 63.5882C40.155 63.5882 40.5005 63.2536 40.5334 62.832C41.0702 55.9563 45.2519 50.4593 50.5624 49.5699C50.9949 49.4975 51.3328 49.1365 51.3328 48.6981C51.3328 48.2596 50.9949 47.8986 50.5624 47.8262C45.2527 46.937 41.0714 41.4414 40.5337 34.5672C40.5005 34.1439 40.1537 33.8079 39.7291 33.8079ZM25.6165 57.2143C25.6368 56.9549 25.8494 56.7489 26.1097 56.7489C26.3699 56.7489 26.5825 56.9549 26.6028 57.2143C26.9324 61.4271 29.4949 64.7949 32.7489 65.34C33.0139 65.3844 33.2211 65.6057 33.2211 65.8745C33.2211 66.1432 33.0139 66.3645 32.7489 66.4089C29.4944 66.954 26.9317 70.3228 26.6027 74.5365C26.5825 74.7949 26.3707 75 26.1115 75C25.8516 75 25.6394 74.7937 25.6202 74.5345C25.3063 70.3092 22.7347 66.9289 19.4709 66.4029C19.206 66.3602 18.9983 66.1397 18.9983 65.8714C18.9983 65.6043 19.204 65.3845 19.4674 65.3405C22.7228 64.7971 25.2868 61.4284 25.6165 57.2143Z" fill="#FFF813" style="fill:#FFF813;fill:color(display-p3 1.0000 0.9725 0.0745);fill-opacity:1;"/>
</svg>
