<svg width="51" height="75" viewBox="0 0 51 75" fill="none" xmlns="http://www.w3.org/2000/svg">
<path fill-rule="evenodd" clip-rule="evenodd" d="M20.7454 0C20.0067 0 19.4031 0.584674 19.3455 1.32113C18.4095 13.2868 11.1293 22.8519 1.88572 24.395C1.13796 24.5198 0.553711 25.1439 0.553711 25.902C0.553711 26.6638 1.14354 27.2897 1.89568 27.4109C11.1628 28.9045 18.4649 38.5026 19.3559 50.5C19.4106 51.2359 20.0127 51.8215 20.7507 51.8215C21.4864 51.8215 22.0876 51.2392 22.1449 50.5057C23.0789 38.5411 30.3558 28.9755 39.5968 27.4279C40.3494 27.3019 40.9375 26.6738 40.9375 25.9108C40.9375 25.1477 40.3494 24.5196 39.5968 24.3936C30.3572 22.8463 23.081 13.2833 22.1453 1.32113C22.0877 0.584675 21.4841 0 20.7454 0ZM39.3961 33.8079C38.9716 33.8079 38.6247 34.1439 38.5916 34.5672C38.0537 41.4436 33.8699 46.9404 28.5578 47.8271C28.1281 47.8988 27.7924 48.2574 27.7924 48.693C27.7924 49.1308 28.1313 49.4904 28.5635 49.5601C33.8892 50.4183 38.0855 55.9341 38.5976 62.8287C38.629 63.2516 38.975 63.5882 39.3991 63.5882C39.822 63.5882 40.1675 63.2536 40.2004 62.832C40.7372 55.9563 44.9189 50.4593 50.2294 49.5699C50.6619 49.4975 50.9998 49.1365 50.9998 48.6981C50.9998 48.2596 50.6619 47.8986 50.2294 47.8262C44.9197 46.937 40.7384 41.4414 40.2007 34.5672C40.1675 34.1439 39.8207 33.8079 39.3961 33.8079ZM25.2835 57.2143C25.3038 56.9549 25.5164 56.7489 25.7767 56.7489C26.0369 56.7489 26.2495 56.9549 26.2698 57.2143C26.5994 61.4271 29.1619 64.7949 32.4159 65.34C32.6809 65.3844 32.8881 65.6057 32.8881 65.8745C32.8881 66.1432 32.6809 66.3645 32.4159 66.4089C29.1614 66.954 26.5987 70.3228 26.2697 74.5365C26.2495 74.7949 26.0377 75 25.7785 75C25.5186 75 25.3064 74.7937 25.2872 74.5345C24.9733 70.3092 22.4017 66.9289 19.1379 66.4029C18.873 66.3602 18.6652 66.1397 18.6652 65.8714C18.6652 65.6043 18.871 65.3845 19.1344 65.3405C22.3898 64.7971 24.9538 61.4284 25.2835 57.2143Z" fill="black" style="fill:black;fill-opacity:1;"/>
</svg>
