<svg width="76" height="75" viewBox="0 0 76 75" fill="none" xmlns="http://www.w3.org/2000/svg">
<path fill-rule="evenodd" clip-rule="evenodd" d="M21.4783 30.8132C15.4137 35.0289 8.04522 37.5 0.0996094 37.5C8.04522 37.5 15.4137 39.9711 21.4783 44.1868C21.5886 44.2635 21.6985 44.3407 21.8079 44.4186C25.3481 46.9361 28.4324 50.053 30.9128 53.6213C35.1285 59.686 37.5996 67.0544 37.5996 75C37.5996 67.0544 40.0708 59.686 44.2864 53.6213C44.3631 53.511 44.4403 53.4011 44.5182 53.2917C47.0357 49.7515 50.1526 46.6672 53.7209 44.1868C59.7856 39.9711 67.154 37.5 75.0996 37.5C67.154 37.5 59.7856 35.0289 53.7209 30.8132C53.6106 30.7365 53.5008 30.6593 53.3913 30.5814C49.8511 28.0639 46.7668 24.947 44.2864 21.3787C40.0708 15.314 37.5996 7.94561 37.5996 0C37.5996 7.94561 35.1285 15.314 30.9128 21.3787C30.8361 21.489 30.7589 21.5989 30.6811 21.7083C28.1635 25.2485 25.0466 28.3328 21.4783 30.8132ZM11.0996 11C15.3448 15.2451 20.3549 18.259 25.6864 20.0414C24.0677 22.1051 22.2047 23.9681 20.141 25.5868C18.3586 20.2553 15.3448 15.2451 11.0996 11ZM11.0996 64C15.3448 59.7549 18.3586 54.7447 20.141 49.4132C22.2047 51.0319 24.0677 52.8949 25.6864 54.9586C20.3549 56.7411 15.3448 59.7549 11.0996 64ZM64.0996 64C59.8545 59.7549 54.8443 56.741 49.5128 54.9586C51.1315 52.8949 52.9945 51.0319 55.0582 49.4132C56.8407 54.7447 59.8545 59.7549 64.0996 64ZM64.0996 11C59.8545 15.2451 56.8407 20.2553 55.0582 25.5868C52.9945 23.9681 51.1315 22.1051 49.5128 20.0414C54.8443 18.259 59.8545 15.2451 64.0996 11Z" fill="#FFF813" style="fill:#FFF813;fill:color(display-p3 1.0000 0.9725 0.0745);fill-opacity:1;"/>
</svg>
