<svg width="33" height="26" viewBox="0 0 33 26" fill="none" xmlns="http://www.w3.org/2000/svg">
<path d="M7.26128 0.253662C5.43515 0.253662 4.08546 1.85224 4.14661 3.58451C4.2035 5.24993 4.12812 7.40744 3.58483 9.16531C3.04012 10.9289 2.11995 12.0467 0.615234 12.1904L0.615234 13.8089C2.11995 13.9525 3.04012 15.0704 3.58483 16.8339C4.12812 18.5932 4.2035 20.7493 4.14519 22.4147C4.08546 24.147 5.43515 25.7456 7.2627 25.7456L25.9706 25.7456C27.7967 25.7456 29.1479 24.147 29.0881 22.4147C29.0298 20.7493 29.1052 18.5932 29.6471 16.8339C30.1932 15.0704 31.1119 13.9525 32.6152 13.8089L32.6152 12.1904C31.1105 12.0467 30.1932 10.9289 29.6471 9.16531C29.1052 7.40744 29.0298 5.24993 29.0881 3.58451C29.1479 1.85224 27.7967 0.253662 25.9706 0.253662L7.26128 0.253662ZM22.3098 15.945C22.3098 18.3315 20.5306 19.7794 17.5767 19.7794L12.5477 19.7794C12.4764 19.7795 12.4058 19.7657 12.3399 19.7385C12.274 19.7114 12.2141 19.6715 12.1636 19.6211C12.1131 19.5708 12.0731 19.511 12.0458 19.4452C12.0185 19.3793 12.0044 19.3088 12.0044 19.2375L12.0044 6.76175C12.0046 6.69059 12.0188 6.62017 12.0462 6.5545C12.0736 6.48883 12.1137 6.42919 12.1641 6.37901C12.2146 6.32882 12.2744 6.28907 12.3402 6.26201C12.406 6.23495 12.4765 6.22112 12.5477 6.22131L17.5468 6.22131C20.0101 6.22131 21.6271 7.55393 21.6271 9.60335C21.6271 11.0398 20.5391 12.3283 19.1539 12.553L19.1539 12.6284C21.0398 12.8346 22.3098 14.1417 22.3098 15.945ZM17.0277 7.93935L14.1605 7.93935L14.1605 11.9898L16.5754 11.9898C18.4428 11.9898 19.4711 11.2375 19.4711 9.89348C19.4711 8.63482 18.5864 7.93935 17.0277 7.93935ZM14.1605 13.5955L14.1605 18.0599L17.1329 18.0599C19.0771 18.0599 20.1054 17.2791 20.1054 15.8128C20.1054 14.3479 19.0487 13.5955 17.0078 13.5955L14.1605 13.5955Z" fill="white" style="fill:white;fill-opacity:1;"/>
</svg>
