<svg width="25" height="34" viewBox="0 0 25 34" fill="none" xmlns="http://www.w3.org/2000/svg">
<path d="M12.4743 0.999512H7.14095C5.72646 0.999512 4.36991 1.56141 3.36971 2.56161C2.36952 3.5618 1.80762 4.91836 1.80762 6.33285C1.80762 7.74733 2.36952 9.10389 3.36971 10.1041C4.36991 11.1043 5.72646 11.6662 7.14095 11.6662M12.4743 0.999512V11.6662M12.4743 0.999512H17.8076C18.508 0.999512 19.2015 1.13746 19.8486 1.40549C20.4957 1.67351 21.0836 2.06636 21.5789 2.56161C22.0741 3.05685 22.4669 3.6448 22.735 4.29187C23.003 4.93894 23.141 5.63246 23.141 6.33285C23.141 7.03323 23.003 7.72675 22.735 8.37382C22.4669 9.02089 22.0741 9.60884 21.5789 10.1041C21.0836 10.5993 20.4957 10.9922 19.8486 11.2602C19.2015 11.5282 18.508 11.6662 17.8076 11.6662M12.4743 11.6662H7.14095M12.4743 11.6662H17.8076M12.4743 11.6662V22.3328M7.14095 11.6662C5.72646 11.6662 4.36991 12.2281 3.36971 13.2283C2.36952 14.2285 1.80762 15.585 1.80762 16.9995C1.80762 18.414 2.36952 19.7706 3.36971 20.7707C4.36991 21.7709 5.72646 22.3328 7.14095 22.3328M17.8076 11.6662C17.1072 11.6662 16.4137 11.8041 15.7666 12.0722C15.1196 12.3402 14.5316 12.733 14.0364 13.2283C13.5411 13.7235 13.1483 14.3115 12.8803 14.9585C12.6122 15.6056 12.4743 16.2991 12.4743 16.9995C12.4743 17.6999 12.6122 18.3934 12.8803 19.0405C13.1483 19.6876 13.5411 20.2755 14.0364 20.7707C14.5316 21.266 15.1196 21.6588 15.7666 21.9269C16.4137 22.1949 17.1072 22.3328 17.8076 22.3328C18.508 22.3328 19.2015 22.1949 19.8486 21.9269C20.4957 21.6588 21.0836 21.266 21.5789 20.7707C22.0741 20.2755 22.4669 19.6876 22.735 19.0405C23.003 18.3934 23.141 17.6999 23.141 16.9995C23.141 16.2991 23.003 15.6056 22.735 14.9585C22.4669 14.3115 22.0741 13.7235 21.5789 13.2283C21.0836 12.733 20.4957 12.3402 19.8486 12.0722C19.2015 11.8041 18.508 11.6662 17.8076 11.6662ZM7.14095 22.3328C5.72646 22.3328 4.36991 22.8947 3.36971 23.8949C2.36952 24.8951 1.80762 26.2517 1.80762 27.6662C1.80762 29.0807 2.36952 30.4372 3.36971 31.4374C4.36991 32.4376 5.72646 32.9995 7.14095 32.9995C8.55544 32.9995 9.91199 32.4376 10.9122 31.4374C11.9124 30.4372 12.4743 29.0807 12.4743 27.6662V22.3328M7.14095 22.3328H12.4743" stroke="white" style="stroke:white;stroke-opacity:1;" stroke-width="2" stroke-linecap="round" stroke-linejoin="round"/>
</svg>
