<svg width="20" height="30" viewBox="0 0 20 30" fill="none" xmlns="http://www.w3.org/2000/svg">
<path d="M1.2692 1.2692C2.08186 0.456546 3.18406 0 4.33333 0H8.66667V8.66667H4.33333C3.18406 8.66667 2.08186 8.21012 1.2692 7.39746C0.456547 6.5848 0 5.4826 0 4.33333C0 3.18406 0.456547 2.08186 1.2692 1.2692Z" fill="white" style="fill:white;fill-opacity:1;"/>
<path d="M15 8.66667H10.6667V0H15C15.5691 0 16.1325 0.112085 16.6583 0.329855C17.184 0.547626 17.6617 0.866817 18.0641 1.2692C18.4665 1.67159 18.7857 2.14929 19.0035 2.67504C19.2212 3.20078 19.3333 3.76427 19.3333 4.33333C19.3333 4.90239 19.2212 5.46588 19.0035 5.99163C18.7857 6.51737 18.4665 6.99508 18.0641 7.39746C17.6617 7.79985 17.184 8.11904 16.6583 8.33681C16.1326 8.55458 15.5691 8.66667 15 8.66667Z" fill="white" style="fill:white;fill-opacity:1;"/>
<path d="M1.2692 22.6025C2.08186 21.7899 3.18406 21.3333 4.33333 21.3333H8.66667V25.6667C8.66667 26.8159 8.21012 27.9181 7.39746 28.7308C6.58481 29.5435 5.4826 30 4.33333 30C3.18406 30 2.08186 29.5435 1.2692 28.7308C0.456547 27.9181 0 26.8159 0 25.6667C0 24.5174 0.456547 23.4152 1.2692 22.6025Z" fill="white" style="fill:white;fill-opacity:1;"/>
<path d="M4.33333 19.3333H8.66667V10.6667H4.33333C3.18406 10.6667 2.08186 11.1232 1.2692 11.9359C0.456546 12.7485 0 13.8507 0 15C0 16.1493 0.456546 17.2515 1.2692 18.0641C2.08186 18.8768 3.18406 19.3333 4.33333 19.3333Z" fill="white" style="fill:white;fill-opacity:1;"/>
<path d="M13.3417 10.9965C13.8674 10.7788 14.4309 10.6667 15 10.6667C15.5691 10.6667 16.1326 10.7788 16.6583 10.9965C17.184 11.2143 17.6617 11.5335 18.0641 11.9359C18.4665 12.3383 18.7857 12.816 19.0035 13.3417C19.2212 13.8675 19.3333 14.4309 19.3333 15C19.3333 15.5691 19.2212 16.1325 19.0035 16.6583C18.7857 17.184 18.4665 17.6617 18.0641 18.0641C17.6617 18.4665 17.184 18.7857 16.6583 19.0035C16.1326 19.2212 15.5691 19.3333 15 19.3333C14.4309 19.3333 13.8674 19.2212 13.3417 19.0035C12.816 18.7857 12.3383 18.4665 11.9359 18.0641C11.5335 17.6617 11.2143 17.184 10.9965 16.6583C10.7788 16.1325 10.6667 15.5691 10.6667 15C10.6667 14.4309 10.7788 13.8674 10.9965 13.3417C11.2143 12.816 11.5335 12.3383 11.9359 11.9359C12.3383 11.5335 12.816 11.2143 13.3417 10.9965Z" fill="white" style="fill:white;fill-opacity:1;"/>
</svg>
