<svg width="33" height="30" viewBox="0 0 33 30" fill="none" xmlns="http://www.w3.org/2000/svg">
<path d="M19.4791 25.0276C19.4791 25.2196 19.719 25.0276 19.4791 25.0276V25.0276ZM14.1212 20.7094C13.6254 19.7497 14.7449 20.9812 14.1212 20.7094V20.7094ZM6.07636 21.1572C6.07636 20.9652 6.31626 21.573 6.07636 21.1572V21.1572ZM15.0328 21.7809C14.601 21.1092 14.7129 21.8769 15.0328 22.2927C15.8005 23.0444 15.3207 21.8769 15.0328 21.7809Z" fill="white" style="fill:white;fill-opacity:1;"/>
<path d="M29.811 26.2592C28.9633 27.2668 28.2116 26.1472 27.204 26.4671C25.4447 26.4671 27.3479 25.6674 27.3 24.8677C26.3723 24.148 25.3167 25.8433 24.709 26.3071C23.2338 26.0524 21.7983 25.6062 20.4387 24.9797C18.8552 24.2402 17.44 23.1843 16.2803 21.8769C14.9827 20.5837 13.9647 19.0377 13.2895 17.3347C12.4263 14.3499 11.9743 11.2613 11.946 8.15432C12.058 6.07514 14.2491 8.37823 15.1448 7.62653C14.8089 6.55495 13.0816 6.21909 12.122 5.77126C11.1943 5.77126 10.8585 4.89161 9.88285 4.82764C9.88285 3.6601 8.07557 4.29985 7.38784 3.48417C8.05957 1.75685 5.19671 3.48417 5.42062 2.02874C6.34825 0.109503 2.57374 0.429377 4.14112 2.12471C5.66052 2.98836 2.65371 3.61212 3.53336 4.18789C3.60774 4.33239 3.64354 4.49365 3.63729 4.65605C3.63104 4.81845 3.58296 4.97648 3.49769 5.11483C3.41243 5.25319 3.29287 5.36718 3.15061 5.44575C3.00835 5.52433 2.84821 5.56484 2.6857 5.56335C1.50217 5.6753 1.61412 7.30666 2.78166 6.443C4.07715 6.04316 3.00557 6.61893 2.38182 6.73088C2.05265 6.78094 1.74032 6.90932 1.4711 7.10521C1.20188 7.30111 0.983639 7.55879 0.834739 7.85659C0.685839 8.15439 0.610635 8.48359 0.615452 8.81651C0.620269 9.14942 0.704967 9.47631 0.862421 9.76968C1.48723 11.5649 2.02103 13.3905 2.46179 15.2395C3.44899 18.0424 4.90959 20.6553 6.78008 22.9645C7.76364 24.1989 8.92838 25.2774 10.2347 26.1632C11.4342 26.9894 12.742 27.646 14.1212 28.1144C16.5796 28.8386 19.1238 29.2313 21.6862 29.282C23.2405 29.2906 24.7926 29.1622 26.3243 28.8981C27.7158 29.0421 28.7074 27.8585 29.9389 28.4823C30.7066 27.8105 31.7942 28.1144 32.5459 27.6186C33.0577 25.6674 30.5947 27.1868 29.811 26.2592ZM27.0281 25.0756C26.6762 25.0756 27.108 24.5318 27.0281 25.0756V25.0756ZM14.8249 7.48259C14.665 7.48259 14.6969 7.29066 14.569 7.24268C13.2895 6.65092 15.1927 6.87483 14.8249 7.54656L14.8249 7.48259ZM25.6366 25.6994C25.0768 25.5714 26.0844 25.2995 25.6366 25.6994V25.6994ZM21.1424 25.8753C20.7745 25.8753 21.4303 25.6514 21.1424 25.8753V25.8753ZM18.1356 23.9881C17.9277 23.9881 18.1356 23.7801 18.1356 23.9881V23.9881ZM17.7837 23.7162C17.208 23.7162 17.6398 23.3483 17.7837 23.7162V23.7162ZM17.112 23.1404C16.5842 23.2683 17.112 22.5966 17.112 23.1404V23.1404ZM7.51579 4.49177C6.66812 4.04395 7.69172 5.01956 6.972 5.00357C6.58815 5.00357 5.86844 4.1719 6.10835 3.75606C6.58816 4.01196 7.43582 4.09193 7.57976 4.55574L7.51579 4.49177ZM6.04437 3.19628L5.86844 3.19628C5.82046 2.76445 7.25989 3.10032 6.10835 3.26026L6.04437 3.19628ZM4.41302 1.93278C3.74128 1.6289 4.41302 0.445371 5.11674 1.00515C5.93241 2.17269 3.59734 0.8772 4.41302 1.93278ZM5.19671 3.03635C4.76488 3.21228 5.4526 2.70048 5.19671 3.03635V3.03635ZM5.9644 4.50776C6.92402 5.24347 5.42062 4.50776 4.81286 4.97158C3.83724 5.06754 5.86844 4.42779 5.9644 4.50776ZM6.23629 5.46738C6.79607 5.46738 9.2431 4.36382 8.42743 5.35543C9.17913 6.23508 8.58736 5.94719 8.09156 5.35543C8.53938 5.65931 8.18752 6.95479 7.49979 6.07514C6.81207 5.19549 6.70011 5.78726 7.2279 6.41101C6.7161 5.37142 5.24469 5.81924 4.17311 6.1711C3.48538 6.10713 5.9804 5.57934 6.23629 5.46738ZM3.16551 7.78647C2.90961 8.42621 3.54936 8.63413 4.15712 8.74609C5.14872 8.47419 3.50138 8.29826 4.25308 8.04236C4.66891 8.04236 2.9416 7.62653 4.38103 7.43461C5.82046 7.24268 7.17992 6.60293 8.63535 6.29905C9.86862 6.02788 11.133 5.92565 12.3939 5.99517C12.8737 6.55495 12.026 7.49858 11.1623 7.59454C10.1245 7.92834 9.05079 8.13773 7.96361 8.2183C6.68412 8.05836 5.77248 9.19391 4.461 9.33785C4.81286 8.6981 4.17311 9.11394 3.51737 9.08195C3.85324 10.3934 1.1663 8.74609 2.74967 8.42621C1.56614 8.01038 1.55015 9.25788 1.6781 10.0256C0.638509 8.57016 1.79005 7.9624 3.16551 7.78647ZM6.17232 9.51378C5.82046 9.43381 6.44421 9.19391 6.17232 9.51378V9.51378ZM5.02077 10.9212C5.02077 10.9212 4.47699 10.7933 4.7009 10.6493C6.30027 10.8573 3.26147 10.1215 4.90882 10.2975C5.9644 10.2655 5.61254 10.8732 5.02077 10.9212ZM5.54857 11.1931C5.35664 11.385 5.54857 10.8093 5.54857 11.1931V11.1931ZM4.41302 11.1931C3.70929 11.0492 4.74888 10.8413 4.41302 11.1931V11.1931ZM4.31705 13.4802C4.15712 13.3523 4.2051 13.6401 4.31705 13.4802V13.4802ZM3.83724 13.2083C2.95759 12.9044 3.83724 12.8725 3.83724 13.2083V13.2083ZM3.64532 15.2555C3.22948 15.1116 3.24548 14.4558 3.05355 14.104C2.44579 12.4566 3.70929 14.7437 3.58134 15.2555L3.64532 15.2555ZM4.01317 12.8725C2.90961 12.7445 3.93321 12.0888 4.01317 12.8725V12.8725ZM4.01317 12.3287L3.86923 12.3287C2.65371 11.7689 4.58895 12.0568 3.83724 12.3287L4.01317 12.3287ZM3.83724 11.0652C2.86163 10.5694 4.76488 10.4894 3.83724 11.0652V11.0652ZM4.17311 11.481C3.62933 11.577 4.25308 10.9692 4.17311 11.481V11.481ZM2.09393 11.593C1.90201 11.7209 2.09393 11.2251 2.09393 11.593V11.593ZM2.23788 11.369C1.98198 11.369 2.23788 10.9372 2.23788 11.369V11.369ZM2.36583 9.76968C1.72608 9.60974 2.89362 9.36984 2.36583 9.76968V9.76968ZM2.78166 12.9684C2.07794 12.8085 2.58974 11.9288 2.78166 12.9684V12.9684ZM3.26147 14.9676C3.93321 15.7833 3.67731 16.2311 4.36503 17.2227C3.46939 16.663 3.29346 15.3035 2.76567 14.4238C2.10993 12.9844 3.13352 14.4078 3.26147 14.9676ZM9.80288 25.1716C9.2591 25.0596 8.89124 24.4839 8.5074 24.116C7.41561 23.3169 6.55031 22.2477 5.99639 21.0132C5.07561 19.8375 4.29218 18.5604 3.66131 17.2067C3.00557 15.7353 4.06115 17.3187 4.22109 17.8785C4.55696 18.966 5.62853 19.5898 5.7245 20.3095C6.90803 20.9812 6.30027 22.1008 7.32386 22.4047C7.75569 22.1808 7.80367 23.7482 8.7473 23.4283C8.21951 23.6682 8.95522 23.9561 9.22711 24.4039C9.78689 24.3239 11.0984 25.7154 9.80288 25.2356L9.80288 25.1716ZM4.82885 14.9676C4.33305 14.8557 5.35664 14.7917 4.82885 14.9676V14.9676ZM5.14872 15.7193C4.26907 15.4954 5.9804 15.3995 5.14872 15.7193V15.7193ZM7.37185 16.471C8.01159 16.1991 7.62774 17.7185 8.2515 17.9105C9.46702 19.5098 7.40383 17.9105 6.65213 17.7985C6.74809 17.7985 6.04437 17.6066 6.34825 17.5426C6.12434 17.3027 5.62853 16.487 6.76409 17.0308C7.72371 17.4147 7.80367 17.1268 7.37185 16.4071L7.37185 16.471ZM9.46702 19.2859C9.46702 19.5258 8.31547 19.4938 9.37105 19.9577C8.76329 19.9577 8.57137 19.9577 9.37105 20.4375C9.01919 20.7094 10.0588 20.9333 9.70692 21.3491C10.7625 22.1808 9.515 21.557 9.06717 21.2212C8.61935 20.8853 7.70771 20.6614 7.86765 20.4215C9.16314 21.0932 8.20352 20.4215 7.62774 19.9417C8.66733 20.1976 6.81207 19.174 7.78768 19.4459C8.09156 19.5258 7.35585 18.8381 8.31547 19.3339C7.45181 18.5022 9.06717 19.142 9.46702 19.2219L9.46702 19.2859ZM10.2347 19.014C9.2591 18.7901 10.2347 18.4702 10.2347 19.014V19.014ZM9.96282 22.2128C8.98721 21.7969 10.5866 22.2128 9.96282 22.2128V22.2128ZM9.2431 21.9409C8.10755 21.573 10.0748 21.9409 9.2431 21.9409V21.9409ZM9.09916 22.1168C8.7473 22.1168 9.09916 21.8449 9.09916 22.1168V22.1168ZM7.37185 19.6378C6.2203 19.158 7.05197 19.11 7.37185 19.6378V19.6378ZM6.50819 19.078C5.58055 18.5502 6.38024 18.5502 6.50819 19.078V19.078ZM6.50819 20.1176C5.59655 19.4139 6.39623 19.7177 6.50819 20.1176V20.1176ZM6.26828 17.9744C5.7085 17.9744 6.4762 17.6546 6.26828 17.9744V17.9744ZM10.2347 23.5722C9.41903 23.3323 10.2347 23.3483 10.2347 23.5722V23.5722ZM9.64295 22.9645L9.38705 22.9645C8.29948 22.1008 9.88285 22.3567 10.5866 22.7405C12.138 22.9645 10.2347 23.3643 9.64295 22.9645ZM13.9612 25.6034C12.8737 25.3475 14.2171 25.1716 13.9612 25.6034V25.6034ZM13.6893 24.7717C13.5294 24.5958 13.6094 24.7717 13.6893 24.7717V24.7717ZM12.3139 22.6286C11.3703 22.4047 12.6498 22.3247 12.8897 22.6286C14.521 22.9645 12.7937 23.0444 12.3139 22.6286ZM12.6498 24.5638L12.4738 24.5638L12.2659 24.4679C11.3703 23.5242 14.1692 24.9157 12.6498 24.5638ZM12.2019 25.6674C11.962 25.7634 12.2019 25.4435 12.2019 25.6674V25.6674ZM12.6658 23.7641L12.4099 23.6842C11.3543 22.9645 13.7533 23.8281 12.6658 23.6842L12.6658 23.7641ZM12.9216 26.5151C12.2819 26.2592 13.3375 26.1152 12.9216 26.5151V26.5151ZM13.0816 25.3315C12.154 25.1076 13.6574 25.1236 13.0816 25.3315V25.3315ZM13.2895 24.3559C12.5858 24.26 13.3695 24.02 13.2895 24.3559V24.3559ZM12.138 22.9485C12.8737 23.0444 12.8897 23.3803 12.138 23.1724C11.994 23.1724 11.7541 23.1724 11.6901 22.9005C10.4746 22.1008 11.7381 22.5006 12.138 22.8685L12.138 22.9485ZM12.042 26.1472C11.7221 26.3391 12.042 25.7953 12.042 26.1472V26.1472ZM11.5462 25.3315C10.6985 25.3315 12.1859 24.9157 11.5462 25.3315V25.3315ZM11.3543 25.8913C10.9384 25.7314 11.6262 25.7634 11.3543 25.8913V25.8913ZM11.8341 24.4679C11.0024 24.244 12.2339 24.18 11.8341 24.4679V24.4679ZM11.5782 23.5562C11.1304 23.5562 11.4822 23.3003 11.5782 23.5562V23.5562ZM10.7145 22.0368C9.80288 21.3011 12.6018 22.6446 10.7145 22.0368V22.0368ZM10.6186 22.3407C10.4426 22.1968 10.6186 22.4367 10.6186 22.3407V22.3407ZM16.4563 28.3863C15.0332 28.1324 13.6542 27.6745 12.3619 27.0269L11.8341 26.707C10.9224 26.2112 11.0344 26.0992 11.93 26.595C12.2339 26.8509 14.473 27.7626 13.4175 27.1548C12.9536 27.0428 10.3787 25.6354 12.074 26.2432C13.4866 26.9921 14.9511 27.6389 16.4563 28.1784C17.7284 28.4803 19.043 28.5614 20.3427 28.4183C21.3823 28.9461 22.4699 28.2904 23.5414 28.7542C21.1655 29.0405 18.758 28.916 16.4243 28.3863L16.4563 28.3863ZM14.457 27.2668C13.6414 27.1228 14.7129 26.8989 14.457 27.2668V27.2668ZM15.6246 25.6674C14.6969 25.4915 16.5842 25.2995 15.6246 25.6674V25.6674ZM16.968 27.7626C18.5674 28.3543 16.0084 27.9545 15.4806 27.6186C14.0092 27.0109 16.6322 27.7626 16.968 27.7626ZM15.2727 26.0033C13.9772 25.8113 16.7121 26.0033 15.2727 26.0033V26.0033ZM17.7038 27.3627C17.2399 27.7306 17.7038 26.8829 17.7038 27.3627V27.3627ZM18.1676 27.4427C17.9277 27.5386 18.1676 27.1708 18.1676 27.4427V27.4427ZM18.5994 26.8349C18.3435 27.1548 18.5994 26.4671 18.5994 26.8349V26.8349ZM19.0952 26.8349C18.3755 27.1068 19.8469 26.2112 19.0952 26.8349V26.8349ZM19.3191 26.8349C20.1028 26.1632 20.1348 26.4831 20.1188 27.0428C19.4311 27.8105 19.8469 26.723 19.4151 27.1388C18.9832 27.5546 19.1112 26.9789 19.3191 26.8669L19.3191 26.8349ZM20.6466 27.5546C19.8469 27.5546 21.4623 26.691 20.6466 27.5546V27.5546ZM20.6466 27.8425C20.3267 27.9225 20.6466 27.6346 20.6466 27.8425V27.8425ZM20.3907 27.2828C19.7669 26.8669 21.8941 26.3071 20.3907 27.2828V27.2828ZM21.3023 27.4267L21.1744 27.4267C21.1264 27.0588 22.038 26.9949 21.3023 27.4587L21.3023 27.4267ZM21.5422 27.7306C21.0624 27.6026 22.2939 27.0908 21.5422 27.7306V27.7306ZM22.118 27.5706C21.3023 27.8585 22.8857 26.9309 22.118 27.5706V27.5706ZM22.4699 27.7466L22.2779 27.8745C21.9101 27.6506 23.4135 27.1068 22.4699 27.7626L22.4699 27.7466ZM21.7821 26.8989C20.9185 26.611 19.543 25.6834 18.5834 26.3071C17.3039 27.1228 19.2391 25.4115 18.1996 26.1792C17.144 27.4427 17.4798 25.3795 16.4563 26.0033C16.4563 25.8113 15.5446 25.7474 16.1844 25.4115C15.6086 25.4115 15.9764 25.3315 16.1844 24.8677C15.9285 24.8677 14.585 24.8677 14.0092 24.4039C13.3695 23.5722 14.1212 23.9241 14.7769 24.036C13.7053 24.228 15.1608 24.8357 15.8645 24.4999C15.5446 24.3559 15.1768 23.6682 14.2651 23.0604C13.164 22.4568 12.0262 21.9226 10.8585 21.4611C9.515 20.6614 11.1464 21.1732 11.6102 21.589C12.9536 22.1808 12.4258 20.7733 11.6102 20.4055C10.7465 20.4055 10.5386 19.4618 9.85086 19.5098C10.9224 19.6858 11.6741 19.2379 10.4746 18.1504C9.27509 17.0628 10.9544 19.158 10.2987 18.8541C9.99481 18.4542 10.2187 17.8945 9.2591 17.6865C9.2591 18.0544 9.13115 18.6142 8.92323 17.8465C8.65134 17.8465 8.34746 18.1824 8.12355 17.3987C8.33146 16.487 7.2279 16.2791 7.05197 15.7033C8.01159 16.3111 8.44342 15.8313 7.77169 15.1755C7.09995 14.5198 7.24389 14.9996 6.988 15.1755C6.04437 16.1352 6.89203 13.5762 6.4762 14.2799C6.06036 14.2799 6.30027 14.7437 6.31626 15.3195C4.94081 14.9836 6.63614 16.0392 7.03598 16.615C6.41222 15.9752 6.52418 17.1108 5.99639 16.615C5.82046 16.1352 5.80446 15.3835 4.92481 15.2555C5.91642 14.9037 4.34904 14.2159 4.47699 14.1839C5.03677 13.6721 5.11674 12.9684 5.78847 14.072C4.94081 14.072 5.78847 15.4794 5.9804 15.0316C5.9804 14.2799 6.33226 13.4322 5.03677 13.1284C4.65292 13.6402 3.99718 12.1208 4.74888 12.4406C4.65292 11.433 5.93241 12.0248 5.85245 11.593C6.52418 11.3051 5.05276 10.3614 5.85245 9.99359C6.46021 10.3774 8.02758 9.41782 6.972 9.28987C7.64374 9.28987 8.17153 9.57776 8.2355 8.90602C8.76329 9.01798 10.2187 9.48179 8.90724 8.76208C9.48285 8.52798 10.0939 8.3928 10.7145 8.36224C11.978 7.38662 11.7221 9.9616 11.4342 10.6813C11.914 10.3455 11.8181 12.1847 11.6581 12.8725C11.914 12.5206 12.026 13.4482 11.6581 14.104C11.6581 13.992 12.2979 13.896 11.8501 14.6637C11.4982 13.912 11.3543 16.2631 11.5782 15.1755C12.1699 14.1999 12.026 15.1755 12.2019 15.5594C12.3299 16.439 12.7137 17.2547 12.8417 18.0544C13.4015 18.6142 12.6018 18.2303 12.6018 18.998C12.7777 18.7741 13.5294 19.3019 13.5134 20.0856C13.5134 18.8381 13.6574 19.7977 14.2651 20.0856C14.6741 20.9228 15.214 21.6895 15.8645 22.3567C16.4563 23.0444 15.8645 22.5646 16.0884 22.9805C16.4831 23.5252 16.9816 23.9865 17.5553 24.3379C18.129 24.6892 18.7665 24.9236 19.4311 25.0276C19.6774 25.4559 20.0531 25.795 20.5043 25.9961C20.9555 26.1973 21.4589 26.2502 21.9421 26.1472C20.9825 26.739 24.629 26.8989 23.3975 27.2188C23.0296 27.4747 22.4059 26.8989 21.7821 26.9309L21.7821 26.8989ZM11.3543 21.1892C10.9704 21.1892 11.3543 20.8693 11.3543 21.1892V21.1892ZM11.962 21.541C11.6741 21.541 11.7701 21.1572 11.962 21.541V21.541ZM7.78768 15.7033C7.40383 15.5914 7.94762 15.5594 7.78768 15.7033V15.7033ZM6.84405 15.7033C6.42822 15.7033 6.84405 15.1595 6.84405 15.7033V15.7033ZM6.36424 15.5754C6.20431 15.6554 6.36424 15.3995 6.36424 15.5754V15.5754ZM23.9573 28.7702C23.3335 28.6582 24.4691 28.4183 23.9573 28.7702V28.7702ZM25.1248 27.0908L24.645 27.0908C24.741 26.3711 26.7722 26.9309 27.6038 26.9469C27.3479 27.4907 25.7966 27.0109 25.1248 27.1548L25.1248 27.0908ZM28.3236 27.0908C27.8917 27.0908 28.5155 26.579 28.3236 27.0908V27.0908ZM29.9229 26.9469C29.5231 27.1548 29.9229 26.4671 29.9229 26.9469V26.9469ZM30.6906 27.1228C29.8589 26.9309 31.0745 26.9309 31.3304 26.8989C32.8338 26.9309 31.3304 27.1548 30.5787 27.1548L30.6906 27.1228Z" fill="white" style="fill:white;fill-opacity:1;"/>
<path d="M7.85165 7.14672C9.45102 6.82685 7.2439 6.61893 6.74809 7.14672C7.03598 7.35464 7.40383 6.81085 7.85165 7.14672ZM6.54017 7.35464C6.54017 7.65852 6.82806 7.00277 6.54017 7.35464V7.35464ZM10.7305 6.58694C11.8021 6.41101 10.9064 5.9312 10.5866 6.74688C10.6985 6.97079 10.7625 6.66691 10.7305 6.58694ZM9.73891 6.74688C9.65894 5.14751 11.2263 7.32265 9.73891 6.74688V6.74688ZM5.06876 8.23429C5.25792 8.2247 5.44452 8.28125 5.59655 8.39422C6.79607 9.22589 5.43661 7.05076 5.06876 8.23429Z" fill="white" style="fill:white;fill-opacity:1;"/>
<path d="M5.13273 7.65852C5.38863 7.86643 5.59655 7.32265 5.13273 7.65852V7.65852ZM5.7245 7.67451L5.94841 7.86643C7.03598 7.9624 5.77248 7.13072 5.7245 7.67451ZM14.537 21.3651C14.537 20.7413 14.681 21.8449 14.537 21.3651V21.3651ZM6.89203 13.3683C7.05197 13.6561 7.17992 13.0804 6.89203 13.3683V13.3683ZM7.03598 14.3439C7.03598 13.5282 7.33986 14.8877 7.03598 14.3439V14.3439ZM7.37184 13.5602C6.92402 12.7285 7.89964 13.896 7.37184 13.5602V13.5602ZM6.7161 12.2487C6.82806 12.4886 7.09995 12.5046 7.30787 12.5686C9.41903 13.5442 5.78847 10.9692 6.7161 12.2487ZM7.57976 14.5358C7.86765 13.944 8.07557 15.3835 7.57976 14.5358V14.5358ZM8.34746 14.2799C8.93923 15.7513 7.9796 14.088 7.86765 13.5922C7.88135 14.1543 8.03529 14.704 8.31547 15.1915C8.85926 16.0072 8.61935 14.7437 9.19512 15.5594C8.87525 14.8397 9.35506 15.2395 9.29109 14.9196C9.22711 14.5998 7.69172 13.0484 8.34746 14.2799ZM8.92323 17.1268C9.06717 17.6226 9.21112 17.1268 8.92323 17.1268V17.1268ZM6.79607 10.1695C6.89203 10.3934 6.972 10.1695 6.79607 10.1695V10.1695ZM7.86765 10.8413C8.13954 10.2655 8.37945 11.497 7.86765 10.8413V10.8413ZM6.44421 12.6645L6.66812 12.9044C8.2515 13.3683 4.98879 11.385 6.44421 12.6645ZM7.56377 12.0728C9.16314 12.7285 7.41983 11.6409 6.86005 11.7529C7.03598 11.9608 7.37184 11.8649 7.56377 12.0728ZM7.27588 11.369C7.56377 11.6569 8.58736 12.1847 7.77169 11.465C8.28348 11.369 7.77169 11.2091 7.38784 10.9532C6.68412 9.88164 7.49979 11.0492 7.27588 11.369Z" fill="white" style="fill:white;fill-opacity:1;"/>
<path d="M6.25229 12.7925C5.40462 12.0888 6.50819 13.1284 6.15632 13.1124C5.27667 12.4726 5.64453 12.9364 6.15632 13.4322C6.68412 14.2319 7.11595 12.9524 6.25229 12.7925ZM9.67493 13.8161C9.57897 12.7285 9.86686 13.992 9.67493 13.8161V13.8161ZM11.3063 8.21829C11.3063 8.41022 11.4182 8.05836 11.3063 8.21829V8.21829ZM11.8341 15.7193C11.8341 15.4314 11.8341 16.0552 11.8341 15.7193V15.7193ZM11.3703 13.7681C11.4982 14.5038 11.5302 12.5206 11.3703 13.7681V13.7681ZM11.5942 14.12L11.5942 14.2799C11.93 13.4642 11.6581 13.0164 11.5942 14.12ZM11.4342 9.80167C11.2103 10.9212 11.0024 10.4574 11.3063 9.62574C11.2263 8.55416 10.5866 10.2815 10.8745 10.7773C11.3383 11.529 11.8341 8.92202 11.4342 9.80167ZM13.0496 19.3659C13.2255 18.6941 13.2575 19.9257 13.0496 19.3659V19.3659ZM10.8905 12.5206C10.8905 12.2967 10.8905 12.8405 10.8905 12.5206V12.5206ZM11.914 15.2395C11.914 15.6554 12.09 14.6318 11.914 15.2395V15.2395ZM12.6338 18.1664L12.7457 18.3423C12.9696 17.5586 12.1699 17.0788 12.6338 18.1664ZM10.1388 17.3347C9.93083 16.9668 10.5706 17.6865 10.1388 17.3347V17.3347ZM12.106 15.9752C12.106 15.3035 12.2339 16.439 12.106 15.9752V15.9752ZM10.4586 11.465C10.3787 11.0332 10.6985 11.9928 10.4586 11.465V11.465Z" fill="white" style="fill:white;fill-opacity:1;"/>
<path d="M10.7145 12.1367C10.2987 11.1131 11.0984 12.6805 10.7145 12.1367V12.1367ZM10.6186 13.976C10.4106 12.3766 9.94683 14.6957 10.6186 15.0796C10.8265 15.6234 11.0184 15.3995 11.0984 14.7757C10.5866 14.7757 11.2263 13.7841 10.6186 13.976Z" fill="white" style="fill:white;fill-opacity:1;"/>
</svg>
