<svg width="32" height="32" viewBox="0 0 32 32" fill="none" xmlns="http://www.w3.org/2000/svg">
<path d="M5 0C2.23858 0 0 2.23858 0 5V27C0 29.7614 2.23858 32 5 32H27C29.7614 32 32 29.7614 32 27V5C32 2.23858 29.7614 0 27 0H5ZM16.7014 27.3742C16.2301 28.3323 15.3292 28.9622 14.2863 29.2658C12.683 29.6339 11.1503 29.4243 10.0092 28.7393C9.62148 28.5015 9.27697 28.1987 8.97888 27.8496C8.48158 27.2671 8.74425 26.4149 9.39708 26.0144V26.0144C10.1024 25.5817 10.9674 25.8748 11.598 26.4106C11.7114 26.507 11.8303 26.5888 11.954 26.6493C12.4714 26.8252 13.6053 26.9386 14.044 26.0286C14.3119 25.5665 14.226 24.0491 14.226 22.4039C14.226 20.3132 14.234 18.2506 14.2371 16.1539C14.2383 15.3275 14.9082 14.6575 15.7347 14.6575V14.6575C16.5611 14.6575 17.2311 15.3274 17.2323 16.1539C17.2356 18.4054 17.2436 20.6594 17.2311 22.9059C17.2372 24.5879 17.3834 26.1176 16.7014 27.3742ZM29.1197 26.5286C29.119 26.5286 29.1185 26.5291 29.1183 26.5297C28.0776 30.088 22.2769 30.2033 19.9601 27.8517C19.8455 27.7223 19.741 27.6073 19.6442 27.4989C19.1257 26.9177 19.4059 26.0632 20.0806 25.6741V25.6741C20.7756 25.2733 21.6029 25.5441 22.2111 26.0674C22.6013 26.403 23.0484 26.6219 23.638 26.7444C25.1074 26.9233 26.5859 26.4192 26.2546 24.8589C25.9141 23.5838 23.2464 23.274 21.4305 21.911C19.5869 20.6728 19.1554 17.6646 20.6697 15.9458C21.1748 15.3098 22.0358 14.8354 22.9387 14.6074L23.8814 14.4857C25.6912 14.4489 26.8231 14.9264 27.6534 15.8548V15.8548C28.1545 16.3626 28.0724 17.1137 27.4712 17.4979V17.4979C26.8103 17.9203 25.7871 17.6885 25.0949 17.3197C24.9928 17.2653 24.8881 17.2204 24.7822 17.1851C23.9796 16.9417 22.9663 17.2065 22.7566 18.0552C22.7078 18.2315 22.6987 18.3994 22.7334 18.622C22.7721 18.8712 22.8535 19.119 23.0187 19.3094C23.4767 19.8373 24.3843 20.1261 25.2117 20.5061C28.0317 21.6503 28.9836 22.8753 29.2178 24.3354C29.4422 25.5893 29.1638 26.4034 29.1209 26.5278C29.1207 26.5284 29.1203 26.5286 29.1197 26.5286V26.5286Z" fill="white" style="fill:white;fill-opacity:1;"/>
</svg>
