<svg width="44" height="51" viewBox="0 0 44 51" fill="none" xmlns="http://www.w3.org/2000/svg">
<g clip-path="url(#clip0_1369_1587)">
<path d="M2.28502 26.8357C2.28502 28.3937 2.16038 28.9012 1.83987 29.2751C1.48316 29.5963 1.02006 29.7739 0.540039 29.7737L0.664681 30.664C1.40888 30.674 2.13099 30.4111 2.69456 29.925C2.99779 29.5552 3.22344 29.1282 3.35804 28.6693C3.49265 28.2104 3.53345 27.7291 3.47802 27.2541V21.3604H2.28502V26.8001V26.8357Z" fill="white" style="fill:white;fill-opacity:1;"/>
<path d="M11.1817 26.1332C11.1817 26.8009 11.1817 27.3974 11.2351 27.9138H10.1757L10.1045 26.8543C9.88287 27.2292 9.56596 27.5387 9.18597 27.7514C8.80597 27.964 8.37644 28.0723 7.94104 28.0651C6.9083 28.0651 5.67969 27.5043 5.67969 25.2162V21.4146H6.87269V24.9758C6.87269 26.2133 7.25552 27.0413 8.33278 27.0413C8.55441 27.0437 8.77428 27.0018 8.97951 26.9181C9.18474 26.8344 9.37118 26.7105 9.52791 26.5538C9.68463 26.3971 9.80849 26.2106 9.89221 26.0054C9.97592 25.8002 10.0178 25.5803 10.0154 25.3586V21.3701H11.2084V26.0976L11.1817 26.1332Z" fill="white" style="fill:white;fill-opacity:1;"/>
<path d="M13.4431 23.5324C13.4431 22.7044 13.4431 22.0278 13.3896 21.4135H14.458L14.5114 22.5264C14.7494 22.1243 15.0921 21.7944 15.5029 21.5717C15.9137 21.3491 16.3772 21.2421 16.844 21.2621C18.4287 21.2621 19.6217 22.5887 19.6217 24.5651C19.6217 26.8977 18.1883 28.0551 16.6392 28.0551C16.2427 28.0728 15.8484 27.9879 15.4943 27.8085C15.1403 27.6291 14.8385 27.3614 14.6183 27.0313V30.5925H13.4431V23.5591V23.5324ZM14.6183 25.2685C14.6215 25.43 14.6394 25.5909 14.6717 25.7492C14.7727 26.1446 15.0026 26.4949 15.3251 26.7448C15.6476 26.9948 16.0443 27.13 16.4523 27.1292C17.7076 27.1292 18.4465 26.1054 18.4465 24.6186C18.4465 23.3187 17.7521 22.2059 16.4968 22.2059C16 22.2465 15.5351 22.467 15.1893 22.826C14.8435 23.1849 14.6404 23.6577 14.6183 24.1556V25.2685Z" fill="white" style="fill:white;fill-opacity:1;"/>
<path d="M21.7473 21.4075L23.1807 25.2446C23.3321 25.672 23.4923 26.1883 23.5991 26.5712C23.7238 26.1794 23.8573 25.6809 24.0176 25.2179L25.3174 21.4075H26.5727L24.7921 26.037C23.9018 28.2627 23.3588 29.4112 22.5397 30.1057C22.1271 30.4825 21.6242 30.7462 21.0796 30.8713L20.7858 29.8742C21.1666 29.7491 21.5201 29.5527 21.8275 29.2955C22.2618 28.9415 22.6065 28.4901 22.8335 27.9778C22.8821 27.8891 22.9152 27.7928 22.9314 27.6929C22.9213 27.5855 22.8943 27.4803 22.8513 27.3813L20.4297 21.3896H21.7295L21.7473 21.4075Z" fill="white" style="fill:white;fill-opacity:1;"/>
<path d="M29.7399 19.54V21.4097H31.4493V22.3H29.7399V25.8077C29.7399 26.609 29.9714 27.0719 30.6302 27.0719C30.8642 27.0758 31.0977 27.0488 31.3247 26.9918L31.3781 27.8821C31.0377 28 30.6786 28.0543 30.3186 28.0424C30.0802 28.0573 29.8414 28.0205 29.6186 27.9344C29.3958 27.8483 29.1942 27.7151 29.0277 27.5438C28.6651 27.0588 28.4996 26.4543 28.5647 25.8522V22.2911H27.5498V21.4008H28.5825V19.816L29.7399 19.54Z" fill="white" style="fill:white;fill-opacity:1;"/>
<path d="M33.6469 24.869C33.6227 25.171 33.6644 25.4745 33.7691 25.7588C33.8737 26.043 34.0388 26.3012 34.253 26.5154C34.4672 26.7295 34.7253 26.8947 35.0096 26.9993C35.2938 27.104 35.5974 27.1456 35.8993 27.1215C36.5101 27.1351 37.1168 27.0199 37.6799 26.7832L37.8847 27.6735C37.1937 27.9581 36.4506 28.0946 35.7035 28.0741C35.2679 28.1039 34.8311 28.0392 34.4229 27.8843C34.0148 27.7294 33.6449 27.4881 33.3388 27.1769C33.0327 26.8657 32.7974 26.4919 32.6493 26.0813C32.5012 25.6706 32.4436 25.2328 32.4806 24.7978C32.4806 22.8392 33.6469 21.29 35.5521 21.29C37.6888 21.29 38.223 23.1597 38.223 24.3527C38.2344 24.5365 38.2344 24.7208 38.223 24.9046H33.6202L33.6469 24.869ZM37.1369 23.9787C37.1712 23.7407 37.1542 23.4981 37.0868 23.2672C37.0195 23.0363 36.9034 22.8226 36.7465 22.6403C36.5896 22.4581 36.3954 22.3116 36.1771 22.2108C35.9588 22.1099 35.7214 22.057 35.4809 22.0557C34.9917 22.0911 34.5334 22.3079 34.1958 22.6637C33.8582 23.0194 33.6656 23.4884 33.6558 23.9787H37.1369Z" fill="white" style="fill:white;fill-opacity:1;"/>
<path d="M40.0339 23.4325C40.0339 22.6669 40.0339 22.008 39.9805 21.4026H41.0488V22.6758H41.1022C41.2144 22.2828 41.4461 21.9345 41.7651 21.6793C42.0842 21.424 42.4749 21.2744 42.8828 21.2513C42.9951 21.2365 43.1089 21.2365 43.2211 21.2513V22.3642C43.0851 22.3484 42.9477 22.3484 42.8116 22.3642C42.4075 22.3798 42.0228 22.5421 41.7296 22.8206C41.4363 23.0991 41.2544 23.4749 41.218 23.8777C41.1847 24.0598 41.1668 24.2445 41.1646 24.4296V27.8929H39.9894V23.4414L40.0339 23.4325Z" fill="white" style="fill:white;fill-opacity:1;"/>
<path d="M39.5111 3.52559C39.5476 4.1237 39.4053 4.71915 39.1023 5.23609C38.7992 5.75304 38.3492 6.16807 37.8094 6.42833C37.2696 6.68858 36.6646 6.78227 36.0714 6.69747C35.4782 6.61266 34.9237 6.3532 34.4785 5.95213C34.0333 5.55107 33.7176 5.02655 33.5715 4.4454C33.4254 3.86425 33.4557 3.25277 33.6584 2.68887C33.8611 2.12497 34.227 1.63416 34.7096 1.27898C35.1922 0.923794 35.7696 0.72031 36.3683 0.694447C36.7608 0.672848 37.1537 0.729056 37.5244 0.859837C37.8951 0.990618 38.2363 1.19339 38.5284 1.4565C38.8205 1.71961 39.0576 2.03786 39.2263 2.39295C39.3949 2.74804 39.4917 3.13297 39.5111 3.52559Z" fill="white" style="fill:white;fill-opacity:1;"/>
<path d="M21.9062 38.3924C13.8936 38.3924 6.85127 35.5167 3.20996 31.27C4.6228 35.0904 7.17211 38.3863 10.5148 40.7141C13.8574 43.0418 17.833 44.2896 21.9062 44.2896C25.9795 44.2896 29.955 43.0418 33.2977 40.7141C36.6403 38.3863 39.1896 35.0904 40.6025 31.27C36.9701 35.5167 29.9545 38.3924 21.9062 38.3924Z" fill="white" style="fill:white;fill-opacity:1;"/>
<path d="M21.9062 10.7771C29.9189 10.7771 36.9612 13.6528 40.6025 17.8995C39.1896 14.0791 36.6403 10.7832 33.2977 8.45547C29.955 6.12773 25.9795 4.87988 21.9062 4.87988C17.833 4.87988 13.8574 6.12773 10.5148 8.45547C7.17211 10.7832 4.6228 14.0791 3.20996 17.8995C6.85127 13.6439 13.858 10.7771 21.9062 10.7771Z" fill="white" style="fill:white;fill-opacity:1;"/>
<path d="M10.876 46.6564C10.923 47.4098 10.7447 48.1601 10.3637 48.8117C9.98278 49.4633 9.41646 49.9868 8.73693 50.3155C8.0574 50.6441 7.29542 50.763 6.54808 50.657C5.80073 50.551 5.10185 50.225 4.54048 49.7204C3.97911 49.2158 3.58067 48.5555 3.39591 47.8236C3.21115 47.0917 3.24845 46.3214 3.50305 45.6108C3.75765 44.9002 4.21802 44.2815 4.82551 43.8335C5.43301 43.3855 6.16012 43.1285 6.91421 43.0952C7.4082 43.0688 7.90256 43.14 8.36905 43.3046C8.83553 43.4693 9.265 43.7243 9.63291 44.055C10.0008 44.3857 10.3 44.7857 10.5133 45.232C10.7266 45.6784 10.8498 46.1624 10.876 46.6564Z" fill="white" style="fill:white;fill-opacity:1;"/>
<path d="M4.12073 9.80912C3.68898 9.82104 3.26334 9.70504 2.89734 9.47571C2.53134 9.24637 2.24132 8.91393 2.06376 8.52021C1.88619 8.12648 1.82901 7.68904 1.8994 7.2629C1.96979 6.83676 2.1646 6.44094 2.45935 6.12523C2.7541 5.80952 3.13562 5.588 3.55593 5.48855C3.97623 5.38909 4.41656 5.41613 4.82155 5.56626C5.22653 5.71639 5.57808 5.98292 5.83198 6.33232C6.08589 6.68173 6.23082 7.09841 6.24854 7.52996C6.26541 8.11349 6.05143 8.68013 5.65305 9.10684C5.25467 9.53356 4.70404 9.78592 4.12073 9.80912Z" fill="white" style="fill:white;fill-opacity:1;"/>
</g>
<defs>
<clipPath id="clip0_1369_1587">
<rect width="44" height="51" fill="white" style="fill:white;fill-opacity:1;"/>
</clipPath>
</defs>
</svg>
