<svg width="33" height="30" viewBox="0 0 33 30" fill="none" xmlns="http://www.w3.org/2000/svg">
<path d="M32.6152 15.0485C32.6152 12.703 30.4372 10.5249 26.9189 9.18463L26.9189 8.34694C27.4215 4.82861 26.5838 2.31552 24.7409 1.31029C22.5629 0.137514 19.7147 0.97521 16.699 3.32076C13.6833 0.97521 10.8351 -0.0300255 8.82466 1.31029C6.98173 2.31552 6.14403 4.82861 6.31157 8.34694L6.31157 9.18463C2.96078 10.5249 0.615234 12.5354 0.615234 15.0485C0.615234 17.3941 2.96078 19.5721 6.47911 20.9124L6.31157 21.7501C5.97649 25.2684 6.81419 27.7815 8.65712 28.7867C9.15974 29.1218 9.99743 29.2893 10.6676 29.2893C12.8432 29.1106 14.9016 28.2284 16.5315 26.7763C18.1614 28.2284 20.2197 29.1106 22.3953 29.2893C23.233 29.2893 23.9032 29.2893 24.5733 28.7867C26.2487 27.7815 27.254 25.2684 26.7514 21.7501L26.7514 20.9124C30.1021 19.5721 32.4477 17.5616 32.4477 15.0485L32.6152 15.0485ZM22.5629 2.48306L23.9032 2.6506C25.076 3.4883 25.5786 5.33123 25.411 8.1794L25.2435 8.68202C23.9032 8.1794 22.3953 8.01186 20.8875 7.84432C20.0498 6.67154 19.2121 5.49877 18.0393 4.49353C19.2121 3.32076 20.8875 2.6506 22.5629 2.48306ZM9.15974 17.059L10.165 18.7344L11.1702 20.4098C10.3325 20.4098 9.49482 20.0747 8.48958 19.7396L9.32728 17.059L9.15974 17.059ZM8.48958 10.3574L11.3377 9.68725L10.3325 11.3626L9.49482 13.038L8.65712 10.3574L8.48958 10.3574ZM10.165 15.0485C11.0844 13.0403 12.2072 11.1315 13.5158 9.35217C15.6885 9.13824 17.877 9.13824 20.0498 9.35217C21.3554 11.1334 22.478 13.0419 23.4006 15.0485C22.4811 17.0567 21.3583 18.9655 20.0498 20.7448C17.8215 20.9688 15.5765 20.9688 13.3482 20.7448C12.164 18.9463 11.1542 17.0389 10.3325 15.0485L10.165 15.0485ZM23.233 18.9019L24.0707 17.2265L24.9084 19.7396L22.2278 20.4098L23.233 18.7344L23.233 18.9019ZM24.0707 13.038L23.233 11.3626L22.2278 9.68725C23.233 9.68725 23.9032 10.0223 24.9084 10.3574L24.0707 13.038ZM16.699 5.49877L18.5419 7.50924C17.3142 7.44453 16.0838 7.44453 14.8561 7.50924L16.699 5.49877ZM9.66235 2.6506C9.99743 2.6506 10.5001 2.31552 10.8351 2.48306C12.5105 2.48306 14.1859 3.32076 15.5262 4.49353C14.3535 5.49877 13.3482 6.67154 12.5105 7.84432C11.0221 7.87967 9.5499 8.16278 8.1545 8.68202L8.1545 8.1794C7.81942 5.33123 8.32204 3.4883 9.66235 2.6506ZM2.45817 15.0485C2.45817 13.5407 4.13356 12.0328 6.98173 10.86L8.32204 15.0485L6.98173 19.237C4.13356 18.0642 2.45817 16.7239 2.45817 15.0485ZM9.66235 27.4464C8.32204 26.6087 7.98696 24.7658 7.98696 21.9176L8.1545 21.415C9.66235 21.9176 11.0027 22.0852 12.5105 22.2527C13.3482 23.4255 14.3535 24.5982 15.5262 25.6035C13.0131 27.4464 10.8351 28.1166 9.66235 27.2789L9.66235 27.4464ZM14.6885 22.4202C16.0277 22.4995 17.3703 22.4995 18.7095 22.4202L16.699 24.5982L14.8561 22.5878L14.6885 22.4202ZM23.9032 27.4464C22.5629 28.1166 20.3849 27.4464 18.0393 25.771L20.8875 22.4202C22.3953 22.0852 23.9032 21.9176 25.2435 21.415L25.2435 21.9176C25.5786 24.7658 25.076 26.6087 23.9032 27.4464ZM26.5838 19.237C26.2487 17.7291 25.7461 16.3888 25.076 15.0485C25.7461 13.7082 26.2487 12.3679 26.5838 10.86C29.2644 12.0328 30.9398 13.5407 30.9398 15.0485C30.9398 16.5564 29.2644 18.0642 26.5838 19.237Z" fill="white" style="fill:white;fill-opacity:1;"/>
<path d="M16.6988 18.0641C17.2953 18.0641 17.8783 17.8873 18.3742 17.5559C18.8702 17.2245 19.2567 16.7535 19.485 16.2025C19.7132 15.6514 19.7729 15.0451 19.6566 14.4601C19.5402 13.8751 19.253 13.3378 18.8312 12.916C18.4095 12.4942 17.8721 12.207 17.2871 12.0907C16.7022 11.9743 16.0958 12.034 15.5448 12.2623C14.9937 12.4905 14.5227 12.8771 14.1913 13.373C13.86 13.8689 13.6831 14.452 13.6831 15.0484C13.6831 15.8482 14.0008 16.6153 14.5664 17.1808C15.1319 17.7464 15.899 18.0641 16.6988 18.0641Z" fill="white" style="fill:white;fill-opacity:1;"/>
</svg>
