<svg width="33" height="20" viewBox="0 0 33 20" fill="none" xmlns="http://www.w3.org/2000/svg">
<path d="M16.6152 0.399414C12.3432 0.399414 9.68723 2.52741 8.61523 6.79941C10.2152 4.67141 12.0872 3.87141 14.2152 4.39941C15.4312 4.70341 16.3112 5.58341 17.2712 6.55941C18.8392 8.15941 20.6152 9.99941 24.6152 9.99941C28.8872 9.99941 31.5432 7.87141 32.6152 3.59941C31.0152 5.72741 29.1432 6.52741 27.0152 5.99941C25.7992 5.69541 24.9352 4.81541 23.9592 3.83941C22.3912 2.23941 20.6152 0.399414 16.6152 0.399414ZM8.61523 9.99941C4.34323 9.99941 1.68723 12.1274 0.615234 16.3994C2.21523 14.2714 4.08723 13.4714 6.21523 13.9994C7.43123 14.3034 8.29523 15.1834 9.27123 16.1594C10.8392 17.7594 12.6152 19.5994 16.6152 19.5994C20.8872 19.5994 23.5432 17.4714 24.6152 13.1994C23.0152 15.3274 21.1432 16.1274 19.0152 15.5994C17.7992 15.2954 16.9352 14.4154 15.9592 13.4394C14.3912 11.8394 12.6152 9.99941 8.61523 9.99941Z" fill="white" style="fill:white;fill-opacity:1;"/>
</svg>
