<svg width="32" height="32" viewBox="0 0 32 32" fill="none" xmlns="http://www.w3.org/2000/svg">
<path d="M0 16V27C0 29.7614 2.23858 32 5 32H27C29.7614 32 32 29.7614 32 27V5C32 2.23858 29.7614 0 27 0H5C2.23858 0 0 2.23858 0 5V16ZM19.4173 26.168C19.5613 26.0867 20.0987 25.776 20.6067 25.4813L21.2285 25.1209C21.3964 25.0235 21.6111 25.0726 21.72 25.2333C21.9893 25.644 22.5773 26.208 22.9333 26.396C23.9547 26.9347 25.356 26.8587 26.0467 26.2387C26.304 26.0213 26.4653 25.6987 26.4653 25.3387C26.4653 25.3173 26.4653 25.2973 26.464 25.276V25.2787C26.464 24.908 26.4173 24.7453 26.224 24.4653C25.976 24.1107 25.468 23.812 24.0253 23.1853C22.3747 22.4747 21.664 22.0333 21.0133 21.332C20.6213 20.8867 20.3187 20.3507 20.1427 19.7613L20.1347 19.732C20.0133 19.28 19.9827 18.1467 20.0787 17.6907C20.4187 16.0947 21.6227 14.984 23.36 14.6533C23.924 14.5467 25.2347 14.5867 25.788 14.724C26.6013 14.9267 27.22 15.2893 27.7893 15.8787C28.0039 16.1078 28.3125 16.5477 28.4644 16.7698C28.5257 16.8594 28.5188 16.9456 28.4315 17.0101C28.1317 17.2316 27.3461 17.7574 26.6948 18.1737C26.4762 18.3134 26.1872 18.3034 26.0427 18.088C25.6293 17.488 25.1987 17.2293 24.5387 17.184C23.568 17.1173 22.944 17.6253 22.9493 18.4733C22.9493 18.488 22.948 18.5053 22.948 18.5227C22.948 18.724 22.9987 18.9133 23.088 19.0787L23.0853 19.072C23.2987 19.5133 23.696 19.7787 24.9387 20.316C27.2307 21.3027 28.2107 21.952 28.82 22.876C29.5 23.9067 29.6533 25.5533 29.1907 26.7773C28.684 28.108 27.424 29.012 25.6507 29.3107C25.1027 29.408 23.8027 29.3933 23.2133 29.2867C21.928 29.0573 20.7093 28.4227 19.9573 27.5893C19.7717 27.3852 19.4892 26.9488 19.3056 26.6538C19.1932 26.4731 19.2334 26.275 19.4173 26.168ZM7.01067 16.0867C7.01067 15.9526 7.0119 15.8222 7.01389 15.6989C7.02239 15.1736 7.45179 14.7618 7.9771 14.7572C8.98939 14.7482 10.7243 14.7366 12.668 14.74L17.2753 14.7532C17.8221 14.7547 18.2663 15.1952 18.2724 15.7419L18.276 16.0613L18.2785 16.3639C18.283 16.9193 17.834 17.372 17.2785 17.372H15.12C14.5677 17.372 14.12 17.8197 14.12 18.372V28.2067C14.12 28.759 13.6723 29.2067 13.12 29.2067H12.1733C11.621 29.2067 11.1733 28.759 11.1733 28.2067V18.372C11.1733 17.8197 10.7256 17.372 10.1733 17.372H8.01067C7.45838 17.372 7.01067 16.9243 7.01067 16.372V16.0867Z" fill="white" style="fill:white;fill-opacity:1;"/>
</svg>
