<svg width="354" height="461" viewBox="0 0 354 461" fill="none" xmlns="http://www.w3.org/2000/svg">
<g filter="url(#filter0_i_1460_1872)">
<path fill-rule="evenodd" clip-rule="evenodd" d="M295.457 7.30287C330.604 22.4583 349.488 58.3053 353.726 101.703C354.651 111.179 350.491 120.109 343.383 125.643C325.557 139.522 302.318 127.014 298.925 108.178C294.342 82.7352 282.996 68.549 269.43 62.6993C252.952 55.5939 227.242 58.2756 195.254 78.359C172.752 92.4866 149.973 113.584 129.342 139.564C129.114 139.604 128.887 139.644 128.661 139.685C130.107 132.038 129.947 123.962 127.907 115.923C124.765 103.546 117.664 93.2214 108.301 85.9579C129.478 62.2843 152.429 42.3037 175.916 27.558C216.629 1.99638 259.768 -8.08629 295.457 7.30287ZM112.23 158.917C113.316 158.624 114.455 158.317 115.641 158.003C115.64 158.004 115.64 158.005 115.639 158.005C124.89 155.554 136.951 152.668 148.616 152.732C166.558 152.831 185.08 159.584 198.848 179.954C204.427 188.208 202.258 199.421 194.005 204.999C185.751 210.578 174.538 208.409 168.96 200.156C162.781 191.013 156.191 188.849 148.418 188.806C146.749 188.797 145.085 188.883 143.407 189.048L174.642 228.089C176.053 229.853 177.121 231.867 177.789 234.026C178.894 237.596 181.169 241.146 184.364 244.308L164.055 274.604C160.592 271.818 157.411 268.717 154.584 265.319C152.846 267.609 151.097 270.425 149.449 273.854C144.188 284.8 141.092 299.983 143.159 317.406C144.332 327.299 137.264 336.269 127.371 337.442C117.479 338.616 108.508 331.547 107.335 321.655C104.501 297.757 108.563 275.643 116.934 258.226C121.152 249.452 126.814 241.23 133.739 234.71L126.46 225.612C120.793 243.758 107.897 259.829 83.6697 267.819C74.209 270.939 64.0104 265.799 60.8903 256.339C59.0506 250.76 60.0827 244.925 63.1792 240.436C65.3341 237.311 68.4894 234.838 72.3725 233.557C73.4476 233.203 74.4661 232.828 75.4314 232.433C75.4312 232.434 75.4309 232.434 75.4307 232.435C85.8621 228.173 90.0752 221.643 92.2538 214.096C95.0912 204.266 94.4689 192.391 93.3467 179.36C92.9753 175.048 94.1606 170.916 96.4725 167.567C98.8924 164.06 102.547 161.411 106.943 160.311C108.51 159.919 110.285 159.441 112.23 158.917ZM56.7843 299.655C57.7734 292.827 59.0917 285.857 60.7253 278.79C54.322 274.853 49.2222 268.719 46.6837 261.022C40.9758 243.715 50.3792 225.057 67.6867 219.349C72.1563 217.875 74.2002 216.26 75.2367 215.148C76.2748 214.034 77.1336 212.535 77.8813 209.944C79.6441 203.837 79.621 195.786 78.7522 184.433C66.999 185.359 55.5558 182.452 45.8986 176.591C24.4009 217.673 9.61417 261.002 3.73381 301.597C-3.57606 352.061 2.97553 398.344 27.3305 428.607C53.0675 460.589 92.9352 467.96 134.741 454.806C175.77 441.896 218.093 409.865 254.667 366.634C289.102 325.933 317.331 276.646 334.941 226.681C341.395 208.372 325.892 190.673 307.505 193.246C297.809 194.603 289.909 201.357 286.872 210.405C272.639 252.803 248.742 295.179 219.484 329.762C189.182 365.578 156.452 389.145 128.236 398.023C100.795 406.657 81.9463 400.523 70.4357 386.22C57.5431 370.199 50.8565 340.577 56.7843 299.655ZM109.346 149.407C109.419 149.279 109.491 149.151 109.563 149.022C110.559 147.236 111.419 145.374 112.134 143.453C114.88 136.074 115.49 127.813 113.406 119.603C111.05 110.321 105.637 102.623 98.5151 97.3115C98.5145 97.3123 98.5139 97.313 98.5133 97.3138C89.1457 90.3271 76.8224 87.4699 64.613 90.5689C43.1213 96.024 30.1211 117.869 35.5761 139.36C41.0311 160.852 62.8758 173.852 84.3674 168.397C94.2723 165.883 102.374 159.888 107.696 152.05C108.28 151.191 108.83 150.309 109.346 149.407Z" fill="black" style="fill:black;fill-opacity:1;"/>
</g>
<defs>
<filter id="filter0_i_1460_1872" x="-16.0496" y="0.0263672" width="369.903" height="466.96" filterUnits="userSpaceOnUse" color-interpolation-filters="sRGB">
<feFlood flood-opacity="0" result="BackgroundImageFix"/>
<feBlend mode="normal" in="SourceGraphic" in2="BackgroundImageFix" result="shape"/>
<feColorMatrix in="SourceAlpha" type="matrix" values="0 0 0 0 0 0 0 0 0 0 0 0 0 0 0 0 0 0 127 0" result="hardAlpha"/>
<feOffset dx="-16.9607" dy="5.98612"/>
<feGaussianBlur stdDeviation="28.9329"/>
<feComposite in2="hardAlpha" operator="arithmetic" k2="-1" k3="1"/>
<feColorMatrix type="matrix" values="0 0 0 0 0.699722 0 0 0 0 0.673078 0 0 0 0 0.0336111 0 0 0 0.75 0"/>
<feBlend mode="normal" in2="shape" result="effect1_innerShadow_1460_1872"/>
</filter>
</defs>
</svg>
