<svg width="480" height="460" viewBox="0 0 480 460" fill="none" xmlns="http://www.w3.org/2000/svg">
<g filter="url(#filter0_i_1458_1834)">
<path d="M405.784 252.938H464.175C469.544 252.938 473.647 254.688 476.482 258.19C479.317 261.691 480.223 265.849 479.2 270.663L458.408 368.481C457.385 373.296 454.711 377.453 450.387 380.955C446.064 384.456 441.441 386.207 436.519 386.207H377.457L365.595 442.009C364.572 446.823 361.899 450.981 357.575 454.482C353.251 457.984 348.628 459.734 343.706 459.734H218.87C213.948 459.734 210.069 457.984 207.234 454.482C204.399 450.981 203.493 446.823 204.516 442.009L216.377 386.207H15.6992C10.7773 386.207 6.8987 384.456 4.06339 380.955C1.22807 377.453 0.322074 373.296 1.34539 368.481L21.3 274.602C22.8815 267.162 26.7844 260.378 33.0086 254.251L274.579 11.3467C282.425 3.90644 291.493 0.186279 301.784 0.186279H441.386C446.308 0.186279 450.187 1.93694 453.022 5.43827C455.857 8.93959 456.763 13.0974 455.74 17.9117L405.784 252.938ZM247.868 260.159L267.962 165.624L177.395 260.159H247.868Z" fill="black" style="fill:black;fill-opacity:1;"/>
</g>
<defs>
<filter id="filter0_i_1458_1834" x="-32.6197" y="0.186279" width="512.227" height="465.301" filterUnits="userSpaceOnUse" color-interpolation-filters="sRGB">
<feFlood flood-opacity="0" result="BackgroundImageFix"/>
<feBlend mode="normal" in="SourceGraphic" in2="BackgroundImageFix" result="shape"/>
<feColorMatrix in="SourceAlpha" type="matrix" values="0 0 0 0 0 0 0 0 0 0 0 0 0 0 0 0 0 0 127 0" result="hardAlpha"/>
<feOffset dx="-33.5582" dy="5.75283"/>
<feGaussianBlur stdDeviation="27.8054"/>
<feComposite in2="hardAlpha" operator="arithmetic" k2="-1" k3="1"/>
<feColorMatrix type="matrix" values="0 0 0 0 0.699722 0 0 0 0 0.673078 0 0 0 0 0.0336111 0 0 0 0.75 0"/>
<feBlend mode="normal" in2="shape" result="effect1_innerShadow_1458_1834"/>
</filter>
</defs>
</svg>
