<svg width="646" height="561" viewBox="0 0 646 561" fill="none" xmlns="http://www.w3.org/2000/svg">
<path fill-rule="evenodd" clip-rule="evenodd" d="M304.636 473.433C275.204 523.507 230.633 561 176 561C121.367 561 76.7959 523.507 47.3643 473.433C17.5635 422.731 0 354.458 0 280.5C0 206.542 17.5635 138.268 47.3643 87.5669C76.7959 37.4932 121.367 0 176 0C230.633 0 275.204 37.4932 304.636 87.5669C334.437 138.268 352 206.542 352 280.5C352 354.458 334.437 422.731 304.636 473.433ZM176 534C258.29 534 325 420.504 325 280.5C325 140.496 258.29 27 176 27C103.892 27 43.7471 114.147 29.9668 229.913C47.834 197.476 82.3506 175.5 122 175.5C179.99 175.5 227 222.51 227 280.5C227 338.49 179.99 385.5 122 385.5C82.3506 385.5 47.834 363.524 29.9668 331.087C43.7471 446.853 103.892 534 176 534ZM341.364 473.433C338.879 469.204 336.478 464.853 334.166 460.387C339.321 449.584 343.994 438.245 348.157 426.449C375.129 491.507 419.648 534 470 534C552.29 534 619 420.504 619 280.5C619 140.496 552.29 27 470 27C419.648 27 375.129 69.4932 348.157 134.551C343.994 122.755 339.321 111.416 334.166 100.613C336.478 96.1466 338.879 91.7956 341.364 87.5669C370.796 37.4932 415.367 0 470 0C524.633 0 569.204 37.4932 598.636 87.5669C628.437 138.268 646 206.542 646 280.5C646 354.458 628.437 422.731 598.636 473.433C569.204 523.507 524.633 561 470 561C415.367 561 370.796 523.507 341.364 473.433ZM416 385.5C396.753 385.5 378.716 380.322 363.206 371.282C368.966 342.424 372 311.877 372 280.5C372 249.123 368.966 218.576 363.206 189.718C378.716 180.678 396.753 175.5 416 175.5C473.99 175.5 521 222.51 521 280.5C521 338.49 473.99 385.5 416 385.5Z" fill="black" style="fill:black;fill-opacity:1;"/>
</svg>
