<svg width="858" height="368" viewBox="0 0 858 368" fill="none" xmlns="http://www.w3.org/2000/svg">
<path fill-rule="evenodd" clip-rule="evenodd" d="M584 29.5483C638.644 38.5617 727.893 60.7487 769.954 88.6696H781C736.736 57.8366 643.772 32.7473 584.679 23L584 29.5483Z" fill="black" style="fill:black;fill-opacity:1;"/>
<path fill-rule="evenodd" clip-rule="evenodd" d="M68.5269 97.1043C37.0502 121.385 15.2058 148.35 7.96632 170.177C0.762167 191.898 3.3323 214.216 16.343 236.135C42.5993 280.369 137.376 331.48 232 356.31V361C137.088 336.094 39.9144 283.62 12.8471 238.02C-0.673515 215.242 -3.4265 191.827 4.13664 169.024C10.5581 145.544 35.1289 120.893 68.008 97L68.5269 97.1043Z" fill="black" style="fill:black;fill-opacity:1;"/>
<path fill-rule="evenodd" clip-rule="evenodd" d="M841.07 252H833.656C827.602 258.017 806.734 273.924 799.058 279.692C768.892 302.359 728.258 323.058 677.927 338.394C641.356 349.537 594.038 358.136 547.5 363.9V367.766C594.416 361.975 642.187 353.307 679.14 342.048C729.772 326.621 771.877 306.699 802.528 283.668C811.847 276.665 834.04 259.426 841.07 252Z" fill="black" style="fill:black;fill-opacity:1;"/>
<path d="M588 5L592.715 19.5106H607.972L595.629 28.4787L600.343 42.9894L588 34.0213L575.657 42.9894L580.371 28.4787L568.028 19.5106H583.285L588 5Z" fill="white" stroke="black" style="fill:white;fill-opacity:1;stroke:black;stroke-opacity:1;" stroke-width="2.5"/>
</svg>
