<svg width="29" height="32" viewBox="0 0 29 32" fill="none" xmlns="http://www.w3.org/2000/svg">
<path d="M27.205 7.08025L15.4494 0.29325C14.7722 -0.0977501 13.6639 -0.0977501 12.9868 0.29325L1.23131 7.08025C0.554063 7.47125 0 8.431 0 9.21301V22.787C0.0526875 23.6978 0.517875 24.452 1.23125 24.9198L12.9869 31.7067C13.664 32.0978 14.7723 32.0978 15.4494 31.7067L27.205 24.9198C27.9705 24.4106 28.4063 23.6443 28.4363 22.787V9.21301C28.4088 8.39019 27.9161 7.56032 27.2051 7.08025M4.73938 16.0001C4.68369 6.74444 17.0806 2.65756 22.4266 11.2577L18.3245 13.6314C15.8481 9.53563 9.69944 11.0002 9.47875 16.0001C9.545 20.6081 15.5884 22.7487 18.3248 18.3683L22.4269 20.7421C17.7155 28.9209 4.97688 25.9783 4.73938 16.0001ZM23.6969 16.5266H22.6437V17.5798H21.5906V16.5266H20.5374V15.4734H21.5906V14.4203H22.6438V15.4734H23.6969V16.5266ZM27.6465 16.5266H26.5931V17.5798H25.54V16.5266H24.4869V15.4734H25.5401V14.4203H26.5932V15.4734H27.6465V16.5266Z" fill="white" style="fill:white;fill-opacity:1;"/>
</svg>
