<svg width="115" height="81" viewBox="0 0 115 81" fill="none" xmlns="http://www.w3.org/2000/svg">
<path d="M89.0781 16.0723C91.9459 17.0627 97.9677 21.0926 99.1152 29.2891C102.257 28.2645 109.772 27.4649 114.689 32.4648C113.699 36.1192 108.705 43.4895 96.6562 43.7354C90.5928 61.9882 67.2335 80.29 39.9053 80.29C21.1453 80.2899 -2.40954 70.9447 0.234375 39.3848H77.8135C80.6633 39.3848 86.5318 38.8984 86.7217 37.2812C83.2499 27.6949 83.7761 23.0539 89.0781 16.0723ZM21 37H9V26H21V37ZM35 37H23V26H35V37ZM49 37H37V26H49V37ZM63 37H51V26H63V37ZM77 37H65V26H77V37ZM35 24H23V13H35V24ZM49 24H37V13H49V24ZM63 24H51V13H63V24ZM63 11H51V0H63V11Z" fill="white"/>
</svg>
