<svg width="33" height="32" viewBox="0 0 33 32" fill="none" xmlns="http://www.w3.org/2000/svg">
<path d="M32.2013 14.5737L18.2293 0.60372C18.038 0.412324 17.8109 0.260494 17.5609 0.156906C17.3109 0.0533172 17.0429 0 16.7723 0C16.5017 0 16.2338 0.0533172 15.9838 0.156906C15.7338 0.260494 15.5066 0.412324 15.3153 0.60372L12.4153 3.50372L16.0953 7.18372C16.5293 7.03554 16.9963 7.01236 17.4428 7.11682C17.8894 7.22128 18.2976 7.44918 18.6208 7.77451C18.944 8.09983 19.1693 8.50948 19.2709 8.95669C19.3725 9.40391 19.3463 9.87067 19.1953 10.3037L22.7413 13.8517C23.266 13.667 23.8379 13.6664 24.3628 13.8501C24.8878 14.0338 25.3346 14.3908 25.6296 14.8623C25.9246 15.3338 26.0503 15.8917 25.9859 16.4442C25.9215 16.9966 25.6709 17.5107 25.2753 17.9017C24.8749 18.3046 24.347 18.556 23.7818 18.6129C23.2167 18.6698 22.6493 18.5287 22.1766 18.2137C21.7039 17.8987 21.3552 17.4294 21.1901 16.8859C21.025 16.3424 21.0537 15.7584 21.2713 15.2337L17.9653 11.9257V20.6317C18.4679 20.8805 18.8699 21.2939 19.1046 21.8032C19.3392 22.3124 19.3922 22.8867 19.2548 23.4303C19.1173 23.9739 18.7977 24.454 18.3492 24.7905C17.9007 25.127 17.3504 25.2997 16.7901 25.2797C16.2297 25.2597 15.6931 25.0482 15.2698 24.6805C14.8464 24.3129 14.5619 23.8112 14.4636 23.2592C14.3652 22.7072 14.4591 22.1381 14.7294 21.6469C14.9998 21.1557 15.4304 20.772 15.9493 20.5597V11.7737C15.6499 11.651 15.3777 11.4703 15.1485 11.2419C14.9193 11.0135 14.7375 10.742 14.6137 10.4431C14.4898 10.1441 14.4264 9.82362 14.427 9.50004C14.4277 9.17645 14.4924 8.85619 14.6173 8.55772L10.9913 4.92972L1.41134 14.5097C1.21994 14.701 1.06811 14.9282 0.964523 15.1782C0.860934 15.4282 0.807617 15.6961 0.807617 15.9667C0.807617 16.2373 0.860934 16.5053 0.964523 16.7553C1.06811 17.0053 1.21994 17.2324 1.41134 17.4237L15.3833 31.3957C15.5746 31.5871 15.8018 31.7389 16.0518 31.8425C16.3018 31.9461 16.5697 31.9994 16.8403 31.9994C17.1109 31.9994 17.3789 31.9461 17.6289 31.8425C17.8789 31.7389 18.106 31.5871 18.2973 31.3957L32.2033 17.4897C32.3947 17.2984 32.5466 17.0713 32.6502 16.8213C32.7537 16.5713 32.8071 16.3033 32.8071 16.0327C32.8071 15.7621 32.7537 15.4942 32.6502 15.2442C32.5466 14.9942 32.3947 14.767 32.2033 14.5757" fill="white" style="fill:white;fill-opacity:1;"/>
</svg>
