<svg width="33" height="32" viewBox="0 0 33 32" fill="none" xmlns="http://www.w3.org/2000/svg">
<g clip-path="url(#clip0_955_519)">
<path d="M5.77691 27.031C8.72316 29.9772 12.6411 31.6 16.8076 31.6C20.9744 31.6 24.8923 29.9772 27.8386 27.031C30.7848 24.0847 32.4076 20.1668 32.4076 16C32.4076 11.8332 30.7848 7.91529 27.8386 4.96904C24.8923 2.02278 20.9744 0.4 16.8076 0.4C12.6409 0.4 8.72291 2.02253 5.77665 4.96904C2.8304 7.91554 1.20762 11.8332 1.20762 16C1.20762 20.1668 2.83065 24.0847 5.77691 27.031ZM6.24008 5.43221C9.06282 2.60946 12.8156 1.055 16.8076 1.055C20.7998 1.055 24.5524 2.60946 27.3754 5.43221C30.1982 8.25521 31.7526 12.0078 31.7526 16C31.7526 19.9922 30.1982 23.745 27.3754 26.5678C24.5527 29.3905 20.7998 30.945 16.8076 30.945C12.8154 30.945 9.06257 29.3905 6.23983 26.5678C3.41708 23.745 1.86262 19.9922 1.86262 16C1.86262 12.0078 3.41708 8.25521 6.24008 5.43221Z" fill="white" stroke="white" style="fill:white;fill-opacity:1;stroke:white;stroke-opacity:1;" stroke-width="0.2"/>
<path d="M4.61973 16.0001C4.61973 22.7206 10.087 28.1876 16.8072 28.1876C23.5275 28.1876 28.9947 22.7203 28.9947 16.0001C28.9947 9.27987 23.5275 3.8126 16.8072 3.8126C10.087 3.8126 4.61973 9.27962 4.61973 16.0001ZM4.99473 16.0001C4.99473 9.48658 10.294 4.1876 16.8072 4.1876C23.3205 4.1876 28.6197 9.48683 28.6197 16.0001C28.6197 22.5134 23.3205 27.8126 16.8072 27.8126C10.294 27.8126 4.99473 22.5136 4.99473 16.0001Z" fill="white" stroke="white" style="fill:white;fill-opacity:1;stroke:white;stroke-opacity:1;" stroke-width="0.2"/>
<path d="M8.11973 16.0001C8.11973 20.7903 12.017 24.6876 16.8072 24.6876C21.5975 24.6876 25.4947 20.7903 25.4947 16.0001C25.4947 11.2099 21.5975 7.3126 16.8072 7.3126C12.017 7.3126 8.11973 11.2099 8.11973 16.0001ZM8.49473 16.0001C8.49473 11.4166 12.2237 7.6876 16.8072 7.6876C21.3907 7.6876 25.1197 11.4166 25.1197 16.0001C25.1197 20.5836 21.3907 24.3126 16.8072 24.3126C12.2237 24.3126 8.49473 20.5836 8.49473 16.0001Z" fill="white" stroke="white" style="fill:white;fill-opacity:1;stroke:white;stroke-opacity:1;" stroke-width="0.2"/>
<path d="M11.6197 16.0001C11.6197 18.8606 13.9467 21.1876 16.8072 21.1876C19.6677 21.1876 21.9947 18.8606 21.9947 16.0001C21.9947 13.1396 19.6677 10.8126 16.8072 10.8126C13.9467 10.8126 11.6197 13.1396 11.6197 16.0001ZM11.9947 16.0001C11.9947 13.3466 14.1537 11.1876 16.8072 11.1876C19.4607 11.1876 21.6197 13.3466 21.6197 16.0001C21.6197 18.6536 19.4607 20.8126 16.8072 20.8126C14.1537 20.8126 11.9947 18.6536 11.9947 16.0001Z" fill="white" stroke="white" style="fill:white;fill-opacity:1;stroke:white;stroke-opacity:1;" stroke-width="0.2"/>
<path d="M14.8697 16.0001C14.8697 17.0686 15.7387 17.9376 16.8072 17.9376C17.8757 17.9376 18.7447 17.0686 18.7447 16.0001C18.7447 14.9316 17.8757 14.0626 16.8072 14.0626C15.7387 14.0626 14.8697 14.9316 14.8697 16.0001ZM15.2447 16.0001C15.2447 15.1386 15.9457 14.4376 16.8072 14.4376C17.6687 14.4376 18.3697 15.1386 18.3697 16.0001C18.3697 16.8616 17.6687 17.5626 16.8072 17.5626C15.9457 17.5626 15.2447 16.8616 15.2447 16.0001Z" fill="white" stroke="white" style="fill:white;fill-opacity:1;stroke:white;stroke-opacity:1;" stroke-width="0.2"/>
<path d="M27.5727 24.209L17.1019 16.0492L20.1952 16.0495C20.2225 16.0495 20.2488 16.0386 20.2682 16.0192C20.2875 15.9999 20.2984 15.9736 20.2984 15.9462C20.2988 15.5792 20.241 15.2144 20.1274 14.8655L20.1274 14.8652C20.1188 14.8392 20.1003 14.8177 20.0759 14.8053C20.0515 14.793 20.0232 14.7908 19.9972 14.7992L17.0962 15.7415L23.2307 8.04997C23.2477 8.02851 23.2555 8.00116 23.2524 7.97393C23.2493 7.94671 23.2356 7.92181 23.2142 7.90472C22.3706 7.23139 21.4259 6.69553 20.4152 6.31697C20.4025 6.31221 20.3887 6.30999 20.3752 6.31045C20.3616 6.31092 20.3483 6.31405 20.336 6.31967C20.3236 6.32529 20.3125 6.33329 20.3033 6.34321C20.2941 6.35313 20.2869 6.36477 20.2822 6.37747L16.8254 15.5872L13.8814 2.68797C13.8753 2.66123 13.8589 2.63799 13.8357 2.62336C13.8125 2.60874 13.7844 2.60392 13.7577 2.60997C11.6532 3.09091 9.6922 4.06249 8.03465 5.44547L8.03415 5.44597C8.01329 5.46356 8.00025 5.4887 7.99791 5.51589C7.99556 5.54307 8.0041 5.57008 8.02165 5.59097L16.4149 15.6445L6.14415 10.6985C6.11948 10.6866 6.09087 10.685 6.06504 10.6941C6.03921 10.7031 6.01803 10.7221 6.00615 10.7467C4.91165 13.0082 4.55865 15.6145 5.0119 18.0855C5.01695 18.1124 5.03242 18.1362 5.05494 18.1517C5.07746 18.1673 5.10521 18.1733 5.13215 18.1685L16.0692 16.1835L10.6404 18.7977C10.6158 18.8097 10.5966 18.8309 10.5876 18.8568C10.5786 18.8827 10.5803 18.911 10.5922 18.9357C10.7489 19.261 10.9309 19.5734 11.1364 19.8702C11.1523 19.8925 11.1762 19.9078 11.2032 19.9127C11.2301 19.9176 11.2579 19.9118 11.2807 19.8965L16.6409 16.1825L14.8122 24.1947C14.8062 24.2215 14.811 24.2495 14.8255 24.2727C14.8401 24.2959 14.8632 24.3125 14.8899 24.3187C15.5137 24.4612 16.1599 24.533 16.8049 24.533C17.2857 24.5332 17.7654 24.493 18.2394 24.4127C18.2664 24.4081 18.2906 24.393 18.3065 24.3706C18.3223 24.3483 18.3287 24.3205 18.3242 24.2935L16.9699 16.3235L25.1842 26.624C25.2012 26.6454 25.226 26.6591 25.2532 26.6623C25.2804 26.6654 25.3077 26.6577 25.3292 26.6407C26.1702 25.9701 26.9292 25.2027 27.5904 24.3542C27.5988 24.3435 27.605 24.3313 27.6087 24.3182C27.6123 24.3051 27.6133 24.2914 27.6117 24.2779C27.6101 24.2644 27.6058 24.2514 27.5991 24.2395C27.5923 24.2277 27.5834 24.2173 27.5727 24.209Z" fill="white" style="fill:white;fill-opacity:1;"/>
<path d="M16.8947 31.4376L16.9947 31.4376L16.9947 31.3376L16.9947 16.4528L27.4579 26.9159L27.458 26.9161L27.5196 26.9779L27.5903 27.0489L27.6612 26.9781L27.7849 26.8543L27.8556 26.7836L27.7849 26.7129L17.2599 16.1876L32.1447 16.1876L32.2447 16.1876L32.2447 16.0876L32.2447 15.9126L32.2447 15.8126L32.1447 15.8126L17.2599 15.8126L27.7232 5.34956L27.7852 5.28756L27.8559 5.21685L27.7852 5.14614L27.6614 5.02239L27.5907 4.95168L27.52 5.02239L16.9947 15.5474L16.9947 0.662598L16.9947 0.562598L16.8947 0.562598L16.7197 0.562598L16.6197 0.562598L16.6197 0.662598L16.6197 15.5474L6.09469 5.02214L6.02398 4.95143L5.95327 5.02214L5.82952 5.14589L5.75881 5.2166L5.82951 5.28731L16.3546 15.8126L1.46973 15.8126L1.36973 15.8126L1.36973 15.9126L1.36973 16.0876L1.36973 16.1876L1.46973 16.1876L16.3546 16.1876L5.89141 26.6507L5.89127 26.6509L5.82941 26.7125L5.75841 26.7832L5.82927 26.8541L5.95302 26.9778L6.02373 27.0485L6.09444 26.9778L16.6197 16.4528L16.6197 31.3376L16.6197 31.4376L16.7197 31.4376L16.8947 31.4376Z" fill="white" stroke="white" style="fill:white;fill-opacity:1;stroke:white;stroke-opacity:1;" stroke-width="0.2"/>
</g>
<defs>
<clipPath id="clip0_955_519">
<rect width="32" height="32" fill="white" style="fill:white;fill-opacity:1;" transform="translate(0.807617)"/>
</clipPath>
</defs>
</svg>
