<svg width="28" height="32" viewBox="0 0 22 25" fill="none" xmlns="http://www.w3.org/2000/svg">
<path d="M10.9033 24.6069C10.5762 24.6069 10.2441 24.519 9.95606 24.353L6.94336 22.5708C6.49414 22.3169 6.71387 22.229 6.86035 22.1802C7.46094 21.9702 7.58301 21.9263 8.22266 21.5601C8.29102 21.521 8.37891 21.5356 8.44727 21.5796L10.7617 22.9517C10.8447 23.0005 10.9619 23.0005 11.04 22.9517L20.0586 17.7466C20.1416 17.6978 20.1953 17.6001 20.1953 17.5024V7.09229C20.1953 6.98975 20.1416 6.89697 20.0537 6.84326L11.04 1.64307C10.957 1.59424 10.8447 1.59424 10.7617 1.64307L1.75293 6.84814C1.66504 6.89697 1.61133 6.99463 1.61133 7.09717V17.5024C1.61133 17.6001 1.66504 17.6978 1.75293 17.7417L4.22363 19.1675C5.56641 19.8364 6.38672 19.0503 6.38672 18.2544V7.98096C6.38672 7.83447 6.50391 7.72217 6.65039 7.72217H7.79297C7.93457 7.72217 8.05664 7.83447 8.05664 7.98096V18.2593C8.05664 20.0464 7.08008 21.0718 5.38574 21.0718C4.86328 21.0718 4.45313 21.0718 3.31055 20.5054L0.947266 19.1431C0.361328 18.8062 0 18.1763 0 17.4976V7.09229C0 6.41846 0.361328 5.78369 0.947266 5.44678L9.95606 0.241699C10.5273 -0.0805664 11.2842 -0.0805664 11.8506 0.241699L20.8691 5.45166C21.4551 5.78857 21.8164 6.41846 21.8164 7.09717V17.5024C21.8164 18.1763 21.4551 18.8062 20.8691 19.148L11.8506 24.353C11.5625 24.519 11.2354 24.6069 10.9033 24.6069ZM18.1836 14.3481C18.1836 12.3999 16.8652 11.8823 14.0967 11.5161C11.2939 11.145 11.0107 10.9546 11.0107 10.3003C11.0107 9.7583 11.25 9.03564 13.3252 9.03564C15.1758 9.03564 15.8594 9.43603 16.1426 10.686C16.167 10.8032 16.2744 10.8911 16.3965 10.8911H17.5684C17.6416 10.8911 17.71 10.8618 17.7588 10.8081C17.8076 10.7544 17.832 10.6812 17.8271 10.6079C17.6465 8.45459 16.2158 7.45361 13.3252 7.45361C10.752 7.45361 9.21875 8.5376 9.21875 10.3589C9.21875 12.3315 10.7471 12.8784 13.2129 13.1226C16.167 13.4106 16.3965 13.8452 16.3965 14.4263C16.3965 15.4321 15.5859 15.8618 13.6865 15.8618C11.2988 15.8618 10.7764 15.2612 10.6006 14.0747C10.5811 13.9478 10.4736 13.855 10.3418 13.855H9.17481C9.02832 13.855 8.91602 13.9722 8.91602 14.1138C8.91602 15.6323 9.74121 17.4438 13.6914 17.4438C16.543 17.439 18.1836 16.311 18.1836 14.3481Z" fill="white" style="fill:white;fill-opacity:1;"/>
</svg>
