<svg width="33" height="32" viewBox="0 0 33 32" fill="none" xmlns="http://www.w3.org/2000/svg">
<g clip-path="url(#clip0_953_499)">
<path fill-rule="evenodd" clip-rule="evenodd" d="M0.807617 11C0.807617 10.4477 1.25533 10 1.80762 10H31.8076C32.3599 10 32.8076 10.4477 32.8076 11V21.1111C32.8076 21.6634 32.3599 22.1111 31.8076 22.1111H16.444V24C16.444 24.5523 15.9963 25 15.444 25H10.6713C10.119 25 9.67125 24.5523 9.67125 24V22.1111H1.80762C1.25533 22.1111 0.807617 21.6634 0.807617 21.1111V11ZM8.26216 20.1111V15.3333C8.26216 14.781 7.81445 14.3333 7.26216 14.3333C6.70988 14.3333 6.26216 14.781 6.26216 15.3333V20.1111H2.80762V12H9.67125V20.1111H8.26216ZM11.6713 12V23H14.444V21.1111C14.444 20.5588 14.8917 20.1111 15.444 20.1111H17.8531V12H11.6713ZM19.8531 12V20.1111H23.9894V15.3333C23.9894 14.781 24.4372 14.3333 24.9894 14.3333C25.5417 14.3333 25.9894 14.781 25.9894 15.3333V20.1111H27.3985V15.3333C27.3985 14.781 27.8462 14.3333 28.3985 14.3333C28.9508 14.3333 29.3985 14.781 29.3985 15.3333V20.1111H30.8076V12H19.8531ZM15.444 14.3333C15.9963 14.3333 16.444 14.781 16.444 15.3333V16.7778C16.444 17.3301 15.9963 17.7778 15.444 17.7778C14.8917 17.7778 14.444 17.3301 14.444 16.7778V15.3333C14.444 14.781 14.8917 14.3333 15.444 14.3333Z" fill="white" style="fill:white;fill-opacity:1;"/>
</g>
<defs>
<clipPath id="clip0_953_499">
<rect width="32" height="32" fill="white" style="fill:white;fill-opacity:1;" transform="translate(0.807617 -0.000488281)"/>
</clipPath>
</defs>
</svg>
