<svg width="31" height="32" viewBox="0 0 31 32" fill="none" xmlns="http://www.w3.org/2000/svg">
<path d="M13.5303 6.50133L8.18362 3.80267L2.31562 6.73067L7.80628 9.488L13.5303 6.50133ZM15.981 7.73867L21.5876 10.568L15.7703 13.488L10.2703 10.728L15.981 7.73867ZM23.4676 3.84267L29.2276 6.73067L24.0769 9.31733L18.4596 6.484L23.4676 3.84267ZM20.9903 2.6L15.805 6.00453e-07L10.6756 2.56L16.0183 5.25333L20.9903 2.6ZM16.937 24.9253L16.937 32L23.2183 28.8667L23.2116 21.7867L16.937 24.9253ZM23.2089 19.3173L23.2023 12.3133L16.9369 15.428L16.937 22.4333L23.2089 19.3173ZM30.749 18.0053L30.7489 25.108L25.3916 27.7813L25.3889 20.7107L30.749 18.0053ZM30.749 15.5213L30.749 8.56133L25.3823 11.2293L25.3863 18.248L30.749 15.5213ZM14.7196 15.428L10.4876 13.3013L10.4876 22.4947C10.4876 22.4947 5.31428 11.4853 4.83428 10.4973C4.77295 10.3693 4.51828 10.2293 4.45428 10.1947C3.2414 9.56901 2.02583 8.94856 0.807617 8.33333L0.807617 24.5733L4.56762 26.584L4.56762 18.0933C4.56762 18.0933 9.68762 27.9307 9.73828 28.0373C9.79162 28.144 10.305 29.1813 10.8543 29.5467C11.585 30.0307 14.7196 31.9147 14.7196 31.9147L14.7196 15.428Z" fill="white" style="fill:white;fill-opacity:1;"/>
</svg>
