<svg width="67" height="34" viewBox="0 0 67 34" fill="none" xmlns="http://www.w3.org/2000/svg">
<path d="M28.5737 0.447532C28.5246 0.712736 27.4118 6.31517 26.1026 12.9287C24.7934 19.5422 23.6641 25.2607 23.566 25.6419C23.2223 27.1005 23.0586 27.0177 26.0207 27.0177C27.4609 27.0177 28.6392 26.9679 28.6392 26.8851C28.6392 26.8188 29.3102 23.3545 30.1448 19.1776L31.6504 11.6027H34.007C37.7546 11.6027 38.4583 11.9508 38.4583 13.7409C38.4583 14.2547 37.9019 17.4206 37.2309 20.7688C36.56 24.1336 36.0035 26.9016 36.0035 26.9348C36.0035 26.9845 37.2146 27.0177 38.7038 27.0177C40.193 27.0177 41.4041 26.9514 41.4041 26.8851C41.4041 26.8022 41.9932 23.8186 42.7133 20.2384C44.2516 12.5806 44.3498 11.3375 43.5807 9.76283C43.2206 9.05009 42.926 8.75174 42.2223 8.32078C40.6349 7.35942 40.0458 7.24339 36.1345 7.16051C34.1706 7.12736 32.5668 7.06106 32.5668 7.02791C32.5668 6.97818 32.8614 5.48641 33.2215 3.71286C33.5815 1.92273 33.8761 0.364656 33.8761 0.232054C33.8761 0.0497258 33.4015 0 31.274 0H28.6719L28.5737 0.447532Z" fill="white"/>
<path d="M5.15505 7.49202C4.9423 8.40366 0 33.5815 0 33.7638C0 34.0787 5.17142 34.0787 5.26961 33.7638C5.31871 33.6644 5.62965 32.1063 5.97332 30.3161L6.61156 27.0674L9.88461 26.9679C13.1904 26.8851 15.236 26.6033 16.4798 26.0895C19.0491 24.9955 21.6349 21.7633 22.584 18.3985C23.0095 16.8902 23.2059 13.7243 22.9277 12.4646C22.4204 10.0778 21.0293 8.46996 18.6727 7.57489C17.8054 7.24339 17.3799 7.22681 11.5048 7.16051L5.25324 7.11079L5.15505 7.49202ZM14.8924 11.8016C16.9871 12.1497 17.5108 12.7464 17.5108 14.8017C17.5108 18.0339 16.2343 20.9511 14.4669 21.7302C13.4686 22.1777 11.1284 22.5424 9.21363 22.5424C7.54438 22.5424 7.52801 22.5424 7.60984 22.1611C7.77349 21.4152 9.6555 11.8845 9.6555 11.7519C9.6555 11.4204 12.9122 11.4535 14.8924 11.8016Z" fill="white"/>
<path d="M46.5755 20.3544C45.1354 27.6144 43.9407 33.6644 43.8916 33.7638C43.8425 33.9296 44.4317 33.9793 46.51 33.9793H49.2103L49.4721 32.6864C49.6031 31.9903 49.9304 30.4322 50.1759 29.2388L50.6177 27.0674L53.989 26.9679C59.5859 26.7856 61.1406 26.2718 63.5299 23.7192C65.0846 22.0617 66.001 20.4373 66.6393 18.1499C66.9339 17.0725 66.9993 16.4095 66.9993 14.5862C67.0157 11.9839 66.7375 11.0225 65.5592 9.56393C64.7573 8.56941 62.9735 7.55832 61.5497 7.29312C61.0751 7.19366 58.0803 7.12736 54.9218 7.12736H49.1776L46.5755 20.3544ZM59.144 11.8679C60.5023 12.1331 60.9115 12.3817 61.2715 13.1442C61.8443 14.3873 61.4024 17.6858 60.4041 19.6914C59.5531 21.3987 58.5712 21.9788 55.8873 22.3766C54.5126 22.5755 51.5505 22.5921 51.5505 22.4098C51.5505 22.244 53.4489 12.6966 53.5962 12.0668C53.6944 11.669 53.8089 11.6193 54.4635 11.553C55.6091 11.4535 57.8675 11.6027 59.144 11.8679Z" fill="white"/>
</svg>
