<svg width="32" height="32" viewBox="0 0 32 32" fill="none" xmlns="http://www.w3.org/2000/svg">
<path d="M15.8847 0C7.75968 0 8.26632 3.54133 8.26632 3.54133L8.27565 7.21067H16.0273V8.312H5.19978C5.19978 8.312 0 7.71867 0 15.9587C0 24.1987 4.53714 23.9053 4.53714 23.9053H7.2437V20.0827C7.2437 20.0827 7.09837 15.5227 11.7102 15.5227H19.3979C19.3979 15.5227 23.7177 15.592 23.7177 11.3253V4.26933C23.7177 4.26933 24.3737 0 15.8847 0ZM11.6102 2.46667C12.3808 2.46667 13.0048 3.09333 13.0048 3.86933C13.0048 4.644 12.3808 5.27067 11.6102 5.27067C10.8382 5.27067 10.2156 4.644 10.2156 3.86933C10.2156 3.09333 10.8382 2.46667 11.6102 2.46667Z" fill="white" style="fill:white;fill-opacity:1;"/>
<path d="M16.1153 32C24.2377 32 23.731 28.4587 23.731 28.4587L23.7217 24.7893H15.97V23.688H26.8002C26.8002 23.688 32 24.2813 32 16.0413C32 7.80133 27.4615 8.09467 27.4615 8.09467H24.755V11.9173C24.755 11.9173 24.9003 16.4773 20.2885 16.4773H12.6021C12.6021 16.4773 8.28232 16.408 8.28232 20.6747V27.7307C8.28232 27.7307 7.62635 32 16.1153 32ZM20.3898 29.5333C19.6178 29.5333 18.9952 28.9067 18.9952 28.1307C18.9952 27.356 19.6178 26.7293 20.3898 26.7293C21.1605 26.7293 21.7844 27.356 21.7844 28.1307C21.7844 28.9067 21.1605 29.5333 20.3898 29.5333Z" fill="white" style="fill:white;fill-opacity:1;"/>
</svg>
