<svg width="54" height="53" viewBox="0 0 54 53" fill="none" xmlns="http://www.w3.org/2000/svg">
<path d="M54 40.7422C53.9997 47.512 41.9115 53 27 53C12.0885 53 0.00029985 47.512 0 40.7422V34C0 40.7699 12.0883 46.2578 27 46.2578C41.9117 46.2578 54 40.7699 54 34V40.7422ZM54 29.7422C53.9997 36.512 41.9115 42 27 42C12.0885 42 0.00029985 36.512 0 29.7422V23C0 29.7699 12.0883 35.2578 27 35.2578C41.9117 35.2578 54 29.7699 54 23V29.7422ZM27 0C41.9115 0 53.9998 5.61828 54 12.5488V18.4512C53.9998 25.3817 41.9116 31 27 31C12.0884 31 0.000221789 25.3817 0 18.4512V12.5488C0.000222891 5.61828 12.0885 0 27 0Z" fill="white"/>
</svg>
