<svg width="31" height="32" viewBox="0 0 31 32" fill="none" xmlns="http://www.w3.org/2000/svg">
<path fill-rule="evenodd" clip-rule="evenodd" d="M10.0345 6.6974L1.71242 5.20996C1.07144 5.09529 0.587772 5.78044 0.910375 6.346L15.3183 31.6122C15.6143 32.1312 16.3637 32.1282 16.6554 31.6065L30.7832 6.34365C31.1001 5.77692 30.6142 5.09706 29.9753 5.21348L25.6365 6.00429C26.4234 6.59867 26.7912 7.70867 26.2799 8.72886L18.0567 25.1399L17.8547 25.4518C16.5434 27.4777 13.4014 26.1879 13.8893 23.8264L14.735 19.7333C13.3867 19.7721 12.2563 18.5334 12.5456 17.1158L12.9266 15.2496L12.3198 15.3897C11.9896 15.4659 11.6461 15.4641 11.3167 15.3843C10.9874 15.3046 10.6811 15.1492 10.4223 14.9305C10.1635 14.7118 9.95923 14.4357 9.82573 14.1242C9.69227 13.8128 9.63321 13.4746 9.65324 13.1365L10.0345 6.6974Z" fill="white" style="fill:white;fill-opacity:1;"/>
<path d="M22.3901 0.00646779L12.5549 1.92856C12.4763 1.94392 12.4051 1.98488 12.3524 2.04502C12.2997 2.10516 12.2685 2.18105 12.2638 2.26078L11.6588 12.4517C11.6555 12.5076 11.6653 12.5635 11.6874 12.6149C11.7095 12.6664 11.7434 12.712 11.7862 12.7482C11.8291 12.7843 11.8799 12.81 11.9344 12.8231C11.989 12.8363 12.0459 12.8366 12.1006 12.824L14.8389 12.1938C15.0951 12.1348 15.3266 12.3599 15.2739 12.6168L14.4604 16.5901C14.4056 16.8575 14.6573 17.0861 14.9191 17.0067L16.6105 16.4943C16.8726 16.4149 17.1246 16.6442 17.0691 16.9118L15.7763 23.1528C15.6954 23.5433 16.216 23.7561 16.4331 23.4215L16.5782 23.1979L24.5925 7.24623C24.7268 6.97916 24.4952 6.67461 24.2013 6.73126L21.3825 7.27379C21.1177 7.32471 20.8924 7.07869 20.9671 6.82033L22.8068 0.459821C22.8816 0.200794 22.6552 -0.0453377 22.3901 0.00646779Z" fill="white" style="fill:white;fill-opacity:1;"/>
</svg>
