<svg width="534" height="282" viewBox="0 0 534 282" fill="none" xmlns="http://www.w3.org/2000/svg">
<g filter="url(#filter0_i_1130_938)">
<path d="M194.042 142.653L194.179 142.75L194.309 142.855C195.925 144.158 197.422 146.563 196.651 149.544C196.048 151.878 194.33 153.24 193.308 153.894C191.105 155.303 188.129 155.999 185.241 156.027L184.959 156.9L184.956 156.909L184.953 156.918C178.221 177.487 184.742 195.749 200.258 204.074L200.273 204.082L200.288 204.09C206.096 207.255 208.179 208.23 209.623 208.609L209.633 208.612L209.644 208.614C216.203 210.364 219.19 211.106 222.225 211.427C225.296 211.751 228.516 211.657 235.607 211.413L235.616 211.413C249.761 210.95 256.109 209.798 269.183 205.102L269.196 205.097L269.21 205.092C286.475 198.995 307.469 186.148 319.282 174.554L319.293 174.543L319.304 174.532C325.085 168.926 331.033 161.661 335.11 155.548C333.844 154.694 332.545 153.248 332.249 151.061C331.898 148.463 333.202 146.495 334.261 145.421C335.361 144.306 336.736 143.542 338.082 143.014L338.084 143.013C340.323 142.136 342.911 141.847 345.197 141.811C347.563 141.774 350.029 142.002 352.235 142.419C354.332 142.814 356.645 143.462 358.445 144.503C359.279 144.985 360.657 145.917 361.523 147.536C362.004 148.434 362.337 149.571 362.257 150.859C362.19 151.926 361.855 152.852 361.417 153.609C361.357 153.726 361.301 153.83 361.258 153.911C361.186 154.043 361.106 154.189 361.037 154.312L360.994 154.392C360.81 154.725 360.713 154.908 360.667 155.008C359.324 157.891 356.524 158.476 355.361 158.6C353.994 158.745 352.623 158.55 351.501 158.303L351.484 158.3L351.467 158.296C351.443 158.29 351.42 158.285 351.398 158.281C351.151 158.507 350.751 158.934 350.158 159.716C349.452 160.649 348.601 161.913 347.511 163.64C344.031 169.205 338.033 175.995 331.404 182.4C324.724 188.855 317.104 195.206 310.184 199.831L310.167 199.842L310.15 199.853C301.89 205.284 290.42 211.737 284.28 214.151C261.693 223.335 249.904 226.033 230.766 226.033H230.752L230.739 226.033C221.278 225.984 213.934 225.377 207.176 223.594C200.357 221.795 194.423 218.875 187.663 214.573C183.18 211.733 178.223 206.199 174.695 201.264C172.888 198.737 171.274 196.113 170.192 193.763C169.657 192.601 169.172 191.332 168.904 190.068C168.839 189.761 168.769 189.379 168.725 188.945C168.209 188.221 167.906 187.496 167.724 186.988C167.273 185.73 167.039 184.277 166.899 182.965C166.607 180.236 166.584 176.728 166.749 173.167C166.916 169.573 167.282 165.733 167.827 162.296C168.084 160.676 168.398 159.028 168.786 157.483C168.059 157.317 166.998 156.961 166.015 156.13C164.676 154.997 163.872 153.292 163.965 151.417C164.042 149.863 164.71 148.706 165.136 148.087C165.606 147.406 166.155 146.844 166.643 146.404C167.622 145.521 168.867 144.672 170.232 143.864C171.876 142.89 174.026 142.317 175.802 141.95C177.744 141.548 179.92 141.26 182.011 141.097C184.093 140.934 186.225 140.883 188.069 140.996C188.985 141.053 189.937 141.156 190.827 141.342C191.578 141.499 192.872 141.827 194.042 142.653ZM340.183 146.471C340.182 146.471 340.186 146.472 340.196 146.474C340.187 146.472 340.183 146.471 340.183 146.471ZM353.189 153.592C353.185 153.59 353.181 153.588 353.178 153.586C353.24 153.629 353.252 153.629 353.189 153.592ZM188.81 151.653C188.812 151.653 188.792 151.646 188.747 151.636C188.786 151.649 188.808 151.654 188.81 151.653ZM343.861 59.5659L343.986 59.635L344.107 59.7108C345.218 60.407 346.221 61.3108 347.001 62.2683C347.63 63.0397 348.714 64.5655 348.915 66.55C349.575 72.4923 349.321 77.1705 347.536 82.5695C347.14 83.9145 346.75 85.3055 346.44 86.462C346.282 87.0527 346.148 87.57 346.045 87.981C345.994 88.1866 345.954 88.3563 345.923 88.4895C345.919 88.5069 345.915 88.5232 345.912 88.5387C345.796 89.4856 345.527 90.416 345.302 91.1163C345.001 92.0569 344.601 93.1152 344.147 94.2239C343.237 96.4486 342.013 99.106 340.659 101.849C337.968 107.299 334.597 113.42 331.861 117.494C327.003 124.777 322.265 130.235 317.916 133.737C315.742 135.488 313.501 136.884 311.243 137.709C308.993 138.531 306.375 138.907 303.783 138.063C298.116 136.217 296.591 130.344 296.493 125.559C296.387 120.353 297.754 113.627 300.554 105.666C304.734 93.7016 312.933 79.0277 320.531 69.8335L320.55 69.8108L320.569 69.7884C324.229 65.4579 327.886 62.0584 331.529 60.0949C335.281 58.0733 339.707 57.2674 343.861 59.5659ZM273.73 63.3893L273.755 63.4327L273.78 63.4765C276.015 67.5398 276.159 72.4215 275.234 77.65C274.301 82.9272 272.15 89.2738 268.93 96.8514C262.519 111.944 256.532 121.69 248.251 129.553C244.953 132.749 241.621 135.251 238.454 136.633C235.485 137.929 231.086 138.844 227.494 135.921L227.47 135.901L227.446 135.881C222.981 132.159 222.324 126.429 223.123 120.512C223.936 114.498 226.444 106.662 230.433 96.6604C232.493 91.4596 233.927 88.0558 235.812 84.8132C237.694 81.5752 239.945 78.6379 243.425 74.2579L243.437 74.2433L243.448 74.2288C247.418 69.3042 251.165 65.3154 254.557 62.5065C256.255 61.101 257.969 59.9018 259.672 59.0339C261.336 58.1861 263.294 57.4973 265.39 57.4973C266.814 57.4973 267.978 57.9692 268.713 58.3496C269.502 58.7581 270.192 59.2675 270.763 59.7648C271.899 60.753 272.945 62.0242 273.73 63.3893ZM134.061 146.091C118.489 179.538 120.273 207.589 132.497 226.754C144.721 245.919 169.41 259.372 206.317 259.372C243.279 259.372 283.818 245.72 319.338 223.08C354.858 200.44 384.345 169.46 399.94 135.962C415.511 102.515 413.727 74.4638 401.504 55.2992C389.28 36.134 364.59 22.6807 327.684 22.6807C290.722 22.6807 250.183 36.3329 214.662 58.9727C179.142 81.6126 149.656 112.593 134.061 146.091ZM206.491 276.25C165.645 276.25 134.609 261.198 118.381 235.755C102.153 210.311 101.596 175.831 118.831 138.811C136.052 101.82 168.013 68.6251 205.559 44.6941C243.105 20.7631 286.696 5.80298 327.51 5.80298C368.356 5.80298 399.391 20.855 415.619 46.2981C431.848 71.7418 432.405 106.222 415.17 143.242C397.948 180.233 365.987 213.428 328.441 237.359C290.895 261.29 247.304 276.25 206.491 276.25Z" fill="black" stroke="black" style="fill:black;fill-opacity:1;stroke:black;stroke-opacity:1;" stroke-width="10.5"/>
</g>
<defs>
<filter id="filter0_i_1130_938" x="92.8076" y="-6.44702" width="340.386" height="287.947" filterUnits="userSpaceOnUse" color-interpolation-filters="sRGB">
<feFlood flood-opacity="0" result="BackgroundImageFix"/>
<feBlend mode="normal" in="SourceGraphic" in2="BackgroundImageFix" result="shape"/>
<feColorMatrix in="SourceAlpha" type="matrix" values="0 0 0 0 0 0 0 0 0 0 0 0 0 0 0 0 0 0 127 0" result="hardAlpha"/>
<feOffset dx="-8" dy="-7"/>
<feGaussianBlur stdDeviation="9.7"/>
<feComposite in2="hardAlpha" operator="arithmetic" k2="-1" k3="1"/>
<feColorMatrix type="matrix" values="0 0 0 0 0.699722 0 0 0 0 0.673078 0 0 0 0 0.0336111 0 0 0 0.75 0"/>
<feBlend mode="normal" in2="shape" result="effect1_innerShadow_1130_938"/>
</filter>
</defs>
</svg>
