<svg width="141" height="98" viewBox="0 0 141 98" fill="none" xmlns="http://www.w3.org/2000/svg">
<g filter="url(#filter0_i_777_37815)">
<path d="M133.562 0.849415C132.522 1.07707 130.429 1.8824 128.873 2.66735C125.046 4.56007 124.224 7.683 125.991 13.1541C128.081 19.3389 126.66 29.367 122.918 34.9128C114.011 48.1554 95.5488 58.9647 79.601 60.2421C60.8633 61.6791 37.1508 53.1695 17.5605 37.8092L13.8105 34.9078C12.1141 33.5953 9.92425 33.0999 7.82811 33.5544C6.12221 33.9418 3.61771 35.2467 2.42152 36.3137C1.00541 37.5617 0.297498 39.4289 0.53024 41.3021L1.24211 47.0316C2.25122 54.494 2.96139 56.9136 6.56675 63.3635C9.97501 69.5788 12.143 72.1581 18.0184 77.5002C28.539 86.9407 33.344 89.5812 48.048 93.7816C57.7532 96.6126 61.8684 97.3704 67.7948 97.6832C92.6459 98.6488 113.96 91.4145 127.678 77.4516C137.666 67.179 141.319 54.3509 138.744 38.9094C138.136 34.9267 138.258 29.6527 139.346 20.7664C140.131 13.8273 140.542 6.95613 140.27 5.46092C139.557 1.53598 137.266 -0.0170477 133.562 0.849415Z" fill="black" style="fill:black;fill-opacity:1;"/>
</g>
<defs>
<filter id="filter0_i_777_37815" x="0.486328" y="-12.1712" width="146.754" height="109.94" filterUnits="userSpaceOnUse" color-interpolation-filters="sRGB">
<feFlood flood-opacity="0" result="BackgroundImageFix"/>
<feBlend mode="normal" in="SourceGraphic" in2="BackgroundImageFix" result="shape"/>
<feColorMatrix in="SourceAlpha" type="matrix" values="0 0 0 0 0 0 0 0 0 0 0 0 0 0 0 0 0 0 127 0" result="hardAlpha"/>
<feOffset dx="6.88563" dy="-12.7876"/>
<feGaussianBlur stdDeviation="12.2958"/>
<feComposite in2="hardAlpha" operator="arithmetic" k2="-1" k3="1"/>
<feColorMatrix type="matrix" values="0 0 0 0 1 0 0 0 0 0.973333 0 0 0 0 0.333333 0 0 0 0.5 0"/>
<feBlend mode="normal" in2="shape" result="effect1_innerShadow_777_37815"/>
</filter>
</defs>
</svg>
