<svg width="336" height="217" viewBox="0 0 336 217" fill="none" xmlns="http://www.w3.org/2000/svg">
<g filter="url(#filter0_i_777_37769)">
<path fill-rule="evenodd" clip-rule="evenodd" d="M51.5098 59.0723C51.645 58.6361 50.9596 58.351 50.2943 58.5666C31.3186 64.716 10.0639 60.9275 2.82062 50.1048C1.27733 47.7989 0.494639 45.3597 0.402014 42.8892C0.389519 42.5561 0.389589 42.2224 0.402021 41.8884C0.730094 33.0736 9.67654 24.0368 24.064 19.3743L69.143 4.76578C104.036 -6.54184 139.984 8.41271 132.89 31.2844L127.532 48.5545C125.736 54.3448 134.837 58.1307 143.671 55.2681L170.018 46.7298C204.911 35.4222 240.859 50.3767 233.765 73.2484L228.407 90.5186C226.611 96.3089 235.712 100.095 244.546 97.2321L270.893 88.6939C305.786 77.3863 341.734 92.3408 334.64 115.212L325.474 144.761C321.615 157.199 302.322 166.888 282.381 166.402C262.439 165.916 249.401 155.439 253.26 143C253.395 142.564 252.71 142.279 252.044 142.495L206.965 157.103C185.654 164.01 163.948 161.119 151.897 152.611C151.156 152.088 150.451 151.544 149.786 150.979C143.552 145.692 140.724 138.628 143.219 130.585L148.576 113.314C150.372 107.524 141.271 103.738 132.438 106.601L106.09 115.139C84.7785 122.046 63.0729 119.155 51.0215 110.647C50.2745 110.12 49.5646 109.571 48.8941 109.001C42.672 103.716 39.851 96.6568 42.3438 88.6206L51.5098 59.0723Z" fill="black" style="fill:black;fill-opacity:1;"/>
<path d="M325.474 144.761L334.64 115.212L334.64 164.512C334.64 164.978 334.566 165.449 334.42 165.92L325.474 194.761C321.616 207.199 302.322 216.888 282.381 216.402C262.44 215.916 249.402 205.439 253.26 193C253.395 192.564 252.71 192.279 252.045 192.495L206.966 207.103C172.073 218.411 136.124 203.456 143.219 180.585L151.897 152.611C163.948 161.119 185.654 164.01 206.965 157.103L252.044 142.495C252.71 142.279 253.395 142.564 253.26 143C249.401 155.439 262.439 165.916 282.381 166.402C302.322 166.888 321.615 157.199 325.474 144.761Z" fill="black" style="fill:black;fill-opacity:1;"/>
<path d="M50.2943 58.5666C50.9596 58.351 51.645 58.6361 51.5098 59.0723L42.3438 88.6206C39.851 96.6568 42.672 103.716 48.8941 109.001C49.5646 109.571 50.2745 110.12 51.0215 110.647C63.0729 119.155 84.7785 122.046 106.09 115.139L132.438 106.601C141.271 103.738 150.372 107.524 148.576 113.314L143.219 130.585C140.724 138.628 143.552 145.692 149.786 150.979L106.091 165.139C71.5619 176.329 35.9997 161.802 42.136 139.334C42.2646 138.863 42.3441 138.386 42.3441 137.92L42.3441 118.975C42.3441 114.53 35.672 111.815 28.5415 111.43C17.1727 110.815 7.30815 106.81 2.8209 100.105C1.07108 97.4903 0.299071 94.7045 0.40203 91.896L0.402014 42.8892C0.494639 45.3597 1.27733 47.7989 2.82062 50.1048C10.0639 60.9275 31.3186 64.716 50.2943 58.5666Z" fill="black" style="fill:black;fill-opacity:1;"/>
</g>
<defs>
<filter id="filter0_i_777_37769" x="0.392578" y="-31.0933" width="346.15" height="247.513" filterUnits="userSpaceOnUse" color-interpolation-filters="sRGB">
<feFlood flood-opacity="0" result="BackgroundImageFix"/>
<feBlend mode="normal" in="SourceGraphic" in2="BackgroundImageFix" result="shape"/>
<feColorMatrix in="SourceAlpha" type="matrix" values="0 0 0 0 0 0 0 0 0 0 0 0 0 0 0 0 0 0 127 0" result="hardAlpha"/>
<feOffset dx="11" dy="-32"/>
<feGaussianBlur stdDeviation="25"/>
<feComposite in2="hardAlpha" operator="arithmetic" k2="-1" k3="1"/>
<feColorMatrix type="matrix" values="0 0 0 0 1 0 0 0 0 0.973333 0 0 0 0 0.333333 0 0 0 0.5 0"/>
<feBlend mode="normal" in2="shape" result="effect1_innerShadow_777_37769"/>
</filter>
</defs>
</svg>
