<svg width="146" height="161" viewBox="0 0 146 161" fill="none" xmlns="http://www.w3.org/2000/svg">
<g filter="url(#filter0_i_777_37773)">
<path d="M22.9828 32.3512C22.1668 26.4422 27.2204 21.3886 33.1294 22.2046L48.4304 24.3176C51.9122 24.7984 55.3554 23.2083 57.247 20.2458L67.32 4.47067C71.4195 -1.94949 81.1436 -0.691252 83.474 6.56088L83.9872 8.15799C85.6829 13.435 91.6996 15.9397 96.639 13.425L116.869 3.12529C121.322 0.858519 126.768 2.65206 129.003 7.12074L138.474 26.0633C139.751 28.6176 139.74 31.6266 138.444 34.1715L131.103 48.5906C129.335 52.0643 130.003 56.2816 132.76 59.0379L143.255 69.5329C147.322 73.6002 146.582 80.3867 141.734 83.4824L119.271 97.8261C116.308 99.7177 114.718 103.161 115.199 106.643L117.312 121.944C118.128 127.853 113.075 132.906 107.166 132.09L91.8646 129.977C88.3827 129.496 84.9396 131.087 83.0479 134.049L68.7042 156.513C65.6086 161.361 58.8221 162.1 54.7548 158.033L44.2597 147.538C41.5035 144.782 37.2861 144.113 33.8124 145.881L23.4256 151.17C18.9733 153.436 13.5268 151.643 11.2924 147.174L1.82115 128.232C0.543977 125.677 0.554914 122.668 1.85063 120.123L14.2032 95.8608C16.718 90.9214 14.2132 84.9047 8.9362 83.209L7.3391 82.6958C0.0869581 80.3654 -1.17127 70.6413 5.24888 66.5418L21.024 56.4688C23.9865 54.5772 25.5767 51.134 25.0958 47.6522L22.9828 32.3512Z" fill="black" style="fill:black;fill-opacity:1;"/>
</g>
<defs>
<filter id="filter0_i_777_37773" x="0.871094" y="-21.6879" width="156.021" height="182.357" filterUnits="userSpaceOnUse" color-interpolation-filters="sRGB">
<feFlood flood-opacity="0" result="BackgroundImageFix"/>
<feBlend mode="normal" in="SourceGraphic" in2="BackgroundImageFix" result="shape"/>
<feColorMatrix in="SourceAlpha" type="matrix" values="0 0 0 0 0 0 0 0 0 0 0 0 0 0 0 0 0 0 127 0" result="hardAlpha"/>
<feOffset dx="11" dy="-22"/>
<feGaussianBlur stdDeviation="19.2"/>
<feComposite in2="hardAlpha" operator="arithmetic" k2="-1" k3="1"/>
<feColorMatrix type="matrix" values="0 0 0 0 1 0 0 0 0 0.973333 0 0 0 0 0.333333 0 0 0 0.5 0"/>
<feBlend mode="normal" in2="shape" result="effect1_innerShadow_777_37773"/>
</filter>
</defs>
</svg>
