<svg width="48" height="48" viewBox="0 0 48 48" fill="none" xmlns="http://www.w3.org/2000/svg">
<path fill-rule="evenodd" clip-rule="evenodd" d="M23.75 47.5C36.8668 47.5 47.5 36.8668 47.5 23.75C47.5 10.6332 36.8668 0 23.75 0C10.6332 0 0 10.6332 0 23.75C0 36.8668 10.6332 47.5 23.75 47.5ZM28.7178 32.0054C28.6527 32.3309 28.4655 32.4937 28.1563 32.4937C27.8552 32.4937 27.6721 32.3309 27.607 32.0054C27.4523 31.0532 27.2814 30.2842 27.0943 29.6982C26.9152 29.1042 26.6589 28.6403 26.3252 28.3066C25.9997 27.973 25.548 27.7207 24.9702 27.5498C24.3924 27.3708 23.6356 27.2121 22.6997 27.0737C22.3498 27.0086 22.1748 26.8174 22.1748 26.5C22.1748 26.1908 22.3498 26.0117 22.6997 25.9629C23.4647 25.8571 24.1076 25.7391 24.6284 25.6089C25.1493 25.4787 25.5765 25.3078 25.9102 25.0962C26.252 24.8765 26.5246 24.5957 26.7281 24.2539C26.9396 23.9121 27.1105 23.4808 27.2407 22.96C27.371 22.431 27.493 21.7881 27.607 21.0312C27.6558 20.7057 27.8389 20.543 28.1563 20.543C28.4574 20.543 28.6446 20.7098 28.7178 21.0435C28.8399 21.8003 28.966 22.4432 29.0962 22.9722C29.2346 23.493 29.4095 23.9243 29.6211 24.2661C29.8327 24.6079 30.1053 24.8887 30.439 25.1084C30.7808 25.32 31.208 25.4909 31.7207 25.6211C32.2416 25.7513 32.8804 25.8652 33.6372 25.9629C33.979 26.0117 34.1499 26.1908 34.1499 26.5C34.1499 26.8418 33.979 27.033 33.6372 27.0737C32.856 27.1714 32.2049 27.2853 31.6841 27.4155C31.1633 27.5457 30.736 27.7207 30.4024 27.9404C30.0687 28.152 29.8002 28.4328 29.5967 28.7827C29.3933 29.1245 29.2264 29.5599 29.0962 30.0889C28.966 30.6097 28.8399 31.2485 28.7178 32.0054ZM23.188 34.2637C23.1392 34.4915 23.0049 34.6055 22.7852 34.6055C22.5817 34.6055 22.4475 34.4875 22.3823 34.2515C22.3091 33.7795 22.2399 33.4092 22.1748 33.1406C22.1179 32.8721 22.0243 32.6727 21.8941 32.5425C21.772 32.4041 21.5767 32.2983 21.3081 32.2251C21.0396 32.1519 20.6571 32.0786 20.1607 32.0054C19.9003 31.9647 19.77 31.8304 19.77 31.6025C19.77 31.391 19.888 31.2607 20.124 31.2119C20.6286 31.1143 21.0192 31.0288 21.2959 30.9556C21.5726 30.8823 21.772 30.7806 21.8941 30.6504C22.0243 30.512 22.1179 30.3127 22.1748 30.0522C22.2399 29.7918 22.3091 29.4297 22.3823 28.9658C22.4393 28.7217 22.5736 28.5996 22.7852 28.5996C23.0049 28.5996 23.1392 28.7217 23.188 28.9658C23.2613 29.4378 23.3264 29.8081 23.3833 30.0767C23.4484 30.3452 23.5461 30.5487 23.6763 30.687C23.8065 30.8254 24.01 30.9271 24.2866 30.9922C24.5633 31.0573 24.958 31.1305 25.4707 31.2119C25.6905 31.2526 25.8003 31.3828 25.8003 31.6025C25.8003 31.8223 25.6905 31.9565 25.4707 32.0054C24.958 32.0949 24.5633 32.1763 24.2866 32.2495C24.01 32.3228 23.8065 32.4285 23.6763 32.5669C23.5461 32.7052 23.4525 32.9046 23.3955 33.165C23.3386 33.4336 23.2694 33.7998 23.188 34.2637ZM11.335 30.4551C12.1 31.2119 13.1905 31.5903 14.6065 31.5903H16.9746V33.3604C16.9746 34.7682 17.3531 35.8506 18.1099 36.6074C18.8749 37.3643 19.9654 37.7427 21.3814 37.7427H33.6494C35.0655 37.7427 36.1519 37.3643 36.9087 36.6074C37.6737 35.8506 38.0562 34.7682 38.0562 33.3604V21.0435C38.0562 19.6356 37.6737 18.5532 36.9087 17.7964C36.1519 17.0396 35.0655 16.6611 33.6494 16.6611H31.6231V14.5493C31.6231 13.1414 31.2406 12.0591 30.4756 11.3022C29.7188 10.5454 28.6323 10.167 27.2163 10.167H14.6065C13.1905 10.167 12.1 10.5454 11.335 11.3022C10.5781 12.0509 10.1997 13.1333 10.1997 14.5493V27.208C10.1997 28.6159 10.5781 29.6982 11.335 30.4551ZM16.9746 28.1968H15.0093C14.5373 28.1968 14.1792 28.0828 13.9351 27.855C13.6991 27.619 13.5811 27.2528 13.5811 26.7563V14.9888C13.5811 14.4924 13.6991 14.1302 13.9351 13.9023C14.1792 13.6663 14.5373 13.5483 15.0093 13.5483H26.8135C27.2774 13.5483 27.6273 13.6663 27.8633 13.9023C28.1074 14.1302 28.2295 14.4924 28.2295 14.9888V16.6611H21.3814C19.9654 16.6611 18.8749 17.0396 18.1099 17.7964C17.3531 18.5532 16.9746 19.6356 16.9746 21.0435V28.1968Z" fill="white" style="fill:white;fill-opacity:1;"/>
</svg>
