<svg width="48" height="48" viewBox="0 0 48 48" fill="none" xmlns="http://www.w3.org/2000/svg">
<path fill-rule="evenodd" clip-rule="evenodd" d="M24.25 47.5C37.3668 47.5 48 36.8668 48 23.75C48 10.6332 37.3668 0 24.25 0C11.1332 0 0.5 10.6332 0.5 23.75C0.5 36.8668 11.1332 47.5 24.25 47.5ZM24.1288 32.4261C23.7427 32.4555 23.364 32.4702 22.9927 32.4702C21.3 32.4702 19.7375 32.2424 18.3052 31.7866C16.8729 31.339 15.6278 30.6961 14.5698 29.8579C13.5119 29.0116 12.69 27.9943 12.104 26.8062C11.5181 25.618 11.2251 24.2874 11.2251 22.8145C11.2251 22.3099 11.2617 21.8175 11.335 21.3374C11.4082 20.8491 11.51 20.3771 11.6402 19.9214C12.0878 20.0028 12.5028 20.0841 12.8853 20.1655C13.2759 20.2388 13.6096 20.3486 13.8863 20.4951C14.1711 20.6416 14.3827 20.8573 14.521 21.1421C14.4478 21.4106 14.3908 21.6873 14.3501 21.9722C14.3176 22.2489 14.3013 22.5337 14.3013 22.8267C14.3013 23.8765 14.517 24.8083 14.9483 25.6221C15.3877 26.4359 16.0021 27.1276 16.7915 27.6973C17.5891 28.2588 18.529 28.686 19.6114 28.979C20.309 29.1679 21.0473 29.2958 21.8261 29.3629C21.8226 29.2928 21.8208 29.2218 21.8208 29.1499C21.8208 28.2629 22.0772 27.4816 22.5899 26.8062C23.1026 26.1226 23.8065 25.5936 24.7017 25.2192C25.605 24.8368 26.6345 24.6455 27.7901 24.6455C29.084 24.6455 30.2274 24.9263 31.2202 25.4878C31.8706 25.8526 32.4299 26.3085 32.8981 26.8554C33.539 26.2133 34.0661 25.5052 34.4795 24.731C34.9922 23.7707 35.2486 22.7697 35.2486 21.728C35.2486 20.5643 35.0166 19.5104 34.5528 18.5664C34.0889 17.6143 33.4379 16.7964 32.5996 16.1128C31.7614 15.4292 30.7767 14.9043 29.6455 14.5381C28.5143 14.1719 27.2814 13.9888 25.9468 13.9888C25.2388 13.9888 24.5349 14.0457 23.835 14.1597C23.1433 14.2655 22.4678 14.416 21.8086 14.6113C21.3936 14.5055 21.0843 14.3672 20.8809 14.1963C20.6774 14.0254 20.5228 13.7609 20.417 13.4028C20.3194 13.0366 20.2136 12.5199 20.0996 11.8525C21.003 11.5514 21.9429 11.3236 22.9195 11.1689C23.9042 11.0062 24.9092 10.9248 25.9346 10.9248C27.725 10.9248 29.3729 11.1852 30.8784 11.7061C32.3921 12.2188 33.7023 12.9552 34.8091 13.9155C35.924 14.8677 36.7866 16.007 37.397 17.3335C38.0073 18.66 38.3125 20.1289 38.3125 21.7402C38.3125 22.9121 38.0928 24.0433 37.6533 25.1338C37.2139 26.2243 36.6035 27.2375 35.8223 28.1733C35.3589 28.7294 34.8502 29.2431 34.2962 29.7144C34.394 30.1925 34.4429 30.696 34.4429 31.2251C34.4429 32.3563 34.1296 33.4549 33.503 34.521C32.8845 35.5952 32.0422 36.4782 30.9761 37.1699C30.6506 37.4059 30.3088 37.5239 29.9507 37.5239C29.5031 37.5239 29.1328 37.3856 28.8399 37.1089C28.5469 36.8322 28.4004 36.4863 28.4004 36.0713C28.4004 35.762 28.4777 35.4894 28.6323 35.2534C28.7951 35.0174 29.0189 34.7977 29.3037 34.5942C29.9466 34.1629 30.4512 33.6462 30.8174 33.0439C31.1167 32.5689 31.2964 32.0913 31.3564 31.611C30.8633 31.8426 30.354 32.0436 29.8286 32.2139C28.6568 32.6045 27.4605 32.7998 26.2398 32.7998C25.4509 32.7998 24.7472 32.6752 24.1288 32.4261ZM30.4023 28.6763C30.2088 28.4815 29.9891 28.3139 29.7432 28.1733C29.2305 27.8722 28.6364 27.7217 27.961 27.7217C27.3669 27.7217 26.8379 27.7868 26.374 27.917C25.9183 28.0391 25.5562 28.21 25.2876 28.4297C25.0272 28.6413 24.897 28.8813 24.897 29.1499C24.897 29.2964 25.0231 29.4347 25.2754 29.5649C25.5358 29.687 25.8573 29.748 26.2398 29.748C27.3547 29.748 28.4452 29.5283 29.5113 29.0889C29.8168 28.9639 30.1138 28.8263 30.4023 28.6763ZM17.0235 23.5957C17.0804 23.9619 17.2798 24.145 17.6216 24.145C17.9715 24.145 18.175 23.966 18.232 23.6079C18.3703 22.7534 18.5127 22.0332 18.6592 21.4473C18.8057 20.8613 18.9929 20.3812 19.2207 20.0068C19.4486 19.6243 19.7456 19.3192 20.1118 19.0913C20.4781 18.8553 20.9501 18.6681 21.5279 18.5298C22.1057 18.3914 22.8177 18.2653 23.6641 18.1514C23.835 18.1351 23.9693 18.07 24.0669 17.9561C24.1727 17.834 24.2256 17.6956 24.2256 17.541C24.2256 17.1829 24.0384 16.9795 23.6641 16.9307C22.8259 16.8249 22.1219 16.7069 21.5523 16.5767C20.9826 16.4383 20.5106 16.2552 20.1363 16.0273C19.77 15.7995 19.4689 15.4984 19.2329 15.124C19.0051 14.7415 18.8138 14.2573 18.6592 13.6714C18.5127 13.0854 18.3703 12.3571 18.232 11.4863C18.175 11.112 17.9715 10.9248 17.6216 10.9248C17.2798 10.9248 17.0804 11.1079 17.0235 11.4741C16.8851 12.3368 16.7427 13.061 16.5962 13.647C16.4497 14.2329 16.2626 14.7171 16.0347 15.0996C15.8068 15.474 15.5057 15.7751 15.1314 16.0029C14.7652 16.2308 14.2932 16.4139 13.7154 16.5522C13.1376 16.6906 12.4255 16.8167 11.5791 16.9307C11.4164 16.9469 11.2821 17.0161 11.1763 17.1382C11.0705 17.2521 11.0176 17.3864 11.0176 17.541C11.0176 17.6956 11.0705 17.834 11.1763 17.9561C11.2821 18.07 11.4164 18.1351 11.5791 18.1514C12.4092 18.2816 13.1091 18.4199 13.6787 18.5664C14.2484 18.7048 14.7163 18.8838 15.0825 19.1035C15.4569 19.3232 15.758 19.6203 15.9859 19.9946C16.2219 20.369 16.4172 20.8491 16.5718 21.4351C16.7264 22.0129 16.877 22.7331 17.0235 23.5957ZM11.2862 14.7822C11.335 15.0589 11.4855 15.1973 11.7378 15.1973C11.9982 15.1973 12.1488 15.0671 12.1895 14.8066C12.2709 14.2858 12.3441 13.8789 12.4092 13.5859C12.4743 13.293 12.576 13.0732 12.7144 12.9268C12.8609 12.7803 13.0847 12.6663 13.3858 12.585C13.695 12.5036 14.1263 12.4141 14.6797 12.3164C14.9483 12.2676 15.0825 12.117 15.0825 11.8647C15.0825 11.6125 14.9483 11.466 14.6797 11.4253C14.1263 11.3439 13.6991 11.2666 13.398 11.1934C13.0969 11.112 12.8731 10.998 12.7266 10.8516C12.5801 10.6969 12.4743 10.4731 12.4092 10.1802C12.3441 9.88721 12.2709 9.47624 12.1895 8.94727C12.1488 8.67057 11.9982 8.53223 11.7378 8.53223C11.4855 8.53223 11.335 8.67057 11.2862 8.94727C11.2048 9.45996 11.1315 9.86279 11.0664 10.1558C11.0013 10.4406 10.8955 10.6562 10.749 10.8027C10.6026 10.9492 10.3788 11.0632 10.0777 11.1445C9.77656 11.2259 9.34931 11.3195 8.79592 11.4253C8.52737 11.466 8.39309 11.6125 8.39309 11.8647C8.39309 12.1252 8.53551 12.2757 8.82034 12.3164C9.37372 12.4059 9.7969 12.4914 10.0899 12.5728C10.391 12.646 10.6107 12.7599 10.749 12.9146C10.8955 13.061 11.0013 13.2808 11.0664 13.5737C11.1315 13.8586 11.2048 14.2614 11.2862 14.7822ZM15.4121 9.05713C15.4528 9.23617 15.5505 9.32568 15.7051 9.32568C15.8679 9.32568 15.9655 9.23617 15.9981 9.05713C16.0795 8.61768 16.1527 8.30436 16.2178 8.11719C16.291 7.92188 16.4253 7.7876 16.6206 7.71436C16.8159 7.63298 17.1496 7.54346 17.6216 7.4458C17.7844 7.41325 17.8657 7.31966 17.8657 7.16504C17.8657 7.01042 17.7803 6.91276 17.6094 6.87207C17.1374 6.77441 16.8037 6.68896 16.6084 6.61572C16.4131 6.53434 16.2829 6.396 16.2178 6.20068C16.1527 6.00537 16.0795 5.69206 15.9981 5.26074C15.9655 5.08984 15.8679 5.00439 15.7051 5.00439C15.5505 5.00439 15.4528 5.09391 15.4121 5.27295C15.3308 5.69613 15.2534 6.00537 15.1802 6.20068C15.1151 6.396 14.9849 6.53434 14.7896 6.61572C14.5943 6.68896 14.2606 6.77441 13.7886 6.87207C13.6258 6.90462 13.5445 7.00228 13.5445 7.16504C13.5445 7.31152 13.634 7.40511 13.813 7.4458C14.2769 7.53532 14.6065 7.62077 14.8018 7.70215C14.9971 7.77539 15.1273 7.90967 15.1924 8.10498C15.2575 8.30029 15.3308 8.61768 15.4121 9.05713Z" fill="white" style="fill:white;fill-opacity:1;"/>
</svg>
