<svg width="48" height="48" viewBox="0 0 48 48" fill="none" xmlns="http://www.w3.org/2000/svg">
<path fill-rule="evenodd" clip-rule="evenodd" d="M24.25 47.5C37.3668 47.5 48 36.8668 48 23.75C48 10.6332 37.3668 0 24.25 0C11.1332 0 0.5 10.6332 0.5 23.75C0.5 36.8668 11.1332 47.5 24.25 47.5ZM12.5923 17.8574C12.0552 19.1107 11.7866 20.4535 11.7866 21.8857C11.7866 23.318 12.0552 24.6649 12.5923 25.9263C13.1294 27.1795 13.874 28.2822 14.8262 29.2344C15.7783 30.1865 16.881 30.9312 18.1343 31.4683C19.3957 32.0054 20.7425 32.2739 22.1748 32.2739C23.0944 32.2739 23.9774 32.1559 24.8238 31.9199C25.6701 31.6839 26.4595 31.3543 27.1919 30.9312L31.8672 35.6187C32.1276 35.8791 32.4247 36.0703 32.7583 36.1924C33.1001 36.3145 33.4501 36.3755 33.8081 36.3755C34.3127 36.3755 34.7643 36.2575 35.1631 36.0215C35.57 35.7855 35.8874 35.464 36.1153 35.0571C36.3513 34.6584 36.4693 34.2067 36.4693 33.7021C36.4693 33.3522 36.4042 33.0145 36.2739 32.689C36.1519 32.3634 35.9606 32.0705 35.7002 31.8101L31.0738 27.1592C31.5458 26.4023 31.912 25.5763 32.1724 24.6812C32.4409 23.786 32.5752 22.8542 32.5752 21.8857C32.5752 20.4535 32.3026 19.1107 31.7573 17.8574C31.2202 16.596 30.4756 15.4893 29.5235 14.5371C28.5713 13.585 27.4686 12.8403 26.2154 12.3032C24.9621 11.7661 23.6153 11.4976 22.1748 11.4976C20.7425 11.4976 19.3957 11.7661 18.1343 12.3032C16.881 12.8403 15.7783 13.585 14.8262 14.5371C13.874 15.4893 13.1294 16.596 12.5923 17.8574ZM16.0591 24.4614C15.7173 23.6558 15.5464 22.7972 15.5464 21.8857C15.5464 20.9743 15.7173 20.1198 16.0591 19.3223C16.4009 18.5166 16.877 17.8086 17.4873 17.1982C18.0977 16.5879 18.8016 16.1118 19.5991 15.77C20.4048 15.4282 21.2634 15.2573 22.1748 15.2573C23.0944 15.2573 23.953 15.4282 24.7505 15.77C25.5562 16.1118 26.2601 16.5879 26.8623 17.1982C27.4727 17.8086 27.9488 18.5166 28.2906 19.3223C28.6323 20.1198 28.8032 20.9743 28.8032 21.8857C28.8032 22.7972 28.6323 23.6558 28.2906 24.4614C27.9488 25.259 27.4727 25.9629 26.8623 26.5732C26.2601 27.1836 25.5562 27.6597 24.7505 28.0015C23.953 28.3433 23.0944 28.5142 22.1748 28.5142C21.2634 28.5142 20.4048 28.3433 19.5991 28.0015C18.8016 27.6597 18.0977 27.1836 17.4873 26.5732C16.877 25.9629 16.4009 25.259 16.0591 24.4614ZM21.8452 26.4146C21.9429 26.5041 22.0528 26.5488 22.1748 26.5488C22.4515 26.5488 22.6184 26.3983 22.6753 26.0972C22.7648 25.5275 22.8584 25.0433 22.9561 24.6445C23.0619 24.2458 23.1921 23.9162 23.3467 23.6558C23.5013 23.3953 23.7007 23.1878 23.9448 23.0332C24.1971 22.8704 24.5186 22.7402 24.9092 22.6426C25.2998 22.5449 25.7881 22.4554 26.374 22.374C26.6833 22.3333 26.8379 22.1665 26.8379 21.8735C26.8379 21.5968 26.6833 21.4341 26.374 21.3853C25.8044 21.312 25.3242 21.2266 24.9336 21.1289C24.543 21.0312 24.2215 20.9051 23.9693 20.7505C23.717 20.5877 23.5095 20.3761 23.3467 20.1157C23.1921 19.8553 23.0619 19.5298 22.9561 19.1392C22.8584 18.7404 22.7648 18.2562 22.6753 17.6865C22.6265 17.3773 22.4597 17.2227 22.1748 17.2227C21.9063 17.2227 21.7435 17.3773 21.6865 17.6865C21.597 18.2562 21.4994 18.7363 21.3936 19.127C21.2959 19.5176 21.1698 19.8431 21.0152 20.1035C20.8687 20.3639 20.6693 20.5755 20.417 20.7383C20.1647 20.8929 19.8433 21.0231 19.4527 21.1289C19.062 21.2266 18.5738 21.312 17.9878 21.3853C17.6786 21.4341 17.524 21.5968 17.524 21.8735C17.524 22.1665 17.6745 22.3333 17.9756 22.374C18.6999 22.4798 19.2818 22.6019 19.7212 22.7402C20.1607 22.8786 20.5025 23.0739 20.7466 23.3262C20.9907 23.5703 21.1779 23.9162 21.3081 24.3638C21.4383 24.8032 21.5645 25.377 21.6865 26.085C21.7028 26.2152 21.7557 26.325 21.8452 26.4146Z" fill="white" style="fill:white;fill-opacity:1;"/>
</svg>
