<svg width="54" height="60" viewBox="0 0 54 60" fill="none" xmlns="http://www.w3.org/2000/svg">
<path d="M4.21484 56.5693C2.89648 55.2673 2.01758 53.8675 1.57812 52.3701C1.13867 50.8727 1.1224 49.3753 1.5293 47.8779C1.95247 46.3643 2.80697 44.9645 4.09277 43.6787C4.8252 42.9463 5.72852 42.2301 6.80273 41.5303C7.89323 40.8304 9.04069 40.1468 10.2451 39.4795C11.4658 38.8122 12.6458 38.1693 13.7852 37.5508C14.9408 36.9323 15.9417 36.3545 16.7881 35.8174L11.0996 30.1289C10.1393 29.1686 9.65104 28.1514 9.63477 27.0771C9.63477 25.9867 10.0986 24.9694 11.0264 24.0254L13.1016 21.9502C14.0456 21.0225 15.0547 20.5667 16.1289 20.583C17.2031 20.583 18.2285 21.0713 19.2051 22.0479L38.7363 41.6035C39.7129 42.5638 40.2093 43.5729 40.2256 44.6309C40.2419 45.6888 39.778 46.7061 38.834 47.6826L36.7588 49.7578C35.8311 50.6855 34.8219 51.1413 33.7314 51.125C32.641 51.125 31.6156 50.6367 30.6553 49.6602L24.9668 43.9717C24.4297 44.818 23.8519 45.819 23.2334 46.9746C22.6149 48.1302 21.972 49.3102 21.3047 50.5146C20.6374 51.7354 19.9456 52.8828 19.2295 53.957C18.5296 55.0475 17.8216 55.959 17.1055 56.6914C15.8197 57.9772 14.4281 58.8236 12.9307 59.2305C11.4333 59.6536 9.93587 59.6455 8.43848 59.2061C6.94108 58.7666 5.5332 57.8877 4.21484 56.5693ZM10.9043 53.1025C11.7018 53.1025 12.3854 52.8096 12.9551 52.2236C13.5247 51.654 13.8096 50.9622 13.8096 50.1484C13.8096 49.3509 13.5247 48.6673 12.9551 48.0977C12.3854 47.528 11.7018 47.2432 10.9043 47.2432C10.0742 47.2432 9.37435 47.528 8.80469 48.0977C8.23503 48.6673 7.9502 49.3509 7.9502 50.1484C7.9502 50.9622 8.23503 51.654 8.80469 52.2236C9.37435 52.8096 10.0742 53.1025 10.9043 53.1025ZM41.8613 40.5537L19.376 18.0684C19.8154 17.1243 20.263 16.0664 20.7188 14.8945C21.1745 13.7064 21.6383 12.3311 22.1104 10.7686C22.5986 9.20605 23.1195 7.38314 23.6729 5.2998C24.0635 3.80241 24.7227 2.69564 25.6504 1.97949C26.5944 1.26335 27.6035 0.937826 28.6777 1.00293C29.7682 1.05176 30.7285 1.49121 31.5586 2.32129L44.1074 14.8945C43.9447 16.4408 43.6273 17.8161 43.1553 19.0205C42.6833 20.2249 42.0729 21.3398 41.3242 22.3652C40.5918 23.3743 39.7292 24.3672 38.7363 25.3438C38.5898 25.5065 38.5166 25.6855 38.5166 25.8809C38.5166 26.0762 38.5736 26.2308 38.6875 26.3447C39.0293 26.7028 39.6722 26.7598 40.6162 26.5156C41.5602 26.2552 42.6263 25.8158 43.8145 25.1973C45.0026 24.5788 46.1419 23.8626 47.2324 23.0488C48.3229 22.2188 49.1855 21.3968 49.8203 20.583L51.1875 21.9746C52.6198 23.4557 53.3522 25.002 53.3848 26.6133C53.4173 28.2083 52.7256 29.7057 51.3096 31.1055L41.8613 40.5537Z" fill="white" style="fill:white;fill-opacity:1;"/>
</svg>
