<svg width="57" height="57" viewBox="0 0 57 57" fill="none" xmlns="http://www.w3.org/2000/svg">
<path fill-rule="evenodd" clip-rule="evenodd" d="M0.585786 53.002C-0.195262 53.7831 -0.195262 55.0494 0.585786 55.8305C1.36684 56.6115 2.63317 56.6115 3.41421 55.8305L3.41549 55.8292C6.93723 52.3081 11.5743 50.3707 16.7456 48.9698C19.241 48.2938 21.804 47.7565 24.3957 47.2132L24.3957 47.2132L24.669 47.1559C27.3298 46.5979 30.0244 46.0272 32.5738 45.2987C37.6503 43.8482 42.4937 41.6836 45.6979 37.3294C48.8031 33.1099 50.1116 27.1957 49.194 18.8021L55.8186 12.286C56.1988 11.9121 56.4139 11.4017 56.4161 10.8684C56.4183 10.3352 56.2075 9.82306 55.8304 9.44597L51.4003 5.01593L46.9703 0.585886C46.5932 0.208788 46.0811 -0.00208865 45.5478 0.000116265C45.0145 0.00232118 44.5042 0.217421 44.1302 0.59762L37.6142 7.22224C29.2205 6.30469 23.3064 7.61317 19.0868 10.7183C14.7327 13.9225 12.5681 18.766 11.1175 23.8424C10.3891 26.3919 9.8184 29.0864 9.26037 31.7473L9.20306 32.0206L9.20305 32.0206C8.65973 34.6123 8.12241 37.1753 7.44641 39.6707C6.04556 44.8419 4.10815 49.479 0.587068 53.0008L0.585786 53.002ZM15.6997 45.109C14.9643 45.3082 14.2287 45.5203 13.496 45.7487L25.7903 33.4544C26.5257 33.7938 27.3446 33.9832 28.2078 33.9832C31.397 33.9832 33.9824 31.3978 33.9824 28.2085C33.9824 25.0192 31.397 22.4338 28.2078 22.4338C25.0185 22.4338 22.4331 25.0192 22.4331 28.2085C22.4331 29.0716 22.6225 29.8905 22.9619 30.6259L10.6676 42.9203C10.896 42.1875 11.108 41.452 11.3073 40.7166C12.0143 38.1066 12.5728 35.442 13.1096 32.881L13.1097 32.8809L13.1752 32.5683C13.7373 29.888 14.2807 27.3315 14.9636 24.9414C16.3359 20.1388 18.1834 16.3495 21.4576 13.94C24.7023 11.5522 29.7344 10.2443 38.1006 11.3075C38.7201 11.3862 39.3407 11.1711 39.7786 10.726L45.5678 4.84027L48.5719 7.84435L51.576 10.8484L45.6903 16.6377C45.2451 17.0755 45.03 17.6962 45.1087 18.3156C46.1719 26.6819 44.864 31.7139 42.4762 34.9586C40.0667 38.2328 36.2775 40.0804 31.4749 41.4526C29.0848 42.1356 26.5282 42.679 23.848 43.2411L23.5354 43.3066L23.5354 43.3066C20.9743 43.8434 18.3097 44.402 15.6997 45.109Z" fill="white" style="fill:white;fill-opacity:1;"/>
</svg>
