<svg width="74" height="74" viewBox="0 0 74 74" fill="none" xmlns="http://www.w3.org/2000/svg">
<path fill-rule="evenodd" clip-rule="evenodd" d="M37 74C57.4345 74 74 57.4345 74 37C74 16.5655 57.4345 0 37 0C16.5655 0 0 16.5655 0 37C0 57.4345 16.5655 74 37 74ZM15.2322 58.2613C14.2559 57.285 14.2559 55.702 15.2322 54.7257C17.7788 52.1792 19.22 48.7868 20.2859 44.8523C20.8007 42.9517 21.2108 40.9959 21.6322 38.9856L21.6743 38.7848C22.1045 36.7339 22.5518 34.6193 23.1255 32.6117C24.2647 28.6246 26.0127 24.6312 29.6342 21.9661C33.0731 19.4354 37.7691 18.4097 44.1548 19.0371L48.8664 14.2469C49.3339 13.7717 49.9718 13.5028 50.6384 13.5C51.305 13.4973 51.9451 13.7609 52.4165 14.2322L55.8389 17.6546L59.2613 21.077C59.7326 21.5484 59.9962 22.1885 59.9935 22.8551C59.9907 23.5217 59.7218 24.1596 59.2466 24.6271L54.4564 29.3387C55.0838 35.7244 54.0581 40.4204 51.5274 43.8593C48.8623 47.4808 44.8689 49.2287 40.8818 50.368C38.8742 50.9417 36.7596 51.389 34.7087 51.8192L34.5079 51.8613L34.5078 51.8613C32.4976 52.2827 30.5417 52.6928 28.6412 53.2076C24.7072 54.2733 21.3153 55.7143 18.7689 58.2602L18.7678 58.2613C17.7915 59.2376 16.2085 59.2376 15.2322 58.2613ZM33.4322 46.9781L33.4325 46.978L33.6824 46.9256C35.7576 46.4904 37.6997 46.0771 39.5081 45.5604C43.1529 44.519 45.8286 43.1674 47.5003 40.8957C49.1449 38.661 50.1604 35.0554 49.3558 28.7248C49.2574 27.9505 49.5263 27.1746 50.0828 26.6273L53.9433 22.8301L52.3033 21.1901L50.6634 19.5502L46.8662 23.4107C46.3189 23.9672 45.543 24.236 44.7687 24.1376C38.4381 23.3331 34.8325 24.3486 32.5978 25.9932C30.3261 27.6649 28.9745 30.3406 27.9331 33.9854C27.4163 35.7938 27.0031 37.7359 26.5679 39.8111L26.5155 40.0611L26.5155 40.0611C26.2206 41.468 25.9138 42.9314 25.5612 44.3968L32.2863 37.6717C32.1009 37.149 32 36.5863 32 36.0001C32 33.2387 34.2386 31.0001 37 31.0001C39.7614 31.0001 42 33.2387 42 36.0001C42 38.7615 39.7614 41.0001 37 41.0001C36.6956 41.0001 36.3976 40.9729 36.1082 40.9208L29.0967 47.9323C30.562 47.5797 32.0254 47.273 33.4322 46.9781Z" fill="white" style="fill:white;fill-opacity:1;"/>
</svg>
