<svg width="70" height="46" viewBox="0 0 70 46" fill="none" xmlns="http://www.w3.org/2000/svg">
<path d="M37.5 36.9014L31.6162 39.1475C31.2419 39.2777 30.9082 39.1882 30.6152 38.8789C30.3385 38.5859 30.2734 38.2604 30.4199 37.9023L32.8125 32.1895L58.667 6.33496L63.3545 11.0469L37.5 36.9014ZM65.6982 8.75195L60.9375 4.04004L63.5986 1.40332C64.266 0.768555 64.9414 0.426758 65.625 0.37793C66.3249 0.329102 66.9759 0.605794 67.5781 1.20801L68.5303 2.16016C69.1325 2.77865 69.4092 3.42969 69.3604 4.11328C69.3278 4.79688 68.986 5.47233 68.335 6.13965L65.6982 8.75195ZM1.58691 38.9521C1.01725 37.113 0.86263 35.4365 1.12305 33.9229C1.38346 32.4092 1.94499 31.0257 2.80762 29.7725C3.67025 28.5029 4.72005 27.3473 5.95703 26.3057C7.21029 25.264 8.53678 24.3118 9.93652 23.4492C11.3525 22.5703 12.7197 21.7646 14.0381 21.0322C16.2028 19.7952 17.8711 18.778 19.043 17.9805C20.2311 17.1667 21.0124 16.4587 21.3867 15.8564C21.7773 15.238 21.8669 14.6113 21.6553 13.9766C21.4925 13.4395 20.9798 13.0977 20.1172 12.9512C19.2708 12.7884 18.2048 12.7803 16.9189 12.9268C15.6331 13.057 14.2497 13.3255 12.7686 13.7324C11.3037 14.123 9.83887 14.6195 8.37402 15.2217C6.92546 15.8239 5.61523 16.4993 4.44336 17.248C3.85742 17.6061 3.32031 17.7201 2.83203 17.5898C2.36003 17.4434 1.99382 17.1748 1.7334 16.7842C1.48926 16.3773 1.40788 15.9378 1.48926 15.4658C1.57064 14.9775 1.87988 14.5625 2.41699 14.2207C4.19108 13.0326 6.04655 12.0479 7.9834 11.2666C9.93652 10.4691 11.8571 9.89941 13.7451 9.55762C15.6331 9.19954 17.3747 9.07747 18.9697 9.19141C20.5811 9.30534 21.932 9.67155 23.0225 10.29C24.1292 10.8923 24.8698 11.7549 25.2441 12.8779C25.6999 14.4242 25.6185 15.8076 25 17.0283C24.3815 18.249 23.4049 19.3802 22.0703 20.4219C20.752 21.4473 19.2546 22.4401 17.5781 23.4004C15.918 24.3607 14.2578 25.3291 12.5977 26.3057C10.9375 27.266 9.44824 28.2995 8.12988 29.4062C6.8278 30.4967 5.88379 31.7093 5.29785 33.0439C4.71191 34.3786 4.67936 35.8923 5.2002 37.585C5.55827 38.7894 6.34766 39.7253 7.56836 40.3926C8.80534 41.0599 10.3516 41.4342 12.207 41.5156C14.0788 41.6133 16.1377 41.4098 18.3838 40.9053C20.6462 40.4007 22.9899 39.5788 25.415 38.4395L26.9775 41.7842C23.9827 43.2002 21.0856 44.1849 18.2861 44.7383C15.5029 45.3079 12.9557 45.4626 10.6445 45.2021C8.34961 44.958 6.40462 44.307 4.80957 43.249C3.23079 42.2074 2.15658 40.7751 1.58691 38.9521Z" fill="white" style="fill:white;fill-opacity:1;"/>
</svg>
