<svg width="982" height="275" viewBox="0 0 982 275" fill="none" xmlns="http://www.w3.org/2000/svg">
<path d="M322.58 174.793C357.235 161.526 368.477 193.87 381.356 237.087C368.477 193.87 358.84 156.146 393.495 142.879C358.84 156.146 347.597 123.802 334.719 80.5858C347.597 123.802 357.235 161.526 322.58 174.793Z" fill="black" style="fill:black;fill-opacity:1;"/>
<path d="M976.914 140.714C977.849 153.182 971.091 166.361 955.041 179.722C939.028 193.053 914.46 205.932 881.709 217.638C816.258 241.031 723.179 257.947 617.281 265.547C511.435 273.143 399.168 270.975 298.483 259.397C197.692 247.808 114.75 227.505 62.6821 201.978" stroke="#FFF813" style="stroke:#FFF813;stroke:color(display-p3 1.0000 0.9725 0.0745);stroke-opacity:1;" stroke-width="10"/>
<path fill-rule="evenodd" clip-rule="evenodd" d="M429.251 0.920166L418.727 12.4378C406.007 12.9467 393.377 13.5893 380.866 14.3635L377.13 9.21817L374.661 14.7589C331.526 17.5871 289.873 21.9846 250.887 27.8606C183.865 37.9623 126.597 52.1517 83.6898 69.2874L85.5442 73.9308C127.971 56.9869 184.831 42.8731 251.632 32.8048C289.679 27.0704 330.293 22.7471 372.361 19.9225L369.852 25.5525L387.637 23.6876L384.349 19.1605C395.668 18.4814 407.084 17.91 418.574 17.448L430.487 28.3329L441.13 16.6845C450.595 16.424 460.101 16.2373 469.636 16.1254C495.489 15.8218 521.308 16.0706 546.855 16.8592L549.379 26.0757L565.818 26.8472L569.275 17.6929C580.546 18.1836 591.75 18.7801 602.865 19.4814L606.142 26.5188L616.427 27.4237L621.117 20.733C645.388 22.5318 669.176 24.8364 692.259 27.6351C762.087 36.1014 823.389 48.8385 871.278 64.7662L872.856 60.0218C824.555 43.9569 762.904 31.1638 692.861 22.6714C669.491 19.8379 645.404 17.5095 620.829 15.6981L617.994 9.61051L607.71 8.70556L603.634 14.5201C592.877 13.8385 582.037 13.2547 571.134 12.7699L571.632 11.4503L558.786 1.16306L545.032 10.202L545.474 11.8149C520.355 11.061 494.981 10.8274 469.577 11.1257C460.03 11.2378 450.511 11.4246 441.033 11.6853L429.251 0.920166ZM5.08838 145.321C3.74341 127.654 18.0167 108.387 51.7405 89.7157L49.3187 85.3413C15.3783 104.132 -1.48685 124.819 0.102809 145.701C0.897666 156.142 6.29524 166.484 16.0908 176.516C25.8861 186.547 40.0788 196.268 58.4634 205.469C95.2328 223.869 147.72 239.661 211.611 251.547C275.502 263.432 348.973 271.072 425.985 273.838C502.997 276.603 581.351 274.417 654.606 267.457C727.862 260.497 793.928 248.962 847.375 233.802C900.821 218.641 940.121 200.287 962.046 180.248C973.008 170.229 979.47 159.931 981.391 149.573C983.312 139.215 980.692 128.795 973.491 118.532L969.398 121.404C975.975 130.778 978.108 139.856 976.475 148.661C974.817 157.6 969.142 166.989 958.673 176.558C937.628 195.792 899.251 213.889 846.01 228.991C792.932 244.048 727.178 255.539 654.134 262.479C581.104 269.417 502.969 271.599 426.165 268.841C349.356 266.082 276.135 258.464 212.526 246.631C148.861 234.788 96.8829 219.104 60.7011 200.997C42.6101 191.944 28.9417 182.52 19.6682 173.023C10.4036 163.535 5.76701 154.236 5.08838 145.321Z" fill="black" style="fill:black;fill-opacity:1;"/>
</svg>
