<svg width="53" height="57" viewBox="0 0 53 57" fill="none" xmlns="http://www.w3.org/2000/svg">
<path d="M8.50195 56.4736C5.80013 56.4736 3.74121 55.7738 2.3252 54.374C0.925456 52.9906 0.225586 50.9561 0.225586 48.2705V23.1484C0.225586 20.4629 0.925456 18.4284 2.3252 17.0449C3.74121 15.6452 5.80013 14.9453 8.50195 14.9453H43.8779C46.5798 14.9453 48.6305 15.6452 50.0303 17.0449C51.4463 18.4447 52.1543 20.4792 52.1543 23.1484V48.2705C52.1543 50.9398 51.4463 52.9743 50.0303 54.374C48.6305 55.7738 46.5798 56.4736 43.8779 56.4736H8.50195ZM8.94141 51.0537H43.4141C44.472 51.0537 45.2858 50.777 45.8555 50.2236C46.4414 49.6702 46.7344 48.832 46.7344 47.709V23.71C46.7344 22.5869 46.4414 21.7487 45.8555 21.1953C45.2858 20.6419 44.472 20.3652 43.4141 20.3652H8.94141C7.86719 20.3652 7.04525 20.6419 6.47559 21.1953C5.9222 21.7487 5.64551 22.5869 5.64551 23.71V47.709C5.64551 48.832 5.9222 49.6702 6.47559 50.2236C7.04525 50.777 7.86719 51.0537 8.94141 51.0537ZM5.76758 10.9414C5.93034 9.75326 6.34538 8.82552 7.0127 8.1582C7.68001 7.49089 8.68913 7.15723 10.04 7.15723H42.3643C43.7152 7.15723 44.7161 7.49089 45.3672 8.1582C46.0345 8.82552 46.4577 9.75326 46.6367 10.9414H5.76758ZM10.6992 3.69043C10.7806 2.56738 11.1549 1.71289 11.8223 1.12695C12.4896 0.52474 13.4255 0.223633 14.6299 0.223633H37.75C38.9544 0.223633 39.8903 0.52474 40.5576 1.12695C41.2249 1.71289 41.6074 2.56738 41.7051 3.69043H10.6992Z" fill="white" style="fill:white;fill-opacity:1;"/>
</svg>
