<svg width="74" height="74" viewBox="0 0 74 74" fill="none" xmlns="http://www.w3.org/2000/svg">
<path fill-rule="evenodd" clip-rule="evenodd" d="M37 74C57.4345 74 74 57.4345 74 37C74 16.5655 57.4345 0 37 0C16.5655 0 0 16.5655 0 37C0 57.4345 16.5655 74 37 74ZM17.508 53.5555L20.7025 56.75C21.6603 57.6965 22.7082 58.1472 23.8463 58.1021C24.9956 58.0571 26.0379 57.4824 26.9732 56.3781L43.3175 37.245L37.013 30.9405L17.8799 47.2679C16.7643 48.2144 16.184 49.2567 16.139 50.3948C16.0939 51.5441 16.5503 52.5977 17.508 53.5555ZM51.4304 39.4592L52.5291 40.524C53.1375 41.1099 53.7911 41.4142 54.4897 41.4367C55.1996 41.4592 55.8362 41.1888 56.3996 40.6254L61.3012 35.7069C61.8534 35.1548 62.1182 34.5238 62.0956 33.8139C62.0731 33.104 61.7745 32.4505 61.1998 31.8533L60.0843 30.7208C59.6336 30.2701 59.2166 29.9884 58.8335 29.8757C58.4617 29.763 58.0335 29.7292 57.549 29.7743L56.1292 29.9264L55.0982 28.9123L55.5038 27.1376C55.6729 26.3714 55.6165 25.6277 55.3348 24.9065C55.0644 24.1741 54.5573 23.4304 53.8136 22.6754L50.5515 19.4302C49.5261 18.3936 48.3374 17.5541 46.9852 16.9118C45.633 16.2583 44.202 15.8076 42.6921 15.5597C41.1934 15.3005 39.6892 15.2554 38.1792 15.4245C36.6806 15.5935 35.2552 15.9766 33.903 16.5738C32.5621 17.1597 31.3733 17.9767 30.3367 19.0246C29.7958 19.5767 29.4972 20.1683 29.4409 20.7993C29.3958 21.4191 29.5254 21.9656 29.8296 22.4388C30.1226 22.867 30.5395 23.1825 31.0804 23.3853C31.6325 23.5769 32.2635 23.5825 32.9734 23.4022C34.3594 23.0191 35.689 22.7994 36.9623 22.743C38.2468 22.6867 39.3736 22.929 40.3427 23.4698L39.4976 25.6671C39.1596 26.546 39.0525 27.346 39.1765 28.0672C39.3117 28.7771 39.6948 29.4532 40.3258 30.0954L43.5541 33.3406C44.2189 34.0167 44.8837 34.4731 45.5485 34.7097C46.2246 34.9351 46.9514 34.9745 47.7289 34.828L49.5881 34.4224L50.636 35.4365L50.4332 36.8901C50.3656 37.3521 50.3938 37.7802 50.5177 38.1746C50.6417 38.5577 50.9459 38.9859 51.4304 39.4592Z" fill="white" style="fill:white;fill-opacity:1;"/>
</svg>
