<svg width="2028" height="113" viewBox="0 0 2028 113" fill="none" xmlns="http://www.w3.org/2000/svg">
<g clip-path="url(#clip0_1062_804)">
<g filter="url(#filter0_i_1062_804)">
<path d="M135.847 39.6824C92.5091 69.9253 34.2618 69.9253 -9.07637 39.6824C-52.4145 9.43957 -110.662 9.43958 -154 39.6824V150H2163.86V39.6821C2120.53 69.925 2062.28 69.925 2018.94 39.6821C1975.6 9.43929 1917.58 9.4393 1874.25 39.6821C1830.91 69.925 1772.66 69.925 1729.32 39.6821C1685.98 9.43929 1627.74 9.43959 1584.4 39.6824C1541.06 69.9253 1482.81 69.9253 1439.48 39.6824C1396.14 9.43958 1338.12 9.43959 1294.78 39.6824C1251.44 69.9253 1193.19 69.9253 1149.86 39.6824C1106.52 9.43958 1048.27 9.43929 1004.93 39.6821C961.594 69.925 903.347 69.925 860.009 39.6821C816.671 9.43928 758.652 9.43929 715.313 39.6821C671.975 69.925 613.728 69.925 570.39 39.6821C527.052 9.43928 468.804 9.43958 425.466 39.6824C382.128 69.9253 323.881 69.9253 280.542 39.6824C237.204 9.43957 179.185 9.43958 135.847 39.6824Z" fill="black" style="fill:black;fill-opacity:1;"/>
</g>
</g>
<defs>
<filter id="filter0_i_1062_804" x="-192" y="17" width="2355.87" height="142" filterUnits="userSpaceOnUse" color-interpolation-filters="sRGB">
<feFlood flood-opacity="0" result="BackgroundImageFix"/>
<feBlend mode="normal" in="SourceGraphic" in2="BackgroundImageFix" result="shape"/>
<feColorMatrix in="SourceAlpha" type="matrix" values="0 0 0 0 0 0 0 0 0 0 0 0 0 0 0 0 0 0 127 0" result="hardAlpha"/>
<feOffset dx="-38" dy="9"/>
<feGaussianBlur stdDeviation="29"/>
<feComposite in2="hardAlpha" operator="arithmetic" k2="-1" k3="1"/>
<feColorMatrix type="matrix" values="0 0 0 0 0.699722 0 0 0 0 0.673078 0 0 0 0 0.0336111 0 0 0 0.75 0"/>
<feBlend mode="normal" in2="shape" result="effect1_innerShadow_1062_804"/>
</filter>
<clipPath id="clip0_1062_804">
<rect width="2028" height="113" fill="white" style="fill:white;fill-opacity:1;"/>
</clipPath>
</defs>
</svg>
