<svg width="104" height="77" viewBox="0 0 104 77" fill="none" xmlns="http://www.w3.org/2000/svg">
<path fill-rule="evenodd" clip-rule="evenodd" d="M29.7212 2.91147L29.5454 3.47242H30.1376V4.11294L29.4156 3.88668L29.1156 3.79268L28.0937 3.47242V4.54341V4.77305V5.61439L27.4825 5.42285L27.6861 4.77305H27.0717H26.0497V3.47242V0.689941L28.7049 1.52199L30.0268 1.93625L29.7212 2.91147ZM28.0937 7.37431H27.0717H26.0497V9.97557H27.0717H28.0937V7.37431ZM28.0937 12.5768H27.0717H26.0497V15.1781H27.0717H28.0937V12.5768ZM28.0937 17.7794H27.7455L27.5652 17.1055L25.9807 17.5297L26.0497 17.7876V19.08H26.3957L26.5092 19.5041L28.0937 19.08V17.7794ZM23.3402 20.3523L23.076 19.3651L22.8117 18.3779L19.6427 19.2261L19.907 20.2134L20.1712 21.2006L23.3402 20.3523ZM17.0022 22.0488L16.738 21.0616L16.4737 20.0744L13.3048 20.9226L13.569 21.9098L13.8333 22.8971L17.0022 22.0488ZM11.1518 23.6148L10.801 23.067L10.5293 23.241L10.4 22.7581L10.1358 21.7708L8.55131 22.195L5.85093 22.9178L7.35861 25.2718L8.36643 26.8453L9.22702 26.2941L9.58685 26.0637L9.60831 26.1439L10.2367 25.9757L10.0876 25.743L9.65824 25.0725L9.07981 24.1694L10.1158 23.8921L10.6643 23.7453L11.1518 23.6148ZM12.1032 28.89L11.2426 29.4412L10.3821 29.9924L12.3977 33.1395L13.2583 32.5883L14.1189 32.0371L12.1032 28.89ZM16.1345 35.1842L15.5193 35.5783L15.4889 35.5562L15.4323 35.6339L15.2739 35.7354L14.4133 36.2866L15.4211 37.8601L15.9074 37.5487L16.3394 37.8626L17.1423 36.7578L16.1345 35.1842ZM14.7335 40.0723L13.9068 39.4715L13.08 38.8707L11.4742 41.0805L12.3009 41.6813L13.1276 42.2821L14.7335 40.0723ZM11.5217 44.4918L10.695 43.891L9.8683 43.2902L8.26242 45.4999L9.08915 46.1007L9.91587 46.7015L11.5217 44.4918ZM8.30999 48.9112L7.48327 48.3104L6.65655 47.7096L5.05067 49.9194L5.8774 50.5202L6.70412 51.121L8.30999 48.9112ZM5.78071 52.3916H4.29531V52.7472L4.27152 52.7299L3.4448 52.1291L2.64186 53.2339L0.283203 56.4795H4.29531H5.98982V55.5807L6.75169 54.5323L6.61856 54.4355H5.98982H5.55866H4.29531L5.03801 53.4136L5.09824 53.3307L5.78071 52.3916ZM9.37884 54.4355V55.4575V56.4795H12.7679V55.4575V54.4355H9.37884ZM16.1569 54.4355V55.4575V56.4795H19.5459V55.4575V54.4355H16.1569ZM22.9349 54.4355V55.4575V56.4795H23.6993L24.0113 56.8376L24.4224 56.4795H24.6294V56.2991L24.7819 56.1663L25.5524 55.495L24.6294 54.4355H22.9349ZM27.3984 57.6138L26.6279 58.2852L25.8573 58.9565L27.7033 61.0754L28.4739 60.404L29.2444 59.7327L27.3984 57.6138ZM31.0904 61.8516L30.3199 62.5229L29.5493 63.1942L31.3953 65.3131L32.1659 64.6418L32.9364 63.9704L31.0904 61.8516ZM34.7824 66.0893L34.0119 66.7606L33.2413 67.432L34.1643 68.4914L35.0183 69.4716L36.2681 69.1137L37.837 68.6645L37.5557 67.682L37.2744 66.6995L35.7054 67.1487L34.7824 66.0893ZM40.4122 65.801L40.6935 66.7835L40.9748 67.766L44.1127 66.8676L43.8314 65.8851L43.5501 64.9026L40.4122 65.801ZM46.6879 64.0041L46.9692 64.9866L47.2506 65.9691L50.3884 65.0706L50.1071 64.0881L49.8258 63.1056L46.6879 64.0041ZM52.9636 62.2072L53.245 63.1897L53.5263 64.1721L54.283 63.9555L54.8893 64.2907L55.3837 63.3963L55.8782 62.5019L54.5326 61.7579L52.9636 62.2072ZM58.5695 63.9898L58.075 64.8842L57.5806 65.7785L60.2718 67.2664L60.7663 66.3721L61.2608 65.4777L58.5695 63.9898ZM63.9521 66.9656L63.4576 67.86L62.9631 68.7543L65.6544 70.2422L66.1489 69.3478L66.6433 68.4535L63.9521 66.9656ZM69.3346 69.9414L68.8402 70.8357L68.3457 71.7301L71.037 73.218L71.5314 72.3236L72.0259 71.4293L69.3346 69.9414ZM74.2142 72.6391L74.0824 73.1554L74.5232 73.268L74.2227 73.8115L73.7282 74.7059L75.0739 75.4499L77.3889 76.7297L78.0433 74.1667L78.4523 72.5646L77.4621 72.3118L76.8896 72.1656L77.0518 71.8723L76.5854 71.6145L76.4719 72.059L76.3241 72.6378L76.0628 73.6611L75.1385 73.1501L74.7172 72.9171L74.2142 72.6391ZM77.29 68.8547L78.2802 69.1075L79.2704 69.3604L80.0885 66.1561L79.0983 65.9033L78.1081 65.6505L77.29 68.8547ZM78.9262 62.4462L79.9164 62.699L80.9066 62.9518L81.7247 59.7476L80.7345 59.4948L79.7443 59.2419L78.9262 62.4462ZM80.5624 56.0377L81.4618 56.2673L81.5 56.41L81.7542 56.342L82.5429 56.5433L82.6559 56.1006L83.0845 55.9859L82.8801 55.2224L82.9519 54.9412L82.7941 54.9009L82.556 54.0114L80.9715 54.4355L80.5624 56.0377ZM85.7249 53.1632L85.9892 54.1504L86.2534 55.1376L89.4224 54.2894L89.1582 53.3022L88.8939 52.315L85.7249 53.1632ZM92.0629 51.4667L92.3271 52.4539L92.5914 53.4412L95.7604 52.5929L95.4961 51.6057L95.2319 50.6185L92.0629 51.4667ZM97.7066 49.9561L98.5384 50.7897L98.6452 50.6832L98.6651 50.7575L98.9294 51.7447L100.514 51.3206L103.93 50.4061L101.432 47.9025L100.386 46.8535L99.6622 47.5753L99.5431 47.6941L99.4568 47.3717L98.3192 47.6762L98.9387 48.2971L99.1523 48.5111L99.9853 49.3461L98.846 49.6511L98.4009 49.7702L97.7066 49.9561ZM96.8455 46.199L97.569 45.4772L98.2925 44.7554L96.1993 42.6573L95.4758 43.3792L94.7523 44.101L96.8455 46.199ZM92.6591 42.0029L93.3826 41.2811L94.106 40.5593L92.0128 38.4612L91.2893 39.183L90.5659 39.9049L92.6591 42.0029ZM88.4726 37.8068L88.4751 37.8044L88.873 38.2014L89.9196 37.1524L89.5241 36.7578L89.9196 36.3632L88.873 35.3141L88.4751 35.7112L88.4726 35.7087L87.426 36.7578L87.4262 36.758L88.4726 37.8068ZM90.5658 33.6107L91.2893 34.3325L92.0128 35.0543L94.106 32.9562L93.3826 32.2344L92.6591 31.5126L90.5658 33.6107ZM94.7523 29.4146L95.4758 30.1364L96.1992 30.8582L98.2925 28.7601L97.569 28.0383L96.8455 27.3165L94.7523 29.4146ZM98.3192 25.8394L99.4568 26.1439L99.5431 25.8215L99.6622 25.9403L100.386 26.6621L101.432 25.613L103.93 23.1094L100.514 22.195L98.9293 21.7708L98.6651 22.7581L98.6452 22.8324L98.5384 22.7258L97.7066 23.5595L98.4008 23.7453L98.846 23.8644L99.9853 24.1694L99.1523 25.0044L98.9387 25.2184L98.3192 25.8394ZM95.2319 22.8971L95.4961 21.9098L95.7604 20.9226L92.5914 20.0744L92.3271 21.0616L92.0629 22.0488L95.2319 22.8971ZM88.8939 21.2006L89.1582 20.2134L89.4224 19.2261L86.2534 18.3779L85.9892 19.3651L85.7249 20.3523L88.8939 21.2006ZM82.556 19.5041L82.6695 19.08H83.0154V17.7876L83.0845 17.5297L81.5 17.1055L81.3196 17.7794H80.9715V19.08L82.556 19.5041ZM80.9715 15.1781H81.9935H83.0154V12.5768H81.9935H80.9715V15.1781ZM80.9715 9.97558H81.9935H83.0154V7.37432H81.9935H80.9715V9.97558ZM80.9715 5.61439L81.5827 5.42285L81.3791 4.77306H81.9935H83.0154V3.47242V0.689941L80.3603 1.52199L79.0383 1.93625L79.3439 2.91147L79.5197 3.47242H78.9275V4.11294L79.6495 3.88668L79.9495 3.79268L80.9715 3.47242V4.54341V4.77306V5.61439ZM77.0056 4.7152L76.7 3.73999L76.3944 2.76477L73.7505 3.59329L74.0562 4.56851L74.3618 5.54372L77.0056 4.7152ZM71.7179 6.37224L71.4123 5.39702L71.1067 4.42181L68.4628 5.25033L68.7684 6.22554L69.074 7.20076L71.7179 6.37224ZM66.4301 8.02928L66.1245 7.05406L65.8189 6.07885L63.175 6.90736L63.4806 7.88258L63.7862 8.85779L66.4301 8.02928ZM61.1423 9.68631L60.8367 8.7111L60.5311 7.73588L57.8872 8.5644L58.1928 9.53962L58.4984 10.5148L61.1423 9.68631ZM55.8545 11.3434L55.5489 10.3681L55.2433 9.39292L54.5326 9.61565L53.8218 9.39292L53.5162 10.3681L53.2106 11.3434L54.5326 11.7576L55.8545 11.3434ZM50.5667 10.5148L50.8723 9.53962L51.1779 8.5644L48.5341 7.73588L48.2285 8.7111L47.9228 9.68631L50.5667 10.5148ZM45.279 8.8578L45.5846 7.88258L45.8902 6.90736L43.2463 6.07885L42.9407 7.05406L42.6351 8.02928L45.279 8.8578ZM39.9912 7.20076L40.2968 6.22554L40.6024 5.25033L37.9585 4.42181L37.6529 5.39702L37.3473 6.37224L39.9912 7.20076ZM34.7034 5.54372L35.009 4.56851L35.3146 3.59329L32.6707 2.76477L32.3651 3.73999L32.0595 4.7152L34.7034 5.54372ZM33.2206 9.02959L54.226 15.5204L75.2313 9.02959L77.2753 8.398V10.5373V21.815L91.5566 25.5845L93.8515 26.1902L92.1634 27.8586L87.6255 32.3436L87.9417 29.1573L89.8686 27.2529L88.0077 26.7617C87.6992 25.4068 86.5551 24.3382 85.0966 24.1924L75.2313 23.2062V21.815V11.1689L54.8294 17.4732L54.226 17.6597L53.6225 17.4732L33.2206 11.1689V21.815V23.3895L31.6983 23.7913L17.8532 27.4456L22.0349 33.8837C22.2288 35.6437 22.4137 37.4005 22.5894 39.1542L14.4749 50.1645H23.2149C23.2142 50.2939 23.2132 50.4234 23.2119 50.5529L23.1952 52.2084H12.9685H10.4294L11.9358 50.1645L21.6293 37.0117L15.7726 27.9947L14.6005 26.1902L16.6811 25.641L31.1767 21.815V10.5373V8.398L33.2206 9.02959ZM26.5325 48.8675H31.7482C32.0567 48.6927 32.3575 48.5091 32.6506 48.3167C33.3286 47.8581 33.9495 47.3589 34.5132 46.819C34.7841 46.555 35.0328 46.2846 35.2594 46.0077L35.1393 45.8736H33.8007H26.4546C26.4743 46.331 26.4904 46.7889 26.503 47.2474C26.5178 47.7866 26.5276 48.3267 26.5325 48.8675ZM26.5349 50.1645H28.1566H28.714C28.5991 50.1983 28.4843 50.2304 28.3699 50.2608C27.7275 50.4312 27.1147 50.538 26.5316 50.5812C26.533 50.4422 26.5341 50.3033 26.5349 50.1645ZM26.441 45.571L30.0174 40.7793C30.0139 40.7215 30.01 40.6626 30.006 40.6026C29.9988 40.4978 29.9908 40.3897 29.9819 40.2782C29.9744 40.1841 29.9663 40.0876 29.9575 39.9888C29.953 39.9383 29.9484 39.8871 29.9436 39.8353C30.0085 39.7995 30.067 39.7747 30.1191 39.7609L30.3535 39.6987C30.4767 39.666 30.6059 39.64 30.741 39.6208C30.7919 39.6136 30.8436 39.6073 30.8961 39.602L31.2086 39.1833L32.4643 37.501L31.3106 35.7472L31.1917 35.5663C31.1474 35.5978 31.1022 35.6293 31.0561 35.6608C31.019 35.6862 30.9814 35.7116 30.9431 35.737C30.9349 35.7425 30.9266 35.748 30.9183 35.7534C30.902 35.7642 30.8856 35.775 30.869 35.7858L30.812 35.8228L30.7623 35.8546C30.7132 35.8859 30.6639 35.9167 30.6144 35.947C30.5679 35.9756 30.5212 36.0036 30.4745 36.0312C30.4457 36.0482 30.4168 36.065 30.3879 36.0817C30.366 36.0943 30.344 36.1069 30.322 36.1193C30.3116 36.1252 30.3013 36.131 30.291 36.1368L30.2896 36.1376L30.289 36.1379L30.2322 36.1695C30.0599 36.2645 29.886 36.3535 29.7106 36.4364L29.6918 36.4453L29.6914 36.4409L29.6876 36.3985C29.6688 36.1914 29.6496 35.9522 29.6299 35.6811C29.6294 35.6374 29.6287 35.5938 29.6277 35.5502C29.6224 35.2981 29.6107 35.0477 29.5927 34.7989C29.5874 34.7345 29.5818 34.6709 29.5761 34.6082C29.5544 34.37 29.5302 34.1441 29.5034 33.9305L29.4994 33.8655C29.4843 33.6185 29.4695 33.4028 29.4552 33.2185L29.6188 33.1751L28.2308 31.065L34.5346 29.422C34.2505 29.2 33.9439 29.029 33.6146 28.9091C33.1421 28.7371 32.649 28.6635 32.1354 28.6883C31.6218 28.713 31.1479 28.783 30.7139 28.8981C29.6721 29.1745 28.6856 29.5198 27.7544 29.9341C27.1904 30.1734 26.6414 30.4188 26.1075 30.6703C26.0793 30.6836 26.051 30.6969 26.0228 30.7103C25.9928 30.7245 25.9628 30.7388 25.9329 30.753C25.6414 30.892 25.3544 31.0328 25.072 31.1754C25.0967 31.3913 25.1213 31.6071 25.1458 31.823L25.1716 31.8623L28.8093 37.3925L26.1086 41.0109C26.2592 42.5246 26.37 44.0446 26.441 45.571ZM23.0905 45.0547C23.1596 46.3206 23.2003 47.5916 23.2124 48.8675H20.2447L22.4793 45.8736L23.0905 45.0547ZM55.6101 23.7227L54.6099 24.0279L53.7362 24.2945L52.8624 24.0279L39.1042 19.8299V25.9174V28.2311L38.1217 28.4872C37.8741 28.0911 37.5765 27.713 37.2194 27.367C36.7038 26.8532 36.1145 26.4191 35.4548 26.0883L36.1102 25.9174V18.9164V15.7862L39.1042 16.6997L53.7362 21.1643L68.3682 16.6997L71.3621 15.7862V18.9164V22.8194L69.1167 22.5949C68.8622 22.5695 68.6116 22.5735 68.3682 22.6042V19.8299L58.43 22.8623C57.4492 23.0218 56.5064 23.3087 55.6101 23.7227ZM69.8365 28.6138L70.607 28.8146L78.1528 30.7812L74.324 34.5179L73.8039 39.7595L77.6798 43.5422L77.7302 43.0347L78.0583 39.728L77.8084 39.4842L75.6651 37.3925L77.8084 35.3008L78.5715 34.5561L78.644 33.8249L78.972 30.5197L80.1785 30.6403L79.9206 33.2394L81.5359 31.663L84.038 29.2211L80.6549 28.3394L72.8556 26.3067L72.0937 26.2305L68.7887 25.9001L68.7628 26.1612L68.6946 26.849C69.1332 27.4057 69.5145 27.9947 69.8365 28.6138ZM68.2932 48.7673L66.1587 56.9076L55.1553 50.9844L54.0936 50.4129L52.9321 50.7367L42.1743 53.7359L37.4919 48.5028C37.2799 48.7414 37.058 48.9731 36.8272 49.1981L36.8167 49.2083L36.8062 49.2183C36.3252 49.679 35.8151 50.112 35.2775 50.5179L41.1847 57.12L53.7362 53.6207L65.3774 59.8872L68.0897 61.3473L68.871 58.3677L71.3093 49.0688L68.2932 48.7673ZM71.4661 45.7465L71.9776 45.6132L71.9594 45.7958L71.4661 45.7465ZM72.6683 38.6512L72.9449 35.8638L71.3785 37.3925L72.6683 38.6512ZM73.2562 45.2799L73.1928 45.9191L74.0973 46.0095L75.2644 46.1262L75.3038 46.1301L76.4977 46.2495L77.4023 46.3399L77.6203 44.1425L73.2562 45.2799ZM79.1692 40.8122L78.9367 43.1553L78.6088 46.4605L79.5401 46.5536L80.0464 46.6042L80.6549 46.4456L82.9478 45.848L83.0698 44.6189L81.5359 43.122L79.1692 40.8122ZM83.4826 40.459L81.4655 38.4655L79.9947 37.0117L81.4655 35.558L84.241 32.8148L83.9249 36.0011L82.9023 37.0117L83.7422 37.8418L83.4826 40.459ZM86.0444 47.7799L89.8686 46.7706L86.5222 43.4632L86.7819 40.8461L92.1634 46.1649L93.8515 47.8333L91.5566 48.439L77.2753 52.2084L73.5242 66.6956L72.996 68.7356L71.1458 67.727L54.226 58.5031L37.8126 63.1373L29.2626 53.4602C29.9671 53.2711 30.6668 53.0326 31.3612 52.7484L38.4936 60.8211L53.6706 56.536L54.4726 56.3096L55.2043 56.7085L71.674 65.687L75.2966 51.6961L75.5966 50.5375L76.7537 50.2321L78.455 49.7831L82.5171 50.1892C84.1478 50.3522 85.6199 49.3064 86.0444 47.7799Z" fill="black" style="fill:black;fill-opacity:1;"/>
<path fill-rule="evenodd" clip-rule="evenodd" d="M46.7233 29.8978L46.0376 30.16C46.6438 29.739 47.2385 29.412 47.8215 29.179C48.4036 28.9373 49.0985 28.7579 49.9063 28.641C49.5246 27.8276 49.1473 27.252 48.7743 26.9143C48.4005 26.5678 47.9041 26.4292 47.2852 26.4986C46.5268 26.5835 45.5811 27.0469 44.448 27.8888C43.3139 28.722 42.2147 29.7895 41.1504 31.0914C40.0938 32.3837 39.2533 33.793 38.6287 35.3193C38.0119 36.8359 37.783 38.309 37.942 39.7387C38.0602 40.8022 38.3247 41.7126 38.7355 42.4697C39.1539 43.2172 39.6741 43.768 40.2959 44.1219C40.9255 44.4662 41.6195 44.5959 42.3779 44.511C43.4064 44.3957 44.497 43.9249 45.6495 43.0985C46.8097 42.2625 47.767 41.2285 48.5214 39.9965C49.0733 39.0874 49.5367 38.1352 49.9114 37.14C50.2862 36.1448 50.5495 35.1797 50.7015 34.2448C50.8612 33.3001 50.9018 32.4747 50.8233 31.7686C50.7729 31.3153 50.6348 30.9071 50.4091 30.544C50.1912 30.1713 49.8865 29.8921 49.4952 29.7064C49.1126 29.5198 48.6685 29.4548 48.163 29.5115C47.9276 29.5378 47.686 29.587 47.438 29.6589C47.1988 29.7298 46.9605 29.8095 46.7233 29.8978ZM41.4632 35.9285C41.9755 34.8208 42.5003 33.9058 43.0378 33.1836C42.4636 34.5278 42.1436 35.6183 42.0778 36.4554C42.7702 35.1421 43.2384 34.313 43.4824 33.9679C44.171 33.017 44.9162 32.2583 45.7181 31.6918C46.52 31.1254 47.2173 30.8089 47.81 30.7425C48.5771 30.6566 49.0145 31.0975 49.1221 32.0651C49.2684 33.3815 48.9344 34.9017 48.1201 36.6258C47.3134 38.3401 46.3024 39.8435 45.087 41.1359C43.8803 42.4273 42.8542 43.1204 42.0087 43.2151C40.7971 43.3509 40.119 42.7693 39.9746 41.4704C39.9164 40.9473 40.0239 40.1674 40.2969 39.1306C40.5699 38.0939 40.9587 37.0265 41.4632 35.9285ZM82.8457 46.8841L84.7692 27.4977L68.7894 25.9003L68.4355 29.4665L69.3203 29.555L67.7506 45.3751L71.9601 45.7959L73.5298 29.9758L74.7631 30.0991L73.1934 45.9192L77.4029 46.34L78.9726 30.5199L80.1791 30.6405L78.6094 46.4606L82.8457 46.8841ZM51.855 32.7848C52.3258 31.5795 52.936 30.4824 53.6857 29.4936C54.452 28.5118 55.311 27.7258 56.2628 27.1355C57.2311 26.5522 58.2864 26.2013 59.4288 26.0827C60.5782 25.9476 61.7878 26.131 63.0578 26.6331C64.2712 27.1305 65.2405 27.8364 65.9656 28.7506C66.7142 29.6554 67.2323 30.6669 67.52 31.7853C67.8077 32.9037 67.8977 34.0746 67.7899 35.2979C67.6822 36.5212 67.4104 37.6941 66.9747 38.8167C66.5504 39.8661 65.9456 40.8581 65.1603 41.7927C64.382 42.7107 63.4934 43.4744 62.4946 44.0838C61.4957 44.6931 60.4194 45.0936 59.2656 45.2854C58.1188 45.4607 56.9764 45.3255 55.8387 44.8798C54.767 44.4622 53.8734 43.8081 53.1578 42.9175C52.4493 42.0103 51.9229 40.9952 51.5786 39.8722C51.2413 38.7327 51.09 37.5454 51.1247 36.3105C51.1663 35.0591 51.4098 33.8838 51.855 32.7848ZM59.4706 26.7449C59.2208 26.7361 59.0036 26.9267 58.8192 27.3167C58.6417 27.6902 58.4871 28.1711 58.3554 28.7593C58.2472 29.338 58.151 29.9805 58.0669 30.6866C57.9993 31.3998 57.9423 32.0882 57.8957 32.7518C57.8657 33.4224 57.8436 34.0281 57.8294 34.5688C57.8318 35.1165 57.8289 35.5156 57.8206 35.7659C57.8122 36.0161 57.801 36.4117 57.7869 36.9524C57.7963 37.4836 57.8095 38.075 57.8265 38.7266C57.86 39.3852 57.9065 40.0592 57.9661 40.7485C58.0257 41.4377 58.1098 42.0691 58.2183 42.6426C58.3339 43.1995 58.4714 43.6583 58.6309 44.0192C58.8068 44.3871 59.0198 44.5754 59.2696 44.5842C59.5194 44.593 59.733 44.4107 59.9105 44.0372C60.1045 43.6707 60.2638 43.2017 60.3886 42.63C60.5133 42.0583 60.6142 41.4276 60.6913 40.738C60.792 40.0389 60.8621 39.3658 60.9016 38.7188C60.9577 38.0788 60.9976 37.5002 61.0213 36.9831C61.0519 36.4494 61.0679 36.0657 61.0692 35.832C61.061 35.5747 61.0557 35.1721 61.0533 34.6244C61.0509 34.0766 61.033 33.4734 60.9994 32.8148C60.9729 32.1396 60.9251 31.4455 60.856 30.7327C60.7869 30.0198 60.6898 29.3732 60.5647 28.7927C60.4466 28.1956 60.2913 27.7096 60.0988 27.3347C59.9298 26.9503 59.7204 26.7537 59.4706 26.7449ZM36.6997 43.0609C36.8348 42.3746 36.8086 41.6753 36.621 40.9631C36.4838 40.4419 36.2908 39.9913 36.0422 39.6112C35.8108 39.2266 35.5521 38.9142 35.266 38.6742C34.9753 38.4168 34.6787 38.2074 34.3761 38.046C34.0736 37.8847 33.7935 37.7732 33.5357 37.7114C33.9414 37.418 34.3178 37.0486 34.665 36.6034C35.0076 36.1408 35.2821 35.6312 35.4885 35.0747C35.7123 34.5135 35.8528 33.9187 35.9102 33.2902C35.985 32.657 35.9355 32.0104 35.7617 31.3503C35.5787 30.6554 35.2889 30.119 34.8921 29.741C34.5127 29.3585 34.0868 29.0812 33.6143 28.9092C33.1417 28.7372 32.6486 28.6636 32.135 28.6883C31.6214 28.713 31.1476 28.783 30.7135 28.8981C29.6717 29.1745 28.6852 29.5199 27.7541 29.9341C26.8183 30.3311 25.9242 30.7448 25.0716 31.1754C25.4435 34.4221 25.7848 37.6582 26.0955 40.884C26.419 44.0877 26.5642 47.3201 26.5313 50.5812C27.1143 50.5381 27.7271 50.4313 28.3695 50.2608C29.0814 50.072 29.8033 49.8154 30.5353 49.4911C31.28 49.1449 31.985 48.7534 32.6502 48.3168C33.3282 47.8581 33.9491 47.3589 34.5128 46.8191C35.0894 46.2572 35.5653 45.6663 35.9408 45.0464C36.3117 44.409 36.5647 43.7472 36.6997 43.0609ZM30.0299 41.0111C30.0125 40.6626 29.9836 40.2707 29.9432 39.8353C30.0081 39.7995 30.0666 39.7747 30.1187 39.7609L30.3531 39.6987C30.6135 39.6296 30.9005 39.5907 31.214 39.5818C31.5229 39.5557 31.8171 39.5798 32.0968 39.6543C32.3939 39.7242 32.648 39.8426 32.8591 40.0096C33.0876 40.172 33.2431 40.4096 33.3254 40.7222C33.4398 41.1565 33.4079 41.5646 33.2298 41.9463C33.0471 42.3108 32.7899 42.6392 32.4582 42.9316C32.122 43.2066 31.7569 43.4429 31.3631 43.6403C30.9693 43.8377 30.612 43.9975 30.2912 44.1198C30.2463 43.6671 30.2087 43.2775 30.1785 42.951C30.161 42.6025 30.1395 42.2737 30.1138 41.9645C30.0881 41.6554 30.0602 41.3376 30.0299 41.0111ZM29.503 33.9306C29.4865 33.6562 29.4704 33.4188 29.4548 33.2185L29.7153 33.1494C29.9236 33.0942 30.1649 33.058 30.4391 33.0411C30.726 33.0021 31.0048 33.0025 31.2753 33.0422C31.5632 33.0774 31.8081 33.1611 32.0101 33.2933C32.2076 33.4082 32.3406 33.596 32.4092 33.8565C32.4641 34.065 32.4189 34.2814 32.2737 34.5058C32.1458 34.7256 31.9461 34.9551 31.6748 35.1943C31.4162 35.4116 31.1119 35.6317 30.762 35.8547C30.412 36.0776 30.0552 36.2745 29.6915 36.4453C29.6713 36.2276 29.6507 35.9729 29.6296 35.6812C29.6258 35.3848 29.6134 35.0907 29.5923 34.799C29.5667 34.4898 29.5369 34.2004 29.503 33.9306Z" fill="black" style="fill:black;fill-opacity:1;"/>
</svg>
