<svg width="76" height="75" viewBox="0 0 76 75" fill="none" xmlns="http://www.w3.org/2000/svg">
<mask id="path-1-outside-1_1421_629" maskUnits="userSpaceOnUse" x="0.131836" y="-0.588196" width="76" height="76" fill="black">
<rect fill="white" x="0.131836" y="-0.588196" width="76" height="76"/>
<path fill-rule="evenodd" clip-rule="evenodd" d="M71.3083 37.5C71.3083 55.7742 56.4942 70.5883 38.2201 70.5883C19.9459 70.5883 5.13184 55.7742 5.13184 37.5C5.13184 19.2259 19.9459 4.4118 38.2201 4.4118C56.4942 4.4118 71.3083 19.2259 71.3083 37.5ZM30.0573 17.6617C31.321 19.0669 31.9393 21.4887 32.0889 25.5847C32.2385 29.6509 31.8877 32.1325 30.8612 34.1058C30.04 35.7502 29.042 36.3481 28.1899 35.7801C26.6034 34.7037 25.8381 32.1026 25.5114 26.6312C25.3333 23.7609 25.3916 23.2527 26.0948 20.8309C26.886 18.1999 27.8248 16.7647 28.7645 16.7647C29.0288 16.7647 29.6164 17.1833 30.0573 17.6617ZM47.4128 17.1534C47.7947 17.3627 48.2061 17.7215 48.3237 17.9607C49.0883 19.4556 49.4708 20.5319 49.6185 21.7876C49.7365 22.565 49.8839 23.4022 49.9428 23.6413C50.2664 24.5383 50.1519 28.9333 49.7715 31.0262C48.3965 38.7699 44.4604 37.5142 43.6031 29.0529C43.278 25.9136 43.5984 22.0268 44.3603 19.635C45.1223 17.3627 46.1496 16.5255 47.4128 17.1534ZM13.8832 38.722C14.0805 38.545 14.3136 38.4279 14.5062 38.3482C14.7111 38.2633 14.9367 38.1938 15.1643 38.1367C15.6199 38.0223 16.1465 37.9414 16.6618 37.8955C17.1773 37.8496 17.71 37.8362 18.1794 37.867C18.5952 37.8943 19.1359 37.964 19.5368 38.1974L19.5552 38.2081L19.5731 38.2196C19.8706 38.4107 20.2094 38.7327 20.3022 39.2226C20.4022 39.7502 20.1657 40.181 19.9018 40.4448C19.4621 40.8842 18.7837 41.0704 18.134 41.0971L18.158 41.2808L18.1585 41.2844C18.9242 47.3233 23.0684 53.054 28.6696 55.6894L28.6739 55.6914C30.5342 56.5776 31.2968 56.9083 31.8218 57.0428L31.8251 57.0437C33.7277 57.5386 34.6382 57.7625 35.5099 57.8587C36.3785 57.9546 37.2265 57.9259 39.022 57.857L39.0239 57.8569C40.8738 57.7896 42.1467 57.6697 43.3018 57.4103C44.449 57.1528 45.5198 56.7486 46.9515 56.0714L46.9515 56.0713L46.9584 56.0681C50.6574 54.3537 54.4977 50.7435 56.1314 47.5023L56.1314 47.5023L56.1353 47.4946C57.07 45.6805 57.8062 43.2298 58.0465 41.3589C57.4726 41.3015 56.845 41.0579 56.526 40.4763C56.3172 40.0956 56.2976 39.6432 56.4906 39.2361C56.6675 38.8629 56.98 38.6122 57.2888 38.4496L57.2893 38.4493C57.7933 38.1843 58.4359 38.1087 58.9911 38.099C59.5796 38.0887 60.2171 38.1517 60.8012 38.2627C61.3758 38.3719 61.9574 38.5388 62.4113 38.7654C62.6325 38.8758 62.8879 39.0319 63.0907 39.2538C63.2851 39.4666 63.5031 39.8292 63.4508 40.2912C63.4495 40.3222 63.4477 40.3506 63.4461 40.3737C63.4437 40.4102 63.4405 40.4505 63.4378 40.4855L63.436 40.5089C63.4288 40.6016 63.4252 40.6603 63.4252 40.6983C63.4255 41.05 63.2646 41.3743 62.986 41.5862C62.7549 41.7621 62.5065 41.8132 62.3562 41.8317C62.0509 41.8692 61.7199 41.8196 61.4412 41.7587L61.4356 41.7574C61.407 41.751 61.382 41.746 61.3601 41.742C61.3362 41.8026 61.3066 41.8904 61.2736 42.0145C61.2039 42.2773 61.1361 42.636 61.062 43.1279C60.8329 44.7081 60.0962 46.6474 59.1455 48.4803C58.1895 50.3232 56.9721 52.1454 55.7189 53.4795L55.7189 53.4796L55.7108 53.488C54.22 55.0373 52.0096 56.889 50.6819 57.5901C48.3301 58.8835 46.4487 59.7397 44.5271 60.265C42.5971 60.7926 40.6755 60.9732 38.2569 60.9732L38.2514 60.9732C35.7991 60.9594 33.8693 60.7863 31.9789 60.2993C30.0897 59.8127 28.2877 59.0249 26.0775 57.8355C24.7475 57.1225 22.9226 55.667 21.456 54.3057C20.715 53.618 20.0367 52.9278 19.5358 52.335C19.2869 52.0405 19.0651 51.7505 18.9 51.4837C18.8174 51.3502 18.738 51.2051 18.6768 51.055C18.668 51.0334 18.659 51.0102 18.65 50.9856C18.5814 50.9424 18.528 50.9001 18.4914 50.8695C18.3506 50.7518 18.2331 50.6125 18.14 50.4887C17.9503 50.2366 17.7586 49.9092 17.5742 49.5568C17.2007 48.8426 16.7893 47.8927 16.409 46.9001C16.0275 45.9043 15.6679 44.8411 15.402 43.8935C15.16 43.0312 14.9692 42.1756 14.9477 41.5469C14.6597 41.5846 14.3645 41.5925 14.0901 41.5389C13.7775 41.478 13.2739 41.2841 13.0627 40.7283C12.8674 40.2146 13.0668 39.7497 13.213 39.5004C13.3765 39.2215 13.6163 38.9606 13.8832 38.722ZM59.8835 40.0906C59.9248 40.1645 59.9563 40.239 59.9804 40.3118C60.0414 40.2459 60.1069 40.1851 60.177 40.13C60.0795 40.115 59.9814 40.1018 59.8835 40.0906Z"/>
</mask>
<path d="M32.0889 25.5847L27.7946 25.7416L27.7946 25.7427L32.0889 25.5847ZM30.0573 17.6617L33.2524 14.7883L33.235 14.7689L33.2173 14.7497L30.0573 17.6617ZM30.8612 34.1058L27.049 32.1226L27.0326 32.1541L27.0167 32.1859L30.8612 34.1058ZM28.1899 35.7801L25.7774 39.3361L25.7918 39.3458L25.8061 39.3554L28.1899 35.7801ZM25.5114 26.6312L29.8009 26.375L29.8003 26.365L25.5114 26.6312ZM26.0948 20.8309L21.9797 19.5935L21.9738 19.6131L21.9681 19.6327L26.0948 20.8309ZM48.3237 17.9607L44.4677 19.8571L44.4825 19.8873L44.4979 19.9173L48.3237 17.9607ZM47.4128 17.1534L49.4779 13.385L49.4025 13.3436L49.3255 13.3054L47.4128 17.1534ZM49.6185 21.7876L45.3507 22.2896L45.3591 22.3612L45.37 22.4325L49.6185 21.7876ZM49.9428 23.6413L45.7702 24.6687L45.8241 24.8877L45.9007 25.0998L49.9428 23.6413ZM49.7715 31.0262L45.5436 30.2578L45.542 30.2664L45.5405 30.2749L49.7715 31.0262ZM43.6031 29.0529L47.8784 28.6197L47.8774 28.6102L43.6031 29.0529ZM44.3603 19.635L40.2861 18.2687L40.2758 18.2996L40.2659 18.3307L44.3603 19.635ZM14.5062 38.3482L16.151 42.3181L16.151 42.3181L14.5062 38.3482ZM13.8832 38.722L16.7479 41.925L16.752 41.9213L13.8832 38.722ZM15.1643 38.1367L16.211 42.3044L16.211 42.3044L15.1643 38.1367ZM16.6618 37.8955L17.0428 42.1758H17.0429L16.6618 37.8955ZM18.1794 37.867L18.4606 33.579L18.4606 33.579L18.1794 37.867ZM19.5368 38.1974L17.3748 41.9111L17.375 41.9112L19.5368 38.1974ZM19.5552 38.2081L21.8776 34.5925L21.7984 34.5417L21.717 34.4943L19.5552 38.2081ZM19.5731 38.2196L21.8955 34.6041L21.8955 34.6041L19.5731 38.2196ZM20.3022 39.2226L24.5243 38.4225L24.5243 38.4225L20.3022 39.2226ZM19.9018 40.4448L16.8642 37.4053L16.8642 37.4053L19.9018 40.4448ZM18.134 41.0971L17.9577 36.8036L13.2648 36.9963L13.873 41.6536L18.134 41.0971ZM18.158 41.2808L22.4205 40.7356L22.419 40.7243L18.158 41.2808ZM18.1585 41.2844L22.4215 40.7439L22.4209 40.7392L18.1585 41.2844ZM28.6696 55.6894L30.5109 51.8066L30.4991 51.8011L28.6696 55.6894ZM28.6739 55.6914L30.5219 51.8119L30.5151 51.8086L28.6739 55.6914ZM31.8218 57.0428L32.8937 52.8815L32.8888 52.8803L31.8218 57.0428ZM31.8251 57.0437L32.9069 52.8849L32.897 52.8824L31.8251 57.0437ZM35.5099 57.8587L35.0384 62.13H35.0384L35.5099 57.8587ZM39.022 57.857L39.1869 62.151L39.1917 62.1508L39.022 57.857ZM39.0239 57.8569L38.8676 53.5626L38.8542 53.5631L39.0239 57.8569ZM43.3018 57.4103L44.2432 61.6031H44.2432L43.3018 57.4103ZM46.9515 56.0714L48.789 59.9559L52.7591 58.0779L50.795 54.1496L46.9515 56.0714ZM46.9515 56.0713L45.1442 52.1727L41.1285 54.0342L43.108 57.9931L46.9515 56.0713ZM46.9584 56.0681L45.1514 52.1693L45.1511 52.1695L46.9584 56.0681ZM56.1314 47.5023L59.9687 49.4364L61.9993 45.4078L57.8767 43.5755L56.1314 47.5023ZM56.1314 47.5023L52.3109 45.5351L50.2277 49.5809L54.3862 51.4291L56.1314 47.5023ZM56.1353 47.4946L52.3154 45.5265L52.3149 45.5274L56.1353 47.4946ZM58.0465 41.3589L62.3087 41.9062L62.8716 37.5227L58.474 37.083L58.0465 41.3589ZM56.526 40.4763L52.7585 42.543L52.7585 42.543L56.526 40.4763ZM56.4906 39.2361L60.3734 41.0771L60.3734 41.0771L56.4906 39.2361ZM57.2888 38.4496L59.2914 42.2516L59.2945 42.25L57.2888 38.4496ZM57.2893 38.4493L55.2892 34.646L55.2836 34.649L57.2893 38.4493ZM58.9911 38.099L59.066 42.3955H59.066L58.9911 38.099ZM60.8012 38.2627L61.6037 34.0411L61.6037 34.0411L60.8012 38.2627ZM62.4113 38.7654L64.3309 34.9208L64.3308 34.9208L62.4113 38.7654ZM63.0907 39.2538L66.2631 36.3553L66.2631 36.3553L63.0907 39.2538ZM63.4508 40.2912L59.1809 39.8076L59.1637 39.9593L59.1573 40.1119L63.4508 40.2912ZM63.4461 40.3737L67.7337 40.6616L67.7337 40.6616L63.4461 40.3737ZM63.4378 40.4855L59.1538 40.1498L59.1536 40.1516L63.4378 40.4855ZM63.436 40.5089L59.1518 40.1749L59.1517 40.1765L63.436 40.5089ZM63.4252 40.6983L67.7224 40.6954V40.6953L63.4252 40.6983ZM62.986 41.5862L65.5882 45.006L65.5882 45.0059L62.986 41.5862ZM62.3562 41.8317L62.8802 46.0968L62.8803 46.0968L62.3562 41.8317ZM61.4412 41.7587L60.498 45.9511L60.5113 45.9541L60.5247 45.957L61.4412 41.7587ZM61.4356 41.7574L62.3789 37.5651L62.377 37.5647L61.4356 41.7574ZM61.3601 41.742L62.1331 37.5149L58.6547 36.8788L57.3609 40.1697L61.3601 41.742ZM61.2736 42.0145L57.1202 40.9125L57.1202 40.9125L61.2736 42.0145ZM61.062 43.1279L56.8128 42.4878L56.811 42.4995L56.8093 42.5113L61.062 43.1279ZM59.1455 48.4803L62.96 50.4589L59.1455 48.4803ZM55.7189 53.4795L52.5868 50.5374L49.5077 53.8153L52.9223 56.7422L55.7189 53.4795ZM55.7189 53.4796L58.8157 56.4587L61.9711 53.1788L58.5155 50.2169L55.7189 53.4796ZM55.7108 53.488L58.8072 56.4676L58.8076 56.4672L55.7108 53.488ZM50.6819 57.5901L48.6752 53.7903L48.643 53.8073L48.6111 53.8248L50.6819 57.5901ZM44.5271 60.265L43.394 56.1199L43.394 56.1199L44.5271 60.265ZM38.2569 60.9732L38.245 65.2704H38.2569V60.9732ZM38.2514 60.9732L38.2271 65.2703L38.2395 65.2704L38.2514 60.9732ZM31.9789 60.2993L30.9069 64.4606L30.907 64.4607L31.9789 60.2993ZM26.0775 57.8355L28.1139 54.0514L28.1078 54.0482L26.0775 57.8355ZM21.456 54.3057L24.3793 51.1561L24.3793 51.1561L21.456 54.3057ZM19.5358 52.335L22.8179 49.5614L22.8179 49.5613L19.5358 52.335ZM18.9 51.4837L22.554 49.2223L22.554 49.2223L18.9 51.4837ZM18.6768 51.055L22.6564 49.4336L22.6564 49.4336L18.6768 51.055ZM18.65 50.9856L22.6862 49.5107L22.1824 48.132L20.9404 47.3497L18.65 50.9856ZM18.4914 50.8695L15.7349 54.1661L15.735 54.1662L18.4914 50.8695ZM18.14 50.4887L14.7062 53.0722L14.7062 53.0723L18.14 50.4887ZM17.5742 49.5568L13.7664 51.5484L13.7664 51.5484L17.5742 49.5568ZM16.409 46.9001L20.4218 45.3627H20.4218L16.409 46.9001ZM15.402 43.8935L11.2646 45.0547L11.2646 45.0547L15.402 43.8935ZM14.9477 41.5469L19.2424 41.4003L19.081 36.6734L14.3912 37.286L14.9477 41.5469ZM14.0901 41.5389L14.9125 37.3212L14.9124 37.3212L14.0901 41.5389ZM13.0627 40.7283L17.0795 39.2016L17.0795 39.2015L13.0627 40.7283ZM13.213 39.5004L9.50583 37.3272L9.50583 37.3272L13.213 39.5004ZM59.9804 40.3118L55.8994 41.6578L58.1828 48.5809L63.1343 43.2305L59.9804 40.3118ZM59.8835 40.0906L60.3739 35.8215L52.0434 34.8646L56.1317 42.1857L59.8835 40.0906ZM60.177 40.13L62.8327 43.5084L70.6158 37.39L60.8311 35.8829L60.177 40.13ZM38.2201 74.8854C58.8675 74.8854 75.6055 58.1474 75.6055 37.5H67.0111C67.0111 53.4009 54.1209 66.2911 38.2201 66.2911V74.8854ZM0.834663 37.5C0.834663 58.1474 17.5727 74.8854 38.2201 74.8854V66.2911C22.3192 66.2911 9.42901 53.4009 9.42901 37.5H0.834663ZM38.2201 0.114631C17.5727 0.114631 0.834663 16.8526 0.834663 37.5H9.42901C9.42901 21.5992 22.3192 8.70898 38.2201 8.70898V0.114631ZM75.6055 37.5C75.6055 16.8526 58.8675 0.114631 38.2201 0.114631V8.70898C54.1209 8.70898 67.0111 21.5992 67.0111 37.5H75.6055ZM36.3832 25.4279C36.232 21.2872 35.6325 17.4348 33.2524 14.7883L26.8621 20.5351C26.891 20.5673 27.1084 20.8229 27.3281 21.6805C27.5521 22.5548 27.7253 23.8433 27.7946 25.7416L36.3832 25.4279ZM34.6734 36.0889C36.2267 33.103 36.5403 29.6993 36.3832 25.4268L27.7946 25.7427C27.9366 29.6025 27.5487 31.162 27.049 32.1226L34.6734 36.0889ZM25.8061 39.3554C26.6564 39.9223 27.7101 40.2961 28.8868 40.2864C30.0415 40.2768 31.0321 39.9012 31.7995 39.426C33.2307 38.5397 34.1342 37.17 34.7057 36.0256L27.0167 32.1859C26.7671 32.6859 26.7609 32.4374 27.2747 32.1192C27.5835 31.928 28.1135 31.6981 28.8158 31.6923C29.5401 31.6863 30.1495 31.9218 30.5737 32.2047L25.8061 39.3554ZM21.2219 26.8873C21.3906 29.7137 21.6852 32.12 22.2545 34.0624C22.83 36.0259 23.8324 38.0166 25.7774 39.3361L30.6024 32.224C30.961 32.4672 30.7874 32.6191 30.5019 31.6451C30.2103 30.6501 29.9589 29.02 29.8009 26.375L21.2219 26.8873ZM21.9681 19.6327C21.6187 20.836 21.3217 21.9077 21.1975 23.1279C21.0768 24.314 21.1352 25.4909 21.2225 26.8974L29.8003 26.365C29.7095 24.9012 29.7079 24.3889 29.7477 23.9978C29.784 23.6409 29.8678 23.2475 30.2216 22.0292L21.9681 19.6327ZM28.7645 12.4676C26.0003 12.4676 24.4099 14.4952 23.7808 15.4543C23.0044 16.6379 22.4285 18.1007 21.9797 19.5935L30.21 22.0683C30.3728 21.5267 30.529 21.0952 30.6697 20.7632C30.8137 20.4237 30.9198 20.2401 30.9671 20.168C31.0265 20.0774 30.9406 20.2411 30.6523 20.4589C30.3359 20.6979 29.6844 21.0619 28.7645 21.0619V12.4676ZM33.2173 14.7497C32.7975 14.2942 32.3087 13.8631 31.808 13.5128C31.5592 13.3387 31.2319 13.1314 30.8476 12.9504C30.571 12.82 29.79 12.4676 28.7645 12.4676V21.0619C28.2612 21.0619 27.8751 20.9677 27.6688 20.9073C27.4456 20.8418 27.2799 20.7699 27.1844 20.7249C26.9984 20.6373 26.8952 20.5645 26.8813 20.5549C26.8554 20.5367 26.8543 20.534 26.8699 20.5477C26.876 20.5531 26.8824 20.5589 26.8882 20.5646C26.8909 20.5673 26.8932 20.5695 26.8948 20.5712C26.8965 20.5729 26.8973 20.5738 26.8972 20.5737L33.2173 14.7497ZM52.1798 16.0643C51.7401 15.1701 51.088 14.5683 50.8095 14.3228C50.4297 13.9878 49.9734 13.6565 49.4779 13.385L45.3477 20.9218C45.2341 20.8596 45.1745 20.8123 45.1252 20.7689C45.0951 20.7423 45.0269 20.6799 44.9368 20.5758C44.8694 20.498 44.6621 20.2524 44.4677 19.8571L52.1798 16.0643ZM53.8862 21.2857C53.6576 19.3416 53.046 17.7567 52.1496 16.004L44.4979 19.9173C45.1306 21.1544 45.284 21.7222 45.3507 22.2896L53.8862 21.2857ZM54.1153 22.6139C54.1288 22.6686 54.1259 22.6638 54.1034 22.5471C54.0853 22.4532 54.0621 22.3268 54.0354 22.1744C53.9821 21.87 53.921 21.4987 53.867 21.1428L45.37 22.4325C45.4833 23.1793 45.657 24.209 45.7702 24.6687L54.1153 22.6139ZM53.9994 31.7946C54.2474 30.43 54.3791 28.5547 54.417 26.9895C54.4366 26.1833 54.4336 25.3719 54.3977 24.6626C54.3728 24.1683 54.3151 23.0982 53.9848 22.1828L45.9007 25.0998C45.7781 24.7601 45.7654 24.5511 45.782 24.68C45.7902 24.7431 45.8033 24.8779 45.8143 25.0961C45.8362 25.5285 45.8414 26.1148 45.8252 26.7811C45.7918 28.1609 45.676 29.5295 45.5436 30.2578L53.9994 31.7946ZM39.3278 29.4861C39.57 31.8766 40.0497 34.0041 40.7885 35.7196C41.4166 37.1779 42.6951 39.4139 45.1851 40.2097C48.4389 41.2495 50.8215 39.165 51.8913 37.606C52.967 36.0385 53.6124 33.9743 54.0025 31.7775L45.5405 30.2749C45.3998 31.0672 45.2399 31.6654 45.0897 32.0958C45.0153 32.3087 44.9482 32.4669 44.8945 32.5782C44.8679 32.6332 44.8461 32.6739 44.8301 32.7018C44.8222 32.7157 44.816 32.7259 44.8117 32.7329C44.8095 32.7364 44.8078 32.7389 44.8067 32.7406C44.8056 32.7424 44.805 32.7432 44.805 32.7432C44.805 32.7432 44.8056 32.7423 44.8069 32.7405C44.8082 32.7388 44.8101 32.7362 44.8127 32.7327C44.8179 32.7259 44.8261 32.7154 44.8374 32.7018C44.8599 32.6751 44.8971 32.6336 44.9509 32.5826C45.0567 32.4826 45.2446 32.3294 45.5259 32.1893C46.1742 31.8664 47.0091 31.77 47.8012 32.0232C48.4838 32.2413 48.8074 32.612 48.8495 32.6617C48.9018 32.7235 48.8228 32.6471 48.6819 32.32C48.3987 31.6623 48.0648 30.4599 47.8784 28.6197L39.3278 29.4861ZM40.2659 18.3307C39.2877 21.4014 38.9565 25.9012 39.3288 29.4956L47.8774 28.6102C47.5994 25.9261 47.9091 22.6523 48.4548 20.9393L40.2659 18.3307ZM49.3255 13.3054C48.4584 12.8744 47.363 12.5656 46.1254 12.6768C44.8665 12.79 43.8056 13.3072 42.987 13.9731C41.5139 15.1713 40.7438 16.9039 40.2861 18.2687L48.4345 21.0013C48.5626 20.6192 48.6629 20.418 48.7064 20.3422C48.7561 20.2558 48.6816 20.4195 48.4103 20.6402C48.1017 20.8912 47.582 21.1749 46.8948 21.2367C46.229 21.2965 45.7356 21.1185 45.5002 21.0015L49.3255 13.3054ZM12.8614 34.3782C12.4684 34.541 11.7301 34.8808 11.0144 35.5226L16.752 41.9213C16.5792 42.0762 16.4277 42.1727 16.334 42.2265C16.2392 42.2808 16.1711 42.3098 16.151 42.3181L12.8614 34.3782ZM14.1177 33.9689C13.7562 34.0597 13.3175 34.1893 12.8614 34.3782L16.151 42.3181C16.123 42.3297 16.114 42.3319 16.1285 42.3273C16.1422 42.3229 16.1693 42.3149 16.211 42.3044L14.1177 33.9689ZM16.2807 33.6153C15.5997 33.6759 14.8424 33.7869 14.1177 33.9689L16.211 42.3044C16.3975 42.2576 16.6933 42.2069 17.0428 42.1758L16.2807 33.6153ZM18.4606 33.579C17.723 33.5306 16.9632 33.5545 16.2807 33.6153L17.0429 42.1758C17.3915 42.1447 17.6971 42.1418 17.8981 42.155L18.4606 33.579ZM21.6988 34.4837C20.3586 33.7035 18.9216 33.6093 18.4606 33.579L17.8981 42.155C18.003 42.1618 18.0184 42.1683 17.9773 42.1597C17.9519 42.1543 17.8869 42.1394 17.7933 42.1066C17.7009 42.0743 17.5531 42.0149 17.3748 41.9111L21.6988 34.4837ZM21.717 34.4943L21.6986 34.4836L17.375 41.9112L17.3934 41.9219L21.717 34.4943ZM21.8955 34.6041L21.8776 34.5925L17.2329 41.8237L17.2508 41.8352L21.8955 34.6041ZM24.5243 38.4225C24.123 36.3053 22.6978 35.1194 21.8955 34.6041L17.2507 41.8352C17.0435 41.702 16.2958 41.1601 16.0802 40.0227L24.5243 38.4225ZM22.9394 43.4843C23.8747 42.5496 24.9663 40.755 24.5243 38.4225L16.0802 40.0227C15.8381 38.7454 16.4568 37.8124 16.8642 37.4053L22.9394 43.4843ZM18.3104 45.3907C19.4751 45.3428 21.4154 45.0073 22.9394 43.4843L16.8642 37.4053C17.2108 37.0589 17.5453 36.9149 17.7032 36.8608C17.8623 36.8062 17.9519 36.8038 17.9577 36.8036L18.3104 45.3907ZM22.419 40.7243L22.395 40.5407L13.873 41.6536L13.897 41.8373L22.419 40.7243ZM22.4209 40.7392L22.4205 40.7356L13.8956 41.826L13.896 41.8296L22.4209 40.7392ZM30.4991 51.8011C26.225 49.7901 23.0018 45.3202 22.4215 40.7439L13.8954 41.8249C14.8466 49.3265 19.9119 56.318 26.8402 59.5777L30.4991 51.8011ZM30.5151 51.8086L30.5109 51.8066L26.8284 59.5721L26.8326 59.5741L30.5151 51.8086ZM32.8888 52.8803C32.9471 52.8952 32.8636 52.8809 32.4466 52.7015C32.04 52.5266 31.4489 52.2535 30.5219 51.8119L26.8258 59.5709C28.5415 60.3881 29.7331 60.9435 30.7547 61.2054L32.8888 52.8803ZM32.897 52.8824L32.8937 52.8815L30.7499 61.2042L30.7532 61.205L32.897 52.8824ZM35.9814 53.5875C35.4812 53.5323 34.894 53.4018 32.9069 52.8849L30.7434 61.2025C32.5613 61.6754 33.7952 61.9927 35.0384 62.13L35.9814 53.5875ZM38.8572 53.563C36.9579 53.6359 36.4649 53.6409 35.9814 53.5875L35.0384 62.13C36.2922 62.2684 37.4951 62.216 39.1869 62.151L38.8572 53.563ZM38.8542 53.5631L38.8523 53.5632L39.1917 62.1508L39.1937 62.1507L38.8542 53.5631ZM42.3605 53.2175C41.5924 53.39 40.6305 53.4984 38.8676 53.5626L39.1803 62.1512C41.1171 62.0807 42.7009 61.9494 44.2432 61.6031L42.3605 53.2175ZM45.114 52.1868C43.8403 52.7894 43.0852 53.0548 42.3605 53.2175L44.2432 61.6031C45.8127 61.2507 47.1992 60.7078 48.789 59.9559L45.114 52.1868ZM43.108 57.9931L43.108 57.9931L50.795 54.1496L50.795 54.1496L43.108 57.9931ZM45.1511 52.1695L45.1442 52.1727L48.7588 59.97L48.7657 59.9667L45.1511 52.1695ZM52.2941 45.5681C51.1412 47.8556 48.0662 50.8184 45.1514 52.1693L48.7654 59.9669C53.2486 57.889 57.8543 53.6315 59.9687 49.4364L52.2941 45.5681ZM54.3862 51.4291L54.3862 51.4291L57.8767 43.5755L57.8766 43.5755L54.3862 51.4291ZM52.3149 45.5274L52.3109 45.5351L59.9519 49.4695L59.9558 49.4618L52.3149 45.5274ZM53.7843 40.8116C53.6057 42.2022 53.0141 44.1703 52.3154 45.5265L59.9553 49.4627C61.1259 47.1907 62.0067 44.2574 62.3087 41.9062L53.7843 40.8116ZM52.7585 42.543C54.0437 44.8859 56.351 45.508 57.619 45.6347L58.474 37.083C58.6046 37.0961 58.863 37.139 59.1861 37.3084C59.5383 37.493 59.9819 37.8414 60.2936 38.4096L52.7585 42.543ZM52.6077 37.3952C51.8158 39.0654 51.896 40.9708 52.7585 42.543L60.2936 38.4096C60.7384 39.2204 60.7793 40.221 60.3734 41.0771L52.6077 37.3952ZM55.2862 34.6476C54.4746 35.0751 53.3139 35.9058 52.6077 37.3952L60.3734 41.0771C60.0212 41.82 59.4855 42.1494 59.2914 42.2516L55.2862 34.6476ZM55.2836 34.649L55.2831 34.6493L59.2945 42.25L59.2951 42.2497L55.2836 34.649ZM58.9163 33.8025C58.1701 33.8155 56.7023 33.9029 55.2892 34.646L59.2895 42.2526C59.1593 42.3211 59.0555 42.359 58.9936 42.3787C58.9312 42.3986 58.8941 42.4055 58.8892 42.4064C58.8836 42.4074 58.8966 42.4048 58.9306 42.4019C58.964 42.399 59.009 42.3965 59.066 42.3955L58.9163 33.8025ZM61.6037 34.0411C60.7722 33.8831 59.8386 33.7864 58.9163 33.8025L59.066 42.3955C59.3206 42.3911 59.662 42.4203 59.9987 42.4843L61.6037 34.0411ZM64.3308 34.9208C63.3893 34.4507 62.3841 34.1895 61.6037 34.0411L59.9987 42.4843C60.1578 42.5145 60.2933 42.5483 60.3962 42.5798C60.506 42.6133 60.5311 42.6297 60.4917 42.61L64.3308 34.9208ZM66.2631 36.3553C65.5544 35.5796 64.773 35.1415 64.3309 34.9208L60.4917 42.61C60.4745 42.6014 60.4098 42.5684 60.3188 42.5057C60.2287 42.4435 60.0812 42.3306 59.9183 42.1524L66.2631 36.3553ZM67.7206 40.7749C67.963 38.6354 66.9362 37.092 66.2631 36.3553L59.9183 42.1523C59.634 41.8412 59.0432 41.023 59.1809 39.8076L67.7206 40.7749ZM67.7337 40.6616C67.7363 40.6218 67.7407 40.5531 67.7442 40.4706L59.1573 40.1119C59.1578 40.1009 59.1582 40.0929 59.1585 40.0887C59.1587 40.0846 59.1588 40.083 59.1586 40.0859L67.7337 40.6616ZM67.7218 40.8212C67.7243 40.7904 67.7293 40.726 67.7337 40.6616L59.1586 40.0859C59.1585 40.0878 59.1581 40.094 59.1571 40.1064C59.1562 40.1186 59.1552 40.1319 59.1538 40.1498L67.7218 40.8212ZM67.7202 40.8428L67.722 40.8195L59.1536 40.1516L59.1518 40.1749L67.7202 40.8428ZM67.7224 40.6953C67.7224 40.7517 67.7212 40.7955 67.7203 40.8209C67.7193 40.8471 67.7183 40.8652 67.7179 40.8718C67.7173 40.8825 67.7175 40.8771 67.7203 40.8413L59.1517 40.1765C59.1465 40.2432 59.1279 40.4681 59.1281 40.7014L67.7224 40.6953ZM65.5882 45.0059C66.9363 43.9801 67.7236 42.3892 67.7224 40.6954L59.1281 40.7013C59.1274 39.7108 59.5929 38.7684 60.3839 38.1665L65.5882 45.0059ZM62.8803 46.0968C63.3887 46.0343 64.4973 45.8361 65.5882 45.006L60.3839 38.1665C61.0126 37.6881 61.6243 37.5921 61.8321 37.5666L62.8803 46.0968ZM60.5247 45.957C60.938 46.0472 61.8414 46.2244 62.8802 46.0968L61.8321 37.5666C62.0795 37.5362 62.2513 37.5498 62.3096 37.5556C62.3739 37.5619 62.396 37.5688 62.3577 37.5604L60.5247 45.957ZM60.4923 45.9498L60.498 45.9511L62.3845 37.5664L62.3789 37.5651L60.4923 45.9498ZM60.587 45.969C60.5489 45.9621 60.5178 45.9555 60.4942 45.9502L62.377 37.5647C62.2963 37.5465 62.215 37.5299 62.1331 37.5149L60.587 45.969ZM65.4271 43.1166C65.4258 43.1216 65.4064 43.1944 65.3593 43.3142L57.3609 40.1697C57.2661 40.4108 57.1874 40.6592 57.1202 40.9125L65.4271 43.1166ZM65.3112 43.7681C65.3429 43.5579 65.3694 43.4017 65.3913 43.2866C65.402 43.23 65.4107 43.1881 65.4173 43.1585C65.4239 43.1287 65.4273 43.1157 65.4271 43.1166L57.1202 40.9125C56.9891 41.4066 56.8937 41.9507 56.8128 42.4878L65.3112 43.7681ZM62.96 50.4589C64.0197 48.416 64.9887 45.9927 65.3147 43.7446L56.8093 42.5113C56.677 43.4235 56.1727 44.8788 55.3309 46.5017L62.96 50.4589ZM58.8509 56.4216C60.4435 54.7262 61.8748 52.551 62.96 50.4589L55.3309 46.5017C54.5042 48.0954 53.5006 49.5647 52.5868 50.5374L58.8509 56.4216ZM58.5155 50.2169L58.5154 50.2169L52.9223 56.7422L52.9224 56.7422L58.5155 50.2169ZM58.8076 56.4672L58.8157 56.4587L52.6221 50.5004L52.614 50.5088L58.8076 56.4672ZM52.6886 61.39C54.6121 60.3742 57.1954 58.1426 58.8072 56.4676L52.6144 50.5084C51.2446 51.9319 49.4072 53.4038 48.6752 53.7903L52.6886 61.39ZM45.6603 64.4101C48.0506 63.7566 50.2699 62.7209 52.7527 61.3555L48.6111 53.8248C46.3903 55.0462 44.8468 55.7228 43.394 56.1199L45.6603 64.4101ZM38.2569 65.2704C40.8979 65.2704 43.233 65.0736 45.6603 64.4101L43.394 56.1199C41.9612 56.5116 40.453 56.676 38.2569 56.676V65.2704ZM38.2395 65.2704L38.245 65.2704L38.2688 56.6761L38.2633 56.676L38.2395 65.2704ZM30.907 64.4607C33.2697 65.0693 35.5871 65.2554 38.2271 65.2703L38.2757 56.6761C36.0111 56.6633 34.4689 56.5033 33.0508 56.138L30.907 64.4607ZM24.0411 61.6195C26.407 62.8927 28.5502 63.8536 30.9069 64.4606L33.0508 56.138C31.6291 55.7718 30.1684 55.1571 28.1139 54.0514L24.0411 61.6195ZM18.5327 57.4554C20.0831 58.8944 22.2281 60.6476 24.0472 61.6227L28.1078 54.0482C27.2669 53.5974 25.7621 52.4396 24.3793 51.1561L18.5327 57.4554ZM16.2536 55.1086C16.9047 55.8791 17.717 56.6983 18.5327 57.4554L24.3793 51.1561C23.713 50.5377 23.1687 49.9765 22.8179 49.5614L16.2536 55.1086ZM15.2459 53.745C15.5666 54.2631 15.9363 54.7332 16.2536 55.1086L22.8179 49.5613C22.7346 49.4627 22.6699 49.3815 22.6219 49.3176C22.5724 49.2517 22.5531 49.2208 22.554 49.2223L15.2459 53.745ZM14.6973 52.6763C14.8778 53.1194 15.0852 53.4852 15.246 53.7451L22.554 49.2223C22.5546 49.2233 22.5652 49.2404 22.5817 49.2718C22.598 49.3027 22.6253 49.3573 22.6564 49.4336L14.6973 52.6763ZM14.6139 52.4604C14.643 52.5403 14.6713 52.6126 14.6973 52.6763L22.6564 49.4336C22.6648 49.4542 22.675 49.4801 22.6862 49.5107L14.6139 52.4604ZM15.735 54.1662C15.8608 54.2714 16.0746 54.4419 16.3597 54.6215L20.9404 47.3497C21.0882 47.4428 21.1952 47.5289 21.2477 47.5728L15.735 54.1662ZM14.7062 53.0723C14.8963 53.3249 15.2394 53.7518 15.7349 54.1661L21.2478 47.5729C21.3631 47.6692 21.443 47.7525 21.4896 47.8042C21.537 47.8568 21.5656 47.8943 21.5737 47.905L14.7062 53.0723ZM13.7664 51.5484C13.9929 51.9814 14.3104 52.5462 14.7062 53.0722L21.5737 47.9051C21.5923 47.9297 21.5797 47.9156 21.5374 47.8453C21.4973 47.7787 21.4454 47.6864 21.3821 47.5653L13.7664 51.5484ZM12.3963 48.4376C12.8094 49.5158 13.2877 50.633 13.7664 51.5484L21.3821 47.5653C21.1137 47.0522 20.7692 46.2696 20.4218 45.3627L12.3963 48.4376ZM11.2646 45.0547C11.5725 46.1518 11.9765 47.342 12.3963 48.4376L20.4218 45.3627C20.0784 44.4667 19.7632 43.5304 19.5393 42.7324L11.2646 45.0547ZM10.6531 41.6936C10.6935 42.8759 11.0128 44.1574 11.2646 45.0547L19.5393 42.7324C19.4368 42.3672 19.3577 42.0472 19.3047 41.7841C19.2476 41.5007 19.2419 41.3854 19.2424 41.4003L10.6531 41.6936ZM13.2677 45.7567C14.1574 45.9302 14.9545 45.8797 15.5043 45.8079L14.3912 37.286C14.392 37.2859 14.4358 37.2799 14.5142 37.2799C14.5919 37.28 14.7305 37.2857 14.9125 37.3212L13.2677 45.7567ZM9.04586 42.2551C10.0326 44.8512 12.3454 45.5769 13.2677 45.7567L14.9124 37.3212C15.1333 37.3643 15.495 37.4634 15.8958 37.7264C16.3442 38.0206 16.817 38.5109 17.0795 39.2016L9.04586 42.2551ZM9.50583 37.3272C9.13546 37.959 8.15137 39.9018 9.04587 42.2551L17.0795 39.2015C17.3244 39.8458 17.3074 40.4522 17.2181 40.8848C17.1362 41.281 16.9925 41.5501 16.9202 41.6735L9.50583 37.3272ZM11.0185 35.519C10.5796 35.9115 9.98281 36.5135 9.50583 37.3272L16.9202 41.6735C16.837 41.8154 16.7665 41.8993 16.7422 41.927C16.7167 41.9561 16.714 41.9553 16.7479 41.925L11.0185 35.519ZM64.0613 38.9658C63.9597 38.6579 63.8219 38.3296 63.6354 37.9955L56.1317 42.1857C56.0277 41.9994 55.9529 41.8201 55.8994 41.6578L64.0613 38.9658ZM57.5213 36.7517C57.2669 36.9517 57.0355 37.1672 56.8265 37.3932L63.1343 43.2305C63.0472 43.3246 62.947 43.4185 62.8327 43.5084L57.5213 36.7517ZM59.3932 44.3597C59.4362 44.3646 59.4797 44.3705 59.5229 44.3771L60.8311 35.8829C60.6792 35.8596 60.5265 35.839 60.3739 35.8215L59.3932 44.3597Z" fill="black" style="fill:black;fill-opacity:1;" mask="url(#path-1-outside-1_1421_629)"/>
</svg>
