<svg width="99" height="75" viewBox="0 0 99 75" fill="none" xmlns="http://www.w3.org/2000/svg">
<path fill-rule="evenodd" clip-rule="evenodd" d="M37.217 0.0735076C31.311 0.687131 23.8325 5.46188 19.4029 11.4639C17.6004 13.8992 16.1622 16.3345 14.3213 20.093C11.6176 25.5964 10.3903 29.0289 7.3989 39.4413C4.6951 48.8566 3.79385 50.9852 1.81875 52.7683C0.476447 53.9766 0.15046 54.7818 0.265514 56.661C0.380569 58.5212 1.09007 60.0359 2.25979 60.8797C2.93094 61.3593 3.29528 61.4551 4.90603 61.6084C6.67021 61.7811 6.88114 61.7618 8.91376 61.2249C11.445 60.5538 14.6665 59.0198 16.6224 57.5624C18.3482 56.2775 21.6465 52.9602 23.2572 50.8701C28.5881 44.0242 32.3273 36.9867 37.4857 24.2157C39.0772 20.2464 40.381 17.5618 41.4743 15.9319C42.2795 14.7429 43.0472 13.7842 43.4692 13.8992C43.6226 13.9375 44.8113 15.1073 46.1154 16.5263C47.4192 17.9453 48.7233 19.2684 49.011 19.4794C49.471 19.8245 49.5478 19.8245 49.9695 19.5561C50.1997 19.3835 51.4845 18.0604 52.8269 16.603C55.8183 13.3048 55.8183 13.3048 57.9269 15.1456L57.927 15.1456C59.5378 16.8139 60.6307 18.9808 63.4305 25.9416C67.7639 36.7952 70.2571 41.8573 74.2071 47.8977C77.8121 53.4012 82.1652 57.7732 85.9811 59.7099C86.5947 60.0169 88.0518 60.592 89.2409 60.9755C91.2927 61.666 91.5036 61.7042 93.0568 61.5702C93.9582 61.5126 94.9746 61.3207 95.3388 61.1674C96.8152 60.5538 97.8316 58.8661 97.9849 56.7761C98.1386 54.7053 97.966 54.2257 96.5854 52.8833C94.5911 50.9277 93.4213 48.1089 91.1201 39.6522C88.4164 29.7 86.4221 24.1966 83.2774 17.8878C81.053 13.4006 79.2313 10.7544 76.4697 8.01225C71.3307 2.87316 64.9452 -0.137426 59.7679 0.111861C56.3961 0.262581 54.2454 1.15372 51.5703 3.42182C51.4752 3.50262 51.3863 3.5921 51.3054 3.6872L50.4616 4.67854C50.3768 4.77832 50.2986 4.88441 50.2469 5.00483C49.9506 5.69614 49.4892 7.54942 49.4892 8.29796C49.4892 6.74747 48.8001 5.54154 48.4931 5.04242C48.3188 4.75879 48.1276 4.46816 47.4385 3.83194C45.8852 2.3746 45.2523 1.91438 43.891 1.24323C41.8392 0.207735 39.806 -0.175779 37.217 0.0735076ZM74.2404 56.0081L74.3022 55.8461C77.7311 59.016 82.98 62.1973 85.1759 63.3918L82.9707 64.0055L82.9132 64.83C82.8357 65.6655 82.6351 67.514 82.4529 68.2242C81.7434 71.177 80.9765 72.6151 79.7109 73.4014C78.8289 73.9382 78.6756 73.9768 76.7578 73.9768C75.2621 73.9768 74.3032 73.8617 73.1527 73.5358C71.1967 73.0179 70.2189 72.9986 68.4548 73.4972C66.6521 73.9958 66.0195 73.9768 64.0827 73.4014C63.2007 73.133 62.28 72.9221 62.0499 72.9221C61.8008 72.9221 61.0527 73.3056 60.3433 73.7849C58.1575 75.2806 57.4095 75.3192 53.1525 74.1684C50.9281 73.5547 48.2626 73.3632 46.5943 73.6698C45.9231 73.8042 44.485 74.1684 43.392 74.4754C40.4006 75.2999 39.0583 75.1848 37.4475 73.9C36.2012 72.9028 35.8178 72.8453 33.9959 73.4014C32.0016 73.9958 31.2921 73.9958 29.0486 73.4589L27.2844 73.0372L25.0984 73.5547C19.1539 74.9546 17.1405 73.7273 16.0474 68.0322C15.8557 67.0351 15.5872 66.2106 15.4146 66.0573C15.1462 65.8461 15.1462 65.8271 15.4338 65.8271C15.6831 65.8271 15.7598 65.6545 15.7598 65.0601C15.7598 64.318 15.7409 64.3121 14.7861 64.0128L14.7859 64.0127L14.7627 64.0055C14.2258 63.8518 13.6888 63.7178 13.5738 63.7178C16.3202 62.1404 22.4127 58.3789 24.8107 55.9516C25.386 57.2364 26.1722 58.8661 26.5941 59.5949C27.6679 61.5316 29.6814 63.5452 31.6757 64.6574C37.4285 67.8979 37.9654 67.994 50.9474 67.8979C59.6339 67.8403 60.0174 67.8214 61.7815 67.3804C65.9619 66.3446 70.3532 63.2767 72.4051 59.9783C72.865 59.2114 73.632 57.5624 74.1306 56.2968L74.2127 56.0807L74.2404 56.0081ZM36.0042 52.8003L33.9212 57.4635C33.6239 58.1291 34.4176 58.7228 34.9798 58.3152C35.6224 57.8494 36.367 57.3384 37.1925 56.8157C37.3393 56.7227 37.4465 56.5776 37.4912 56.4084L38.0787 54.1795L38.4715 55.1446C38.6283 55.5288 39.0838 55.6859 39.4438 55.4895C40.4968 54.9155 41.6276 54.3635 42.8084 53.8801C43.0079 53.7985 43.1598 53.6276 43.2153 53.4167L43.5833 52.0202L43.8899 52.7731C44.0277 53.1114 44.4026 53.2799 44.7451 53.1693C46.0672 52.7417 47.4274 52.4237 48.7919 52.2711C49.0386 52.2435 49.2549 52.086 49.3538 51.8535L49.6564 51.1399C49.7593 51.142 49.8631 51.12 49.9578 51.0709C50.0525 51.12 50.1564 51.142 50.2594 51.1399L50.5622 51.8535C50.6607 52.086 50.8771 52.2435 51.1238 52.2711C52.4882 52.4237 53.8485 52.7417 55.1709 53.1693C55.513 53.2799 55.8879 53.1114 56.0257 52.7731L56.3324 52.0202L56.7004 53.4167C56.7562 53.6276 56.9078 53.7985 57.1076 53.8801C58.2884 54.3635 59.4189 54.9155 60.4718 55.4895C60.8322 55.6859 61.2877 55.5288 61.4442 55.1446L61.8373 54.1795L62.4248 56.4084C62.4692 56.5776 62.5764 56.7227 62.7235 56.8157C63.549 57.3384 64.2933 57.8494 64.9362 58.3152C65.4982 58.7228 66.292 58.1291 65.9947 57.4635L63.9115 52.8003C63.8781 52.7252 63.8312 52.6549 63.7678 52.5925C61.8432 50.7048 56.6888 47.122 50.3995 46.7582C50.3354 46.7397 50.2673 46.7303 50.1966 46.7317C50.1168 46.7333 50.0373 46.7354 49.9578 46.7381C49.8784 46.7354 49.7988 46.7333 49.7191 46.7317C49.6484 46.7303 49.5803 46.7397 49.5161 46.7582C43.2269 47.122 38.0725 50.7049 36.1482 52.5925C36.0844 52.6549 36.0379 52.7252 36.0042 52.8003Z" fill="black" style="fill:black;fill-opacity:1;"/>
</svg>
