<svg width="99" height="93" viewBox="0 0 99 93" fill="none" xmlns="http://www.w3.org/2000/svg">
<path d="M54.8406 8.32141C55.5725 8.45684 56.4289 8.81598 56.7434 9.13714C58.7572 11.1291 59.9321 12.6509 60.814 14.5822C61.4035 15.7639 62.0716 17.0259 62.29 17.3777C63.2771 18.6433 65.3303 25.7324 65.7745 29.2781C67.4712 42.3806 60.3873 42.4262 54.6701 29.3411C52.5374 24.4899 51.0804 18.1063 51.1084 13.8833C51.1975 9.85143 52.4525 7.97643 54.8406 8.32141Z" fill="black" style="fill:black;fill-opacity:1;"/>
<path d="M26.6866 18.1913C29.4718 19.7793 31.7188 23.3299 34.0519 29.8029C36.3697 36.2281 37.0606 40.38 36.3861 44.0717C35.8801 47.1302 34.551 48.6075 32.8665 48.1435C29.7204 47.25 27.1414 43.4892 23.8172 34.909C22.0623 30.4114 21.8988 29.568 21.8153 25.3278C21.7692 20.707 22.5744 17.9218 24.1129 17.4314C24.5456 17.2935 25.721 17.6563 26.6866 18.1913Z" fill="black" style="fill:black;fill-opacity:1;"/>
<mask id="path-2-outside-1_1305_1564" maskUnits="userSpaceOnUse" x="6.22289" y="29.8555" width="97.5518" height="67.0459" fill="black">
<rect fill="white" x="6.22289" y="29.8555" width="97.5518" height="67.0459"/>
<path d="M19.0564 56.3246C20.4416 56.7048 19.7494 58.0371 17.8969 58.6277L16.3971 59.1057L17.3206 61.0832C21.8797 70.9408 31.9026 78.4283 42.7276 79.9081C46.0873 80.3839 47.6509 80.5622 48.7496 80.502C55.253 80.1691 55.5177 80.0848 61.0936 78.0657C66.9782 75.9482 69.3985 74.5484 73.3592 70.8207C78.6093 65.9569 83.0709 57.8642 84.0696 51.4071C84.6623 47.7862 84.5658 43.225 83.9395 39.896C83.6555 38.2465 83.5833 38.1728 82.3042 38.5805C80.7603 39.0726 79.7924 38.1728 80.8172 37.121C82.3915 35.5075 88.6666 34.764 88.8224 36.1644C88.8785 36.3399 88.9465 36.7049 89.0306 36.9681C89.1287 37.2752 88.6575 37.4737 87.8075 37.5513C86.1516 37.6925 85.9067 38.4473 86.4587 41.8482C87.2689 46.6654 85.8625 55.0409 83.4028 60.272C81.8499 63.4738 79.3646 67.4079 77.7903 69.0215C71.6975 75.5073 67.9598 77.9555 60.4171 80.3598C52.7281 82.7624 48.3337 83.0031 40.2031 81.4379C35.6486 80.5695 26.184 76.0459 25.6934 74.5105C25.6233 74.2911 25.3768 74.128 25.1562 74.1983C23.9653 74.5779 16.3148 64.9324 15.3056 61.7738L14.7589 60.063L13.3132 60.8622C11.6029 61.7457 11.0418 61.0545 12.0769 59.2744C12.797 58.0298 17.6412 56.0023 19.0564 56.3246Z"/>
</mask>
<path d="M19.0564 56.3246C20.4416 56.7048 19.7494 58.0371 17.8969 58.6277L16.3971 59.1057L17.3206 61.0832C21.8797 70.9408 31.9026 78.4283 42.7276 79.9081C46.0873 80.3839 47.6509 80.5622 48.7496 80.502C55.253 80.1691 55.5177 80.0848 61.0936 78.0657C66.9782 75.9482 69.3985 74.5484 73.3592 70.8207C78.6093 65.9569 83.0709 57.8642 84.0696 51.4071C84.6623 47.7862 84.5658 43.225 83.9395 39.896C83.6555 38.2465 83.5833 38.1728 82.3042 38.5805C80.7603 39.0726 79.7924 38.1728 80.8172 37.121C82.3915 35.5075 88.6666 34.764 88.8224 36.1644C88.8785 36.3399 88.9465 36.7049 89.0306 36.9681C89.1287 37.2752 88.6575 37.4737 87.8075 37.5513C86.1516 37.6925 85.9067 38.4473 86.4587 41.8482C87.2689 46.6654 85.8625 55.0409 83.4028 60.272C81.8499 63.4738 79.3646 67.4079 77.7903 69.0215C71.6975 75.5073 67.9598 77.9555 60.4171 80.3598C52.7281 82.7624 48.3337 83.0031 40.2031 81.4379C35.6486 80.5695 26.184 76.0459 25.6934 74.5105C25.6233 74.2911 25.3768 74.128 25.1562 74.1983C23.9653 74.5779 16.3148 64.9324 15.3056 61.7738L14.7589 60.063L13.3132 60.8622C11.6029 61.7457 11.0418 61.0545 12.0769 59.2744C12.797 58.0298 17.6412 56.0023 19.0564 56.3246Z" fill="black" style="fill:black;fill-opacity:1;"/>
<path d="M19.0564 56.3246L19.7225 53.3995L19.7869 53.4141L19.8505 53.4316L19.0564 56.3246ZM16.3971 59.1057L13.6789 60.3751L12.2352 57.2836L15.486 56.2474L16.3971 59.1057ZM17.3206 61.0832L20.0388 59.8138L20.0435 59.8239L17.3206 61.0832ZM42.7276 79.9081L43.1339 76.9357L43.1411 76.9367L43.1483 76.9377L42.7276 79.9081ZM48.7496 80.502L48.5855 77.5065L48.5962 77.506L48.7496 80.502ZM61.0936 78.0657L60.0722 75.2449L60.0778 75.2429L61.0936 78.0657ZM73.3592 70.8207L71.3031 68.6361L71.3117 68.6279L71.3204 68.6199L73.3592 70.8207ZM84.0696 51.4071L81.1048 50.9485L81.1069 50.9355L81.109 50.9225L84.0696 51.4071ZM83.9395 39.896L80.9912 40.4507L80.987 40.4279L80.983 40.4052L83.9395 39.896ZM80.8172 37.121L78.6685 35.0274L78.6699 35.026L80.8172 37.121ZM88.8224 36.1644L85.9647 37.0775L85.8738 36.793L85.8408 36.4962L88.8224 36.1644ZM89.0306 36.9681L86.1729 37.8812L86.1729 37.8812L89.0306 36.9681ZM87.8075 37.5513L88.0803 40.5389L88.0713 40.5397L88.0623 40.5405L87.8075 37.5513ZM86.4587 41.8482L83.5003 42.3458L83.4989 42.3373L83.4975 42.3289L86.4587 41.8482ZM83.4028 60.272L86.1176 61.5485L86.1099 61.5649L86.1021 61.5811L83.4028 60.272ZM77.7903 69.0215L75.6038 66.9675L75.6232 66.9468L75.643 66.9265L77.7903 69.0215ZM60.4171 80.3598L61.3282 83.2181L61.3201 83.2207L61.3119 83.2233L60.4171 80.3598ZM40.2031 81.4379L40.765 78.4909L40.7702 78.492L40.2031 81.4379ZM25.6934 74.5105L28.5511 73.5974L28.5511 73.5974L25.6934 74.5105ZM15.3056 61.7738L12.4479 62.6869L12.4479 62.6869L15.3056 61.7738ZM14.7589 60.063L13.3075 57.4374L16.5047 55.67L17.6166 59.1499L14.7589 60.063ZM13.3132 60.8622L14.7646 63.4877L14.7276 63.5081L14.6901 63.5275L13.3132 60.8622ZM12.0769 59.2744L14.6736 60.7769L14.6703 60.7825L12.0769 59.2744ZM19.8505 53.4316C20.6185 53.6424 21.7219 54.1507 22.3619 55.3402C23.0548 56.6278 22.7907 57.9212 22.364 58.7588C21.61 60.2392 20.0836 61.0794 18.808 61.486L16.9857 55.7694C17.1983 55.7016 17.3057 55.6343 17.3272 55.6192C17.3762 55.5847 17.192 55.6931 17.0176 56.0357C16.8224 56.4189 16.5874 57.271 17.0783 58.1834C17.5165 58.9976 18.187 59.1969 18.2623 59.2176L19.8505 53.4316ZM18.808 61.486L17.3083 61.964L15.486 56.2474L16.9857 55.7694L18.808 61.486ZM19.1154 57.8363L20.0388 59.8138L14.6024 62.3526L13.6789 60.3751L19.1154 57.8363ZM20.0435 59.8239C24.177 68.7613 33.332 75.5958 43.1339 76.9357L42.3213 82.8805C30.4732 81.2608 19.5824 73.1202 14.5977 62.3425L20.0435 59.8239ZM43.1483 76.9377C46.6163 77.4289 47.8467 77.547 48.5855 77.5065L48.9136 83.4976C47.4552 83.5774 45.5584 83.3389 42.3069 82.8785L43.1483 76.9377ZM48.5962 77.506C51.9082 77.3364 53.3636 77.2378 54.6813 76.9744C55.9894 76.7129 57.2171 76.2788 60.0722 75.2449L62.115 80.8865C59.3942 81.8717 57.7015 82.4893 55.8575 82.858C54.0231 83.2247 52.0944 83.3347 48.9029 83.4981L48.5962 77.506ZM60.0778 75.2429C62.962 74.2051 64.8316 73.4002 66.426 72.4617C67.9986 71.536 69.4122 70.4157 71.3031 68.6361L75.4153 73.0053C73.3455 74.9533 71.5686 76.3969 69.4697 77.6323C67.3927 78.855 65.1098 79.8088 62.1093 80.8885L60.0778 75.2429ZM71.3204 68.6199C76.1237 64.1701 80.2193 56.6736 81.1048 50.9485L87.0343 51.8657C85.9224 59.0549 81.095 67.7436 75.398 73.0214L71.3204 68.6199ZM81.109 50.9225C81.6439 47.6551 81.5547 43.4456 80.9912 40.4507L86.8878 39.3414C87.5769 43.0044 87.6808 47.9174 87.0302 51.8917L81.109 50.9225ZM80.983 40.4052C80.9481 40.2021 80.9214 40.053 80.8978 39.9347C80.8865 39.8775 80.8774 39.8354 80.8703 39.805C80.8632 39.7743 80.8597 39.7623 80.8603 39.7644C80.8608 39.7661 80.8681 39.7916 80.884 39.834C80.8998 39.8759 80.9288 39.9471 80.9754 40.0363C81.0677 40.213 81.2567 40.5132 81.6017 40.7939C82.4113 41.4525 83.2601 41.3811 83.4433 41.3574C83.5669 41.3415 83.5818 41.322 83.2153 41.4388L81.393 35.7222C81.666 35.6352 82.1697 35.472 82.6754 35.4068C83.2408 35.3338 84.3653 35.3074 85.3883 36.1397C86.2485 36.8395 86.5292 37.7664 86.6277 38.11C86.7477 38.5282 86.831 39.0093 86.896 39.3869L80.983 40.4052ZM83.2153 41.4388C81.9826 41.8318 79.9821 41.9992 78.5186 40.5927C77.6873 39.7938 77.2715 38.6551 77.4252 37.4746C77.5649 36.402 78.129 35.5811 78.6685 35.0274L82.9658 39.2147C82.9929 39.1869 83.2938 38.8728 83.375 38.2494C83.4702 37.518 83.2007 36.7708 82.6762 36.2667C82.2244 35.8325 81.7681 35.7437 81.5993 35.7254C81.4065 35.7046 81.3332 35.7413 81.393 35.7222L83.2153 41.4388ZM78.6699 35.026C79.57 34.1034 80.8106 33.5695 81.7489 33.2521C82.7845 32.9018 83.928 32.6608 84.9971 32.5335C86.0365 32.4098 87.1893 32.3712 88.2033 32.5342C88.6917 32.6127 89.3662 32.7706 90.0095 33.1457C90.6818 33.5377 91.6428 34.3838 91.804 35.8326L85.8408 36.4962C85.9631 37.5949 86.6939 38.1579 86.9871 38.3288C87.2511 38.4828 87.3975 38.4817 87.2512 38.4582C86.9955 38.4171 86.452 38.4027 85.7064 38.4914C84.9904 38.5767 84.2602 38.7366 83.6716 38.9357C82.9857 39.1677 82.8515 39.3319 82.9645 39.2161L78.6699 35.026ZM91.6801 35.2513C91.7259 35.3948 91.7602 35.5306 91.7791 35.6071C91.7995 35.6898 91.8216 35.7844 91.8356 35.8433C91.8521 35.9134 91.8644 35.9643 91.8754 36.0069C91.8868 36.051 91.891 36.0635 91.8883 36.055L86.1729 37.8812C86.0904 37.6229 86.0279 37.3567 85.9964 37.2234C85.9758 37.1362 85.9651 37.0903 85.9544 37.0469C85.9422 36.9974 85.9469 37.0217 85.9647 37.0775L91.6801 35.2513ZM91.8883 36.055C92.1936 37.0106 92.0456 38.0504 91.4664 38.8865C90.9903 39.5735 90.3702 39.9135 90.0315 40.0698C89.3436 40.3872 88.5983 40.4916 88.0803 40.5389L87.5347 34.5638C87.8667 34.5335 87.782 34.4998 87.5177 34.6218C87.3908 34.6803 86.9232 34.9083 86.5345 35.4693C86.3217 35.7764 86.1422 36.1723 86.0732 36.6407C86.0042 37.1084 86.0622 37.5345 86.1729 37.8812L91.8883 36.055ZM88.0623 40.5405C87.8009 40.5628 88.0026 40.587 88.3286 40.3974C88.5193 40.2865 88.7169 40.1239 88.8833 39.9079C89.0453 39.6979 89.1273 39.5031 89.1661 39.3799C89.2265 39.1885 89.1777 39.1851 89.1996 39.6054C89.2198 39.9915 89.2871 40.5486 89.42 41.3675L83.4975 42.3289C83.3544 41.4473 83.2452 40.6347 83.2078 39.9184C83.1722 39.2363 83.1845 38.3976 83.4441 37.5748C83.7446 36.6222 84.3541 35.7679 85.3124 35.2106C86.1329 34.7335 86.9862 34.6105 87.5527 34.5622L88.0623 40.5405ZM89.4172 41.3507C89.8997 44.2195 89.701 47.8856 89.1162 51.3976C88.5265 54.9391 87.4945 58.6204 86.1176 61.5485L80.6879 58.9954C81.7708 56.6925 82.6718 53.5704 83.1977 50.4121C83.7285 47.2243 83.828 44.2941 83.5003 42.3458L89.4172 41.3507ZM86.1021 61.5811C84.4972 64.8902 81.8447 69.1618 79.9376 71.1165L75.643 66.9265C76.8845 65.654 79.2026 62.0575 80.7035 58.9629L86.1021 61.5811ZM79.9768 71.0755C76.859 74.3945 74.2138 76.8222 71.2878 78.733C68.3442 80.6554 65.2494 81.9682 61.3282 83.2181L59.506 77.5015C63.1275 76.3471 65.6729 75.2337 68.0071 73.7094C70.3588 72.1736 72.6288 70.1344 75.6038 66.9675L79.9768 71.0755ZM61.3119 83.2233C57.3407 84.4642 54.0562 85.1992 50.6362 85.3825C47.2202 85.5656 43.8228 85.1898 39.6359 84.3838L40.7702 78.492C44.7139 79.2512 47.5791 79.5377 50.3152 79.3911C53.0473 79.2447 55.8045 78.6581 59.5224 77.4963L61.3119 83.2233ZM39.6412 84.3848C36.981 83.8776 33.1992 82.3967 30.1313 80.9314C28.5686 80.1849 27.0812 79.3904 25.9169 78.6498C25.3409 78.2834 24.7776 77.8885 24.3076 77.4817C24.0724 77.2781 23.813 77.0309 23.5758 76.7443C23.3607 76.4844 23.0311 76.0351 22.8357 75.4235L28.5511 73.5974C28.417 73.1777 28.2188 72.9438 28.1985 72.9192C28.1561 72.868 28.1548 72.8762 28.2342 72.945C28.3935 73.0828 28.6857 73.3 29.1372 73.5872C30.0278 74.1537 31.2832 74.8323 32.7173 75.5172C35.6429 76.9146 38.8707 78.1298 40.765 78.491L39.6412 84.3848ZM22.8357 75.4236C23.037 76.0534 23.4505 76.5228 23.9256 76.8109C24.4108 77.1052 25.1904 77.3362 26.0674 77.0566L24.2451 71.34C25.3426 70.9902 26.3558 71.2676 27.0369 71.6806C27.7079 72.0875 28.2797 72.7482 28.5511 73.5974L22.8357 75.4236ZM26.0674 77.0566C24.9602 77.4095 24.0286 77.0591 23.7094 76.9264C23.2887 76.7516 22.9344 76.5207 22.6821 76.3394C22.1631 75.9666 21.6298 75.4771 21.1355 74.9829C20.1238 73.9715 18.9453 72.6059 17.8121 71.1769C16.6724 69.7396 15.5286 68.1751 14.5921 66.7428C13.7121 65.3968 12.8362 63.9022 12.4479 62.6869L18.1633 60.8608C18.2796 61.2248 18.7384 62.1203 19.614 63.4594C20.433 64.712 21.4655 66.1274 22.5134 67.4489C23.5679 68.7786 24.5884 69.9507 25.3776 70.7397C25.7838 71.1458 26.0515 71.3722 26.1828 71.4666C26.2556 71.5189 26.1888 71.4593 26.0115 71.3856C25.9357 71.3542 25.2034 71.0346 24.2451 71.34L26.0674 77.0566ZM12.4479 62.6869L11.9013 60.976L17.6166 59.1499L18.1633 60.8608L12.4479 62.6869ZM16.2103 62.6885L14.7646 63.4877L11.8618 58.2366L13.3075 57.4374L16.2103 62.6885ZM14.6901 63.5275C14.1105 63.8269 13.384 64.1274 12.5934 64.2178C11.8368 64.3042 10.3481 64.2412 9.30997 62.925C8.36402 61.7256 8.5263 60.3747 8.66282 59.7536C8.82173 59.0307 9.14359 58.3509 9.48348 57.7664L14.6703 60.7825C14.4926 61.088 14.4965 61.1621 14.5229 61.0418C14.527 61.0234 14.7423 60.1238 14.021 59.2093C13.2076 58.178 12.1152 58.2334 11.9125 58.2565C11.6757 58.2836 11.6607 58.3392 11.9363 58.1968L14.6901 63.5275ZM9.48023 57.772C9.81565 57.1923 10.2602 56.766 10.5799 56.4935C10.9299 56.1953 11.3137 55.9289 11.6851 55.6974C12.4288 55.2337 13.2947 54.8036 14.1421 54.4469C14.9901 54.0899 15.9015 53.7719 16.7503 53.5621C17.4381 53.3922 18.6181 53.148 19.7225 53.3995L18.3903 59.2497C18.667 59.3127 18.8039 59.2803 18.6793 59.2928C18.5923 59.3015 18.4303 59.3275 18.1899 59.3869C17.71 59.5055 17.0999 59.7117 16.47 59.9769C15.8394 60.2424 15.2707 60.5324 14.8594 60.7889C14.6533 60.9174 14.5294 61.011 14.4711 61.0607C14.3826 61.1361 14.5182 61.0454 14.6735 60.7769L9.48023 57.772Z" fill="black" style="fill:black;fill-opacity:1;" mask="url(#path-2-outside-1_1305_1564)"/>
</svg>
