<svg width="76" height="75" viewBox="0 0 76 75" fill="none" xmlns="http://www.w3.org/2000/svg">
<path fill-rule="evenodd" clip-rule="evenodd" d="M22.3611 30.8132C16.2965 35.0289 8.92803 37.5 0.982422 37.5C8.92803 37.5 16.2965 39.9711 22.3611 44.1868C22.4714 44.2635 22.5813 44.3407 22.6907 44.4186C26.2309 46.9361 29.3152 50.053 31.7956 53.6213C36.0113 59.686 38.4824 67.0544 38.4824 75C38.4824 67.0544 40.9536 59.686 45.1692 53.6213C45.2459 53.511 45.3232 53.4011 45.401 53.2917C47.9185 49.7515 51.0355 46.6672 54.6037 44.1868C60.6684 39.9711 68.0368 37.5 75.9824 37.5C68.0368 37.5 60.6684 35.0289 54.6037 30.8132C54.4934 30.7365 54.3836 30.6593 54.2741 30.5814C50.7339 28.0639 47.6496 24.947 45.1692 21.3787C40.9536 15.314 38.4824 7.94561 38.4824 0C38.4824 7.94561 36.0113 15.314 31.7956 21.3787C31.7189 21.489 31.6417 21.5989 31.5639 21.7083C29.0463 25.2485 25.9294 28.3328 22.3611 30.8132ZM11.9824 11C16.2276 15.2451 21.2378 18.259 26.5692 20.0414C24.9505 22.1051 23.0875 23.9681 21.0239 25.5868C19.2414 20.2553 16.2276 15.2451 11.9824 11ZM11.9824 64C16.2276 59.7549 19.2414 54.7447 21.0239 49.4132C23.0875 51.0319 24.9505 52.8949 26.5692 54.9586C21.2378 56.7411 16.2276 59.7549 11.9824 64ZM64.9824 64C60.7373 59.7549 55.7271 56.741 50.3957 54.9586C52.0144 52.8949 53.8773 51.0319 55.941 49.4132C57.7235 54.7447 60.7373 59.7549 64.9824 64ZM64.9824 11C60.7373 15.2451 57.7235 20.2553 55.941 25.5868C53.8773 23.9681 52.0144 22.1051 50.3957 20.0414C55.7271 18.259 60.7373 15.2451 64.9824 11Z" fill="black" style="fill:black;fill-opacity:1;"/>
</svg>
